<?xml version="1.0" encoding="utf-8" standalone="no"?>
<!DOCTYPE svg PUBLIC "-//W3C//DTD SVG 1.1//EN"
  "http://www.w3.org/Graphics/SVG/1.1/DTD/svg11.dtd">
<svg xmlns:xlink="http://www.w3.org/1999/xlink" width="488.449191pt" height="200.383067pt" viewBox="0 0 488.449191 200.383067" xmlns="http://www.w3.org/2000/svg" version="1.1">
 <metadata>
  <rdf:RDF xmlns:dc="http://purl.org/dc/elements/1.1/" xmlns:cc="http://creativecommons.org/ns#" xmlns:rdf="http://www.w3.org/1999/02/22-rdf-syntax-ns#">
   <cc:Work>
    <dc:type rdf:resource="http://purl.org/dc/dcmitype/StillImage"/>
    <dc:date>2026-02-18T12:33:13.064373</dc:date>
    <dc:format>image/svg+xml</dc:format>
    <dc:creator>
     <cc:Agent>
      <dc:title>Matplotlib v3.10.7, https://matplotlib.org/</dc:title>
     </cc:Agent>
    </dc:creator>
   </cc:Work>
  </rdf:RDF>
 </metadata>
 <defs>
  <style type="text/css">*{stroke-linejoin: round; stroke-linecap: butt}</style>
 </defs>
 <g id="figure_1">
  <g id="patch_1">
   <path d="M 0 200.383067 
L 488.449191 200.383067 
L 488.449191 0 
L 0 0 
z
" style="fill: #ffffff"/>
  </g>
  <g id="axes_1">
   <g id="patch_2">
    <path d="M 33.682813 172.025723 
L 224.507936 172.025723 
L 224.507936 6.512192 
L 33.682813 6.512192 
z
" style="fill: #ffffff"/>
   </g>
   <g id="matplotlib.axis_1">
    <g id="xtick_1">
     <g id="line2d_1">
      <path d="M 42.009032 172.025723 
L 42.009032 6.512192 
" clip-path="url(#pe626117d74)" style="fill: none; stroke-dasharray: 1.48,0.64; stroke-dashoffset: 0; stroke: #b0b0b0; stroke-opacity: 0.2; stroke-width: 0.4"/>
     </g>
     <g id="line2d_2">
      <defs>
       <path id="m281e0a9a8d" d="M 0 0 
L 0 -3.5 
" style="stroke: #000000; stroke-width: 0.6"/>
      </defs>
      <g>
       <use xlink:href="#m281e0a9a8d" x="42.009032" y="172.025723" style="stroke: #000000; stroke-width: 0.6"/>
      </g>
     </g>
     <g id="line2d_3">
      <defs>
       <path id="mc3b9b6f23f" d="M 0 0 
L 0 3.5 
" style="stroke: #000000; stroke-width: 0.6"/>
      </defs>
      <g>
       <use xlink:href="#mc3b9b6f23f" x="42.009032" y="6.512192" style="stroke: #000000; stroke-width: 0.6"/>
      </g>
     </g>
     <g id="text_1">
      <text style="font-size: 9px; font-family: 'Times New Roman', 'Times', 'DejaVu Serif', serif; text-anchor: middle" x="42.009032" y="181.775098" transform="rotate(-0 42.009032 181.775098)">0</text>
     </g>
    </g>
    <g id="xtick_2">
     <g id="line2d_4">
      <path d="M 76.774039 172.025723 
L 76.774039 6.512192 
" clip-path="url(#pe626117d74)" style="fill: none; stroke-dasharray: 1.48,0.64; stroke-dashoffset: 0; stroke: #b0b0b0; stroke-opacity: 0.2; stroke-width: 0.4"/>
     </g>
     <g id="line2d_5">
      <g>
       <use xlink:href="#m281e0a9a8d" x="76.774039" y="172.025723" style="stroke: #000000; stroke-width: 0.6"/>
      </g>
     </g>
     <g id="line2d_6">
      <g>
       <use xlink:href="#mc3b9b6f23f" x="76.774039" y="6.512192" style="stroke: #000000; stroke-width: 0.6"/>
      </g>
     </g>
     <g id="text_2">
      <text style="font-size: 9px; font-family: 'Times New Roman', 'Times', 'DejaVu Serif', serif; text-anchor: middle" x="76.774039" y="181.775098" transform="rotate(-0 76.774039 181.775098)">100</text>
     </g>
    </g>
    <g id="xtick_3">
     <g id="line2d_7">
      <path d="M 111.539046 172.025723 
L 111.539046 6.512192 
" clip-path="url(#pe626117d74)" style="fill: none; stroke-dasharray: 1.48,0.64; stroke-dashoffset: 0; stroke: #b0b0b0; stroke-opacity: 0.2; stroke-width: 0.4"/>
     </g>
     <g id="line2d_8">
      <g>
       <use xlink:href="#m281e0a9a8d" x="111.539046" y="172.025723" style="stroke: #000000; stroke-width: 0.6"/>
      </g>
     </g>
     <g id="line2d_9">
      <g>
       <use xlink:href="#mc3b9b6f23f" x="111.539046" y="6.512192" style="stroke: #000000; stroke-width: 0.6"/>
      </g>
     </g>
     <g id="text_3">
      <text style="font-size: 9px; font-family: 'Times New Roman', 'Times', 'DejaVu Serif', serif; text-anchor: middle" x="111.539046" y="181.775098" transform="rotate(-0 111.539046 181.775098)">200</text>
     </g>
    </g>
    <g id="xtick_4">
     <g id="line2d_10">
      <path d="M 146.304053 172.025723 
L 146.304053 6.512192 
" clip-path="url(#pe626117d74)" style="fill: none; stroke-dasharray: 1.48,0.64; stroke-dashoffset: 0; stroke: #b0b0b0; stroke-opacity: 0.2; stroke-width: 0.4"/>
     </g>
     <g id="line2d_11">
      <g>
       <use xlink:href="#m281e0a9a8d" x="146.304053" y="172.025723" style="stroke: #000000; stroke-width: 0.6"/>
      </g>
     </g>
     <g id="line2d_12">
      <g>
       <use xlink:href="#mc3b9b6f23f" x="146.304053" y="6.512192" style="stroke: #000000; stroke-width: 0.6"/>
      </g>
     </g>
     <g id="text_4">
      <text style="font-size: 9px; font-family: 'Times New Roman', 'Times', 'DejaVu Serif', serif; text-anchor: middle" x="146.304053" y="181.775098" transform="rotate(-0 146.304053 181.775098)">300</text>
     </g>
    </g>
    <g id="xtick_5">
     <g id="line2d_13">
      <path d="M 181.06906 172.025723 
L 181.06906 6.512192 
" clip-path="url(#pe626117d74)" style="fill: none; stroke-dasharray: 1.48,0.64; stroke-dashoffset: 0; stroke: #b0b0b0; stroke-opacity: 0.2; stroke-width: 0.4"/>
     </g>
     <g id="line2d_14">
      <g>
       <use xlink:href="#m281e0a9a8d" x="181.06906" y="172.025723" style="stroke: #000000; stroke-width: 0.6"/>
      </g>
     </g>
     <g id="line2d_15">
      <g>
       <use xlink:href="#mc3b9b6f23f" x="181.06906" y="6.512192" style="stroke: #000000; stroke-width: 0.6"/>
      </g>
     </g>
     <g id="text_5">
      <text style="font-size: 9px; font-family: 'Times New Roman', 'Times', 'DejaVu Serif', serif; text-anchor: middle" x="181.06906" y="181.775098" transform="rotate(-0 181.06906 181.775098)">400</text>
     </g>
    </g>
    <g id="xtick_6">
     <g id="line2d_16">
      <path d="M 215.834067 172.025723 
L 215.834067 6.512192 
" clip-path="url(#pe626117d74)" style="fill: none; stroke-dasharray: 1.48,0.64; stroke-dashoffset: 0; stroke: #b0b0b0; stroke-opacity: 0.2; stroke-width: 0.4"/>
     </g>
     <g id="line2d_17">
      <g>
       <use xlink:href="#m281e0a9a8d" x="215.834067" y="172.025723" style="stroke: #000000; stroke-width: 0.6"/>
      </g>
     </g>
     <g id="line2d_18">
      <g>
       <use xlink:href="#mc3b9b6f23f" x="215.834067" y="6.512192" style="stroke: #000000; stroke-width: 0.6"/>
      </g>
     </g>
     <g id="text_6">
      <text style="font-size: 9px; font-family: 'Times New Roman', 'Times', 'DejaVu Serif', serif; text-anchor: middle" x="215.834067" y="181.775098" transform="rotate(-0 215.834067 181.775098)">500</text>
     </g>
    </g>
    <g id="text_7">
     <text style="font-size: 10px; font-family: 'Times New Roman', 'Times', 'DejaVu Serif', serif; text-anchor: middle" x="129.095374" y="194.644004" transform="rotate(-0 129.095374 194.644004)">Iteration</text>
    </g>
   </g>
   <g id="matplotlib.axis_2">
    <g id="ytick_1">
     <g id="line2d_19">
      <path d="M 33.682813 168.827613 
L 224.507936 168.827613 
" clip-path="url(#pe626117d74)" style="fill: none; stroke-dasharray: 1.48,0.64; stroke-dashoffset: 0; stroke: #b0b0b0; stroke-opacity: 0.2; stroke-width: 0.4"/>
     </g>
     <g id="line2d_20">
      <defs>
       <path id="m3aceeaf81e" d="M 0 0 
L 3.5 0 
" style="stroke: #000000; stroke-width: 0.6"/>
      </defs>
      <g>
       <use xlink:href="#m3aceeaf81e" x="33.682813" y="168.827613" style="stroke: #000000; stroke-width: 0.6"/>
      </g>
     </g>
     <g id="line2d_21">
      <defs>
       <path id="m537f858f1b" d="M 0 0 
L -3.5 0 
" style="stroke: #000000; stroke-width: 0.6"/>
      </defs>
      <g>
       <use xlink:href="#m537f858f1b" x="224.507936" y="168.827613" style="stroke: #000000; stroke-width: 0.6"/>
      </g>
     </g>
     <g id="text_8">
      <text style="font-size: 9px; font-family: 'Times New Roman', 'Times', 'DejaVu Serif', serif; text-anchor: end" x="30.182813" y="171.9523" transform="rotate(-0 30.182813 171.9523)">280</text>
     </g>
    </g>
    <g id="ytick_2">
     <g id="line2d_22">
      <path d="M 33.682813 146.191904 
L 224.507936 146.191904 
" clip-path="url(#pe626117d74)" style="fill: none; stroke-dasharray: 1.48,0.64; stroke-dashoffset: 0; stroke: #b0b0b0; stroke-opacity: 0.2; stroke-width: 0.4"/>
     </g>
     <g id="line2d_23">
      <g>
       <use xlink:href="#m3aceeaf81e" x="33.682813" y="146.191904" style="stroke: #000000; stroke-width: 0.6"/>
      </g>
     </g>
     <g id="line2d_24">
      <g>
       <use xlink:href="#m537f858f1b" x="224.507936" y="146.191904" style="stroke: #000000; stroke-width: 0.6"/>
      </g>
     </g>
     <g id="text_9">
      <text style="font-size: 9px; font-family: 'Times New Roman', 'Times', 'DejaVu Serif', serif; text-anchor: end" x="30.182813" y="149.316591" transform="rotate(-0 30.182813 149.316591)">300</text>
     </g>
    </g>
    <g id="ytick_3">
     <g id="line2d_25">
      <path d="M 33.682813 123.556195 
L 224.507936 123.556195 
" clip-path="url(#pe626117d74)" style="fill: none; stroke-dasharray: 1.48,0.64; stroke-dashoffset: 0; stroke: #b0b0b0; stroke-opacity: 0.2; stroke-width: 0.4"/>
     </g>
     <g id="line2d_26">
      <g>
       <use xlink:href="#m3aceeaf81e" x="33.682813" y="123.556195" style="stroke: #000000; stroke-width: 0.6"/>
      </g>
     </g>
     <g id="line2d_27">
      <g>
       <use xlink:href="#m537f858f1b" x="224.507936" y="123.556195" style="stroke: #000000; stroke-width: 0.6"/>
      </g>
     </g>
     <g id="text_10">
      <text style="font-size: 9px; font-family: 'Times New Roman', 'Times', 'DejaVu Serif', serif; text-anchor: end" x="30.182813" y="126.680882" transform="rotate(-0 30.182813 126.680882)">320</text>
     </g>
    </g>
    <g id="ytick_4">
     <g id="line2d_28">
      <path d="M 33.682813 100.920486 
L 224.507936 100.920486 
" clip-path="url(#pe626117d74)" style="fill: none; stroke-dasharray: 1.48,0.64; stroke-dashoffset: 0; stroke: #b0b0b0; stroke-opacity: 0.2; stroke-width: 0.4"/>
     </g>
     <g id="line2d_29">
      <g>
       <use xlink:href="#m3aceeaf81e" x="33.682813" y="100.920486" style="stroke: #000000; stroke-width: 0.6"/>
      </g>
     </g>
     <g id="line2d_30">
      <g>
       <use xlink:href="#m537f858f1b" x="224.507936" y="100.920486" style="stroke: #000000; stroke-width: 0.6"/>
      </g>
     </g>
     <g id="text_11">
      <text style="font-size: 9px; font-family: 'Times New Roman', 'Times', 'DejaVu Serif', serif; text-anchor: end" x="30.182813" y="104.045173" transform="rotate(-0 30.182813 104.045173)">340</text>
     </g>
    </g>
    <g id="ytick_5">
     <g id="line2d_31">
      <path d="M 33.682813 78.284777 
L 224.507936 78.284777 
" clip-path="url(#pe626117d74)" style="fill: none; stroke-dasharray: 1.48,0.64; stroke-dashoffset: 0; stroke: #b0b0b0; stroke-opacity: 0.2; stroke-width: 0.4"/>
     </g>
     <g id="line2d_32">
      <g>
       <use xlink:href="#m3aceeaf81e" x="33.682813" y="78.284777" style="stroke: #000000; stroke-width: 0.6"/>
      </g>
     </g>
     <g id="line2d_33">
      <g>
       <use xlink:href="#m537f858f1b" x="224.507936" y="78.284777" style="stroke: #000000; stroke-width: 0.6"/>
      </g>
     </g>
     <g id="text_12">
      <text style="font-size: 9px; font-family: 'Times New Roman', 'Times', 'DejaVu Serif', serif; text-anchor: end" x="30.182813" y="81.409464" transform="rotate(-0 30.182813 81.409464)">360</text>
     </g>
    </g>
    <g id="ytick_6">
     <g id="line2d_34">
      <path d="M 33.682813 55.649068 
L 224.507936 55.649068 
" clip-path="url(#pe626117d74)" style="fill: none; stroke-dasharray: 1.48,0.64; stroke-dashoffset: 0; stroke: #b0b0b0; stroke-opacity: 0.2; stroke-width: 0.4"/>
     </g>
     <g id="line2d_35">
      <g>
       <use xlink:href="#m3aceeaf81e" x="33.682813" y="55.649068" style="stroke: #000000; stroke-width: 0.6"/>
      </g>
     </g>
     <g id="line2d_36">
      <g>
       <use xlink:href="#m537f858f1b" x="224.507936" y="55.649068" style="stroke: #000000; stroke-width: 0.6"/>
      </g>
     </g>
     <g id="text_13">
      <text style="font-size: 9px; font-family: 'Times New Roman', 'Times', 'DejaVu Serif', serif; text-anchor: end" x="30.182813" y="58.773755" transform="rotate(-0 30.182813 58.773755)">380</text>
     </g>
    </g>
    <g id="ytick_7">
     <g id="line2d_37">
      <path d="M 33.682813 33.013359 
L 224.507936 33.013359 
" clip-path="url(#pe626117d74)" style="fill: none; stroke-dasharray: 1.48,0.64; stroke-dashoffset: 0; stroke: #b0b0b0; stroke-opacity: 0.2; stroke-width: 0.4"/>
     </g>
     <g id="line2d_38">
      <g>
       <use xlink:href="#m3aceeaf81e" x="33.682813" y="33.013359" style="stroke: #000000; stroke-width: 0.6"/>
      </g>
     </g>
     <g id="line2d_39">
      <g>
       <use xlink:href="#m537f858f1b" x="224.507936" y="33.013359" style="stroke: #000000; stroke-width: 0.6"/>
      </g>
     </g>
     <g id="text_14">
      <text style="font-size: 9px; font-family: 'Times New Roman', 'Times', 'DejaVu Serif', serif; text-anchor: end" x="30.182813" y="36.138046" transform="rotate(-0 30.182813 36.138046)">400</text>
     </g>
    </g>
    <g id="ytick_8">
     <g id="line2d_40">
      <path d="M 33.682813 10.37765 
L 224.507936 10.37765 
" clip-path="url(#pe626117d74)" style="fill: none; stroke-dasharray: 1.48,0.64; stroke-dashoffset: 0; stroke: #b0b0b0; stroke-opacity: 0.2; stroke-width: 0.4"/>
     </g>
     <g id="line2d_41">
      <g>
       <use xlink:href="#m3aceeaf81e" x="33.682813" y="10.37765" style="stroke: #000000; stroke-width: 0.6"/>
      </g>
     </g>
     <g id="line2d_42">
      <g>
       <use xlink:href="#m537f858f1b" x="224.507936" y="10.37765" style="stroke: #000000; stroke-width: 0.6"/>
      </g>
     </g>
     <g id="text_15">
      <text style="font-size: 9px; font-family: 'Times New Roman', 'Times', 'DejaVu Serif', serif; text-anchor: end" x="30.182813" y="13.502337" transform="rotate(-0 30.182813 13.502337)">420</text>
     </g>
    </g>
    <g id="text_16">
     <text style="font-size: 10px; font-family: 'Times New Roman', 'Times', 'DejaVu Serif', serif; text-anchor: middle" x="10.54375" y="89.268957" transform="rotate(-90 10.54375 89.268957)">Best Distance (km)</text>
    </g>
   </g>
   <g id="line2d_43">
    <path d="M 42.356682 133.979276 
L 43.051982 139.085601 
L 43.399632 140.105751 
L 43.747282 141.65585 
L 44.094932 142.045934 
L 44.442582 142.848805 
L 44.790232 143.318561 
L 45.137882 144.205863 
L 45.833182 144.674817 
L 46.528483 145.728877 
L 46.876133 145.811601 
L 47.571433 147.331606 
L 48.266733 147.331606 
L 48.614383 147.690268 
L 48.962033 147.844845 
L 49.657333 148.654694 
L 50.004983 148.707619 
L 51.395584 149.321252 
L 51.743234 149.410976 
L 52.090884 149.632422 
L 52.786184 149.690727 
L 53.133834 150.001879 
L 53.829134 150.101081 
L 54.176784 150.446538 
L 54.524434 150.481414 
L 55.567384 151.468006 
L 55.915035 151.468006 
L 56.262685 152.037775 
L 56.610335 152.037775 
L 57.305635 152.452675 
L 58.348585 152.581972 
L 58.696235 152.581972 
L 59.391535 153.312073 
L 59.739185 153.330361 
L 60.086835 153.718129 
L 61.129786 153.766366 
L 62.172736 153.766366 
L 63.215686 154.04642 
L 63.563336 154.048534 
L 63.910986 154.260531 
L 64.258636 154.269319 
L 64.953936 154.527592 
L 65.996887 154.820098 
L 66.344537 155.602948 
L 67.039837 155.643556 
L 67.735137 155.968181 
L 68.082787 155.968181 
L 68.778087 156.351435 
L 69.125737 156.596701 
L 69.473387 156.64451 
L 69.821037 156.934613 
L 70.516338 157.03705 
L 70.863988 157.060294 
L 71.211638 157.320735 
L 71.559288 157.320735 
L 71.906938 157.545109 
L 72.949888 157.564401 
L 73.645188 157.816888 
L 75.383439 157.923384 
L 75.731089 158.396646 
L 76.774039 158.663105 
L 77.469339 158.672064 
L 77.816989 158.850905 
L 78.859939 158.859364 
L 79.207589 158.977276 
L 80.25054 159.058383 
L 80.59819 159.387628 
L 82.33644 159.675483 
L 83.03174 160.025329 
L 84.07469 160.114839 
L 84.76999 160.114839 
L 85.117641 160.273283 
L 85.812941 160.273283 
L 86.508241 160.41993 
L 87.898841 160.580752 
L 89.637091 160.675099 
L 91.027692 160.950641 
L 91.375342 160.973771 
L 91.722992 161.146897 
L 94.156542 161.297532 
L 95.199493 161.468886 
L 96.242443 161.651743 
L 96.937743 161.762404 
L 97.633043 161.839999 
L 100.761894 162.024701 
L 101.457194 162.353511 
L 105.628995 162.434021 
L 106.671945 162.498365 
L 108.410195 162.586479 
L 112.234346 162.682378 
L 115.363197 162.742642 
L 116.406147 162.808986 
L 118.144397 163.032512 
L 120.230298 163.086029 
L 120.577948 163.214467 
L 125.792699 163.31819 
L 126.487999 163.433504 
L 130.6598 163.541217 
L 131.70275 163.579217 
L 138.308101 163.677603 
L 139.698702 163.708356 
L 158.471805 163.808609 
L 159.862406 163.8408 
L 215.834067 163.907447 
L 215.834067 163.907447 
" clip-path="url(#pe626117d74)" style="fill: none; stroke: #d62728; stroke-width: 1.2; stroke-linecap: square"/>
   </g>
   <g id="line2d_44">
    <path d="M 42.356682 144.549565 
L 42.704332 149.843276 
L 43.399632 153.972575 
L 43.747282 154.596146 
L 44.094932 155.538191 
L 44.442582 156.151341 
L 44.790232 157.125901 
L 45.137882 157.534943 
L 45.485532 158.277176 
L 45.833182 158.642421 
L 46.528483 158.868281 
L 48.962033 159.970176 
L 49.657333 160.033211 
L 50.004983 160.358591 
L 51.047934 160.645825 
L 51.743234 160.686899 
L 52.090884 161.061229 
L 52.438534 161.151126 
L 53.133834 161.553433 
L 53.829134 161.640691 
L 59.391535 162.05248 
L 62.868036 162.154524 
L 63.563336 162.261009 
L 76.078739 162.3715 
L 80.25054 162.550994 
L 215.834067 162.611446 
L 215.834067 162.611446 
" clip-path="url(#pe626117d74)" style="fill: none; stroke-dasharray: 4.44,1.92; stroke-dashoffset: 0; stroke: #1f77b4; stroke-width: 1.2"/>
   </g>
   <g id="line2d_45">
    <path d="M 42.356682 14.035534 
L 43.051982 41.383505 
L 43.399632 48.594723 
L 43.747282 60.455862 
L 44.442582 73.041327 
L 45.485532 93.604644 
L 46.180833 101.902528 
L 46.876133 107.586918 
L 47.223783 109.550553 
L 47.919083 115.211089 
L 49.657333 121.645318 
L 50.352633 123.102318 
L 51.047934 124.361978 
L 51.395584 124.92005 
L 52.786184 126.103992 
L 53.481484 126.684743 
L 53.829134 126.787927 
L 54.176784 127.168785 
L 54.872084 127.406065 
L 55.567384 128.094693 
L 56.262685 128.217957 
L 56.957985 128.450051 
L 57.305635 129.038952 
L 58.348585 129.190862 
L 58.696235 129.459408 
L 59.043885 129.525506 
L 60.086835 130.241256 
L 61.477436 130.648041 
L 61.825086 131.07209 
L 62.520386 131.202638 
L 62.868036 131.391299 
L 63.215686 131.880198 
L 64.258636 132.245522 
L 64.606286 132.305766 
L 65.301586 133.008632 
L 65.649237 133.009377 
L 67.039837 133.707749 
L 67.735137 133.773416 
L 70.863988 133.930229 
L 73.992838 134.454354 
L 74.340488 134.673023 
L 75.035788 134.675883 
L 76.078739 134.998865 
L 78.164639 135.101329 
L 80.59819 135.640107 
L 80.94584 136.095929 
L 81.29349 136.096015 
L 81.64114 136.266511 
L 83.72704 136.371892 
L 84.76999 136.485743 
L 85.117641 136.894788 
L 86.160591 136.910885 
L 86.508241 137.033659 
L 87.898841 137.112256 
L 89.637091 137.409838 
L 90.332392 137.732161 
L 91.375342 137.971103 
L 91.722992 138.19722 
L 93.113592 138.278687 
L 93.461242 138.687726 
L 93.808892 138.897349 
L 94.156542 138.907573 
L 95.547143 139.546034 
L 99.718943 139.643289 
L 107.714895 140.116781 
L 108.062545 140.184138 
L 108.410195 140.722284 
L 109.453145 140.751009 
L 109.800796 140.955726 
L 111.886696 141.118888 
L 112.929646 141.118888 
L 113.277296 141.312509 
L 119.187347 141.396227 
L 119.882648 141.473588 
L 122.663848 141.579023 
L 123.359148 141.637099 
L 134.136301 141.727948 
L 136.917501 141.989839 
L 138.655751 142.099376 
L 139.351052 142.116227 
L 139.698702 142.309816 
L 141.784602 142.309816 
L 142.132252 142.516076 
L 149.432904 142.531361 
L 150.128204 142.64736 
L 150.475854 142.64736 
L 150.823504 142.80977 
L 152.909404 142.822826 
L 153.257054 143.070417 
L 156.733555 143.070503 
L 157.081205 143.224033 
L 159.167106 143.243886 
L 164.729507 143.26367 
L 165.424807 143.380625 
L 172.725458 143.469244 
L 175.506659 143.572988 
L 201.232764 143.671821 
L 205.752215 143.755389 
L 215.834067 143.777777 
L 215.834067 143.777777 
" clip-path="url(#pe626117d74)" style="fill: none; stroke-dasharray: 7.68,1.92,1.2,1.92; stroke-dashoffset: 0; stroke: #2ca02c; stroke-width: 1.2"/>
   </g>
   <g id="line2d_46">
    <path d="M 42.356682 93.070851 
L 42.704332 103.469984 
L 43.051982 109.125686 
L 43.747282 113.653761 
L 44.094932 116.319311 
L 44.442582 117.763779 
L 44.790232 121.198278 
L 45.137882 122.943783 
L 45.485532 123.357491 
L 45.833182 126.00775 
L 46.180833 126.254202 
L 46.876133 128.582616 
L 47.223783 128.810866 
L 47.571433 129.510673 
L 47.919083 130.542572 
L 48.266733 130.918051 
L 48.614383 131.118617 
L 48.962033 131.859844 
L 49.309683 132.165279 
L 50.004983 133.372815 
L 51.395584 136.76954 
L 51.743234 137.545301 
L 52.090884 137.545301 
L 52.786184 138.395098 
L 53.133834 138.843182 
L 53.481484 139.499716 
L 53.829134 141.144244 
L 54.176784 141.230142 
L 55.567384 143.728346 
L 55.915035 143.919801 
L 56.262685 144.426633 
L 56.610335 144.555453 
L 57.305635 145.373744 
L 57.653285 145.483547 
L 58.696235 146.829485 
L 59.043885 147.972661 
L 59.391535 148.294116 
L 61.129786 151.120374 
L 62.172736 152.358384 
L 62.520386 152.588234 
L 62.868036 152.605553 
L 64.258636 154.035199 
L 64.953936 155.191475 
L 65.649237 155.378708 
L 65.996887 155.510252 
L 67.039837 156.656069 
L 68.082787 156.747575 
L 68.778087 157.074529 
L 69.125737 157.363509 
L 69.821037 157.576213 
L 71.559288 158.614984 
L 72.602238 159.249272 
L 73.297538 159.339316 
L 73.645188 159.915076 
L 73.992838 159.923314 
L 74.340488 160.293432 
L 75.731089 160.554048 
L 76.078739 160.84531 
L 77.469339 160.962434 
L 77.816989 161.225836 
L 78.512289 161.268406 
L 79.207589 161.474369 
L 79.902889 161.713047 
L 80.25054 161.714915 
L 80.94584 161.8913 
L 84.42234 162.772102 
L 85.812941 163.065564 
L 86.508241 163.330203 
L 87.551191 163.480123 
L 88.941791 163.664331 
L 96.242443 164.226844 
L 99.023643 164.370779 
L 103.195444 164.462422 
L 215.834067 164.502381 
L 215.834067 164.502381 
" clip-path="url(#pe626117d74)" style="fill: none; stroke-dasharray: 1.2,1.98; stroke-dashoffset: 0; stroke: #7f7f7f; stroke-width: 1.2"/>
   </g>
   <g id="patch_3">
    <path d="M 33.682813 172.025723 
L 33.682813 6.512192 
" style="fill: none; stroke: #000000; stroke-width: 0.8; stroke-linejoin: miter; stroke-linecap: square"/>
   </g>
   <g id="patch_4">
    <path d="M 224.507936 172.025723 
L 224.507936 6.512192 
" style="fill: none; stroke: #000000; stroke-width: 0.8; stroke-linejoin: miter; stroke-linecap: square"/>
   </g>
   <g id="patch_5">
    <path d="M 33.682812 172.025723 
L 224.507936 172.025723 
" style="fill: none; stroke: #000000; stroke-width: 0.8; stroke-linejoin: miter; stroke-linecap: square"/>
   </g>
   <g id="patch_6">
    <path d="M 33.682812 6.512192 
L 224.507936 6.512192 
" style="fill: none; stroke: #000000; stroke-width: 0.8; stroke-linejoin: miter; stroke-linecap: square"/>
   </g>
   <g id="text_17">
    <text style="font-weight: 700; font-size: 10px; font-family: 'Times New Roman', 'Times', 'DejaVu Serif', serif; text-anchor: start" x="37.499315" y="21.422243" transform="rotate(-0 37.499315 21.422243)">(a)</text>
   </g>
   <g id="legend_1">
    <g id="patch_7">
     <path d="M 167.254186 58.157192 
L 220.507936 58.157192 
L 220.507936 10.512192 
L 167.254186 10.512192 
z
" style="fill: #ffffff; opacity: 0.8; stroke: #cccccc; stroke-linejoin: miter"/>
    </g>
    <g id="line2d_47">
     <path d="M 170.454186 16.512192 
L 178.454186 16.512192 
L 186.454186 16.512192 
" style="fill: none; stroke: #d62728; stroke-width: 1.2; stroke-linecap: square"/>
    </g>
    <g id="text_18">
     <text style="font-size: 8px; font-family: 'Times New Roman', 'Times', 'DejaVu Serif', serif; text-anchor: start" x="192.854186" y="19.312192" transform="rotate(-0 192.854186 19.312192)">MMAS</text>
    </g>
    <g id="line2d_48">
     <path d="M 170.454186 27.823442 
L 178.454186 27.823442 
L 186.454186 27.823442 
" style="fill: none; stroke-dasharray: 4.44,1.92; stroke-dashoffset: 0; stroke: #1f77b4; stroke-width: 1.2"/>
    </g>
    <g id="text_19">
     <text style="font-size: 8px; font-family: 'Times New Roman', 'Times', 'DejaVu Serif', serif; text-anchor: start" x="192.854186" y="30.623442" transform="rotate(-0 192.854186 30.623442)">ACS</text>
    </g>
    <g id="line2d_49">
     <path d="M 170.454186 39.134692 
L 178.454186 39.134692 
L 186.454186 39.134692 
" style="fill: none; stroke-dasharray: 7.68,1.92,1.2,1.92; stroke-dashoffset: 0; stroke: #2ca02c; stroke-width: 1.2"/>
    </g>
    <g id="text_20">
     <text style="font-size: 8px; font-family: 'Times New Roman', 'Times', 'DejaVu Serif', serif; text-anchor: start" x="192.854186" y="41.934692" transform="rotate(-0 192.854186 41.934692)">GA</text>
    </g>
    <g id="line2d_50">
     <path d="M 170.454186 50.445942 
L 178.454186 50.445942 
L 186.454186 50.445942 
" style="fill: none; stroke-dasharray: 1.2,1.98; stroke-dashoffset: 0; stroke: #7f7f7f; stroke-width: 1.2"/>
    </g>
    <g id="text_21">
     <text style="font-size: 8px; font-family: 'Times New Roman', 'Times', 'DejaVu Serif', serif; text-anchor: start" x="192.854186" y="53.245942" transform="rotate(-0 192.854186 53.245942)">SA</text>
    </g>
   </g>
   <g id="line2d_51">
    <path d="M 145.261103 163.727249 
" clip-path="url(#pe626117d74)" style="fill: none; stroke: #d62728; stroke-width: 1.5; stroke-linecap: square"/>
    <defs>
     <path id="mc0441a8526" d="M 0 -4 
L -0.898056 -1.236068 
L -3.804226 -1.236068 
L -1.453085 0.472136 
L -2.351141 3.236068 
L -0 1.527864 
L 2.351141 3.236068 
L 1.453085 0.472136 
L 3.804226 -1.236068 
L 0.898056 -1.236068 
z
" style="stroke: #d62728; stroke-linejoin: bevel"/>
    </defs>
    <g clip-path="url(#pe626117d74)">
     <use xlink:href="#mc0441a8526" x="145.261103" y="163.727249" style="fill: #d62728; stroke: #d62728; stroke-linejoin: bevel"/>
    </g>
   </g>
   <g id="line2d_52">
    <path d="M 84.42234 162.550994 
" clip-path="url(#pe626117d74)" style="fill: none; stroke: #1f77b4; stroke-width: 1.5; stroke-linecap: square"/>
    <defs>
     <path id="m2f87cb1a47" d="M 0 -4 
L -0.898056 -1.236068 
L -3.804226 -1.236068 
L -1.453085 0.472136 
L -2.351141 3.236068 
L -0 1.527864 
L 2.351141 3.236068 
L 1.453085 0.472136 
L 3.804226 -1.236068 
L 0.898056 -1.236068 
z
" style="stroke: #1f77b4; stroke-linejoin: bevel"/>
    </defs>
    <g clip-path="url(#pe626117d74)">
     <use xlink:href="#m2f87cb1a47" x="84.42234" y="162.550994" style="fill: #1f77b4; stroke: #1f77b4; stroke-linejoin: bevel"/>
    </g>
   </g>
   <g id="line2d_53">
    <path d="M 129.9645 141.643632 
" clip-path="url(#pe626117d74)" style="fill: none; stroke: #2ca02c; stroke-width: 1.5; stroke-linecap: square"/>
    <defs>
     <path id="m2f915eeae8" d="M 0 -4 
L -0.898056 -1.236068 
L -3.804226 -1.236068 
L -1.453085 0.472136 
L -2.351141 3.236068 
L -0 1.527864 
L 2.351141 3.236068 
L 1.453085 0.472136 
L 3.804226 -1.236068 
L 0.898056 -1.236068 
z
" style="stroke: #2ca02c; stroke-linejoin: bevel"/>
    </defs>
    <g clip-path="url(#pe626117d74)">
     <use xlink:href="#m2f915eeae8" x="129.9645" y="141.643632" style="fill: #2ca02c; stroke: #2ca02c; stroke-linejoin: bevel"/>
    </g>
   </g>
   <g id="line2d_54">
    <path d="M 110.148446 164.493135 
" clip-path="url(#pe626117d74)" style="fill: none; stroke: #7f7f7f; stroke-width: 1.5; stroke-linecap: square"/>
    <defs>
     <path id="mc3616aa2c3" d="M 0 -4 
L -0.898056 -1.236068 
L -3.804226 -1.236068 
L -1.453085 0.472136 
L -2.351141 3.236068 
L -0 1.527864 
L 2.351141 3.236068 
L 1.453085 0.472136 
L 3.804226 -1.236068 
L 0.898056 -1.236068 
z
" style="stroke: #7f7f7f; stroke-linejoin: bevel"/>
    </defs>
    <g clip-path="url(#pe626117d74)">
     <use xlink:href="#mc3616aa2c3" x="110.148446" y="164.493135" style="fill: #7f7f7f; stroke: #7f7f7f; stroke-linejoin: bevel"/>
    </g>
   </g>
  </g>
  <g id="axes_2">
   <g id="patch_8">
    <path d="M 281.947936 172.025723 
L 472.77306 172.025723 
L 472.77306 6.512192 
L 281.947936 6.512192 
z
" style="fill: #ffffff"/>
   </g>
   <g id="matplotlib.axis_3">
    <g id="xtick_7">
     <g id="line2d_55">
      <path d="M 289.925109 172.025723 
L 289.925109 6.512192 
" clip-path="url(#pea8ff87622)" style="fill: none; stroke-dasharray: 1.48,0.64; stroke-dashoffset: 0; stroke: #b0b0b0; stroke-opacity: 0.2; stroke-width: 0.4"/>
     </g>
     <g id="line2d_56">
      <g>
       <use xlink:href="#m281e0a9a8d" x="289.925109" y="172.025723" style="stroke: #000000; stroke-width: 0.6"/>
      </g>
     </g>
     <g id="line2d_57">
      <g>
       <use xlink:href="#mc3b9b6f23f" x="289.925109" y="6.512192" style="stroke: #000000; stroke-width: 0.6"/>
      </g>
     </g>
     <g id="text_22">
      <text style="font-size: 9px; font-family: 'Times New Roman', 'Times', 'DejaVu Serif', serif; text-anchor: middle" x="289.925109" y="181.775098" transform="rotate(-0 289.925109 181.775098)">250</text>
     </g>
    </g>
    <g id="xtick_8">
     <g id="line2d_58">
      <path d="M 324.759926 172.025723 
L 324.759926 6.512192 
" clip-path="url(#pea8ff87622)" style="fill: none; stroke-dasharray: 1.48,0.64; stroke-dashoffset: 0; stroke: #b0b0b0; stroke-opacity: 0.2; stroke-width: 0.4"/>
     </g>
     <g id="line2d_59">
      <g>
       <use xlink:href="#m281e0a9a8d" x="324.759926" y="172.025723" style="stroke: #000000; stroke-width: 0.6"/>
      </g>
     </g>
     <g id="line2d_60">
      <g>
       <use xlink:href="#mc3b9b6f23f" x="324.759926" y="6.512192" style="stroke: #000000; stroke-width: 0.6"/>
      </g>
     </g>
     <g id="text_23">
      <text style="font-size: 9px; font-family: 'Times New Roman', 'Times', 'DejaVu Serif', serif; text-anchor: middle" x="324.759926" y="181.775098" transform="rotate(-0 324.759926 181.775098)">300</text>
     </g>
    </g>
    <g id="xtick_9">
     <g id="line2d_61">
      <path d="M 359.594742 172.025723 
L 359.594742 6.512192 
" clip-path="url(#pea8ff87622)" style="fill: none; stroke-dasharray: 1.48,0.64; stroke-dashoffset: 0; stroke: #b0b0b0; stroke-opacity: 0.2; stroke-width: 0.4"/>
     </g>
     <g id="line2d_62">
      <g>
       <use xlink:href="#m281e0a9a8d" x="359.594742" y="172.025723" style="stroke: #000000; stroke-width: 0.6"/>
      </g>
     </g>
     <g id="line2d_63">
      <g>
       <use xlink:href="#mc3b9b6f23f" x="359.594742" y="6.512192" style="stroke: #000000; stroke-width: 0.6"/>
      </g>
     </g>
     <g id="text_24">
      <text style="font-size: 9px; font-family: 'Times New Roman', 'Times', 'DejaVu Serif', serif; text-anchor: middle" x="359.594742" y="181.775098" transform="rotate(-0 359.594742 181.775098)">350</text>
     </g>
    </g>
    <g id="xtick_10">
     <g id="line2d_64">
      <path d="M 394.429558 172.025723 
L 394.429558 6.512192 
" clip-path="url(#pea8ff87622)" style="fill: none; stroke-dasharray: 1.48,0.64; stroke-dashoffset: 0; stroke: #b0b0b0; stroke-opacity: 0.2; stroke-width: 0.4"/>
     </g>
     <g id="line2d_65">
      <g>
       <use xlink:href="#m281e0a9a8d" x="394.429558" y="172.025723" style="stroke: #000000; stroke-width: 0.6"/>
      </g>
     </g>
     <g id="line2d_66">
      <g>
       <use xlink:href="#mc3b9b6f23f" x="394.429558" y="6.512192" style="stroke: #000000; stroke-width: 0.6"/>
      </g>
     </g>
     <g id="text_25">
      <text style="font-size: 9px; font-family: 'Times New Roman', 'Times', 'DejaVu Serif', serif; text-anchor: middle" x="394.429558" y="181.775098" transform="rotate(-0 394.429558 181.775098)">400</text>
     </g>
    </g>
    <g id="xtick_11">
     <g id="line2d_67">
      <path d="M 429.264375 172.025723 
L 429.264375 6.512192 
" clip-path="url(#pea8ff87622)" style="fill: none; stroke-dasharray: 1.48,0.64; stroke-dashoffset: 0; stroke: #b0b0b0; stroke-opacity: 0.2; stroke-width: 0.4"/>
     </g>
     <g id="line2d_68">
      <g>
       <use xlink:href="#m281e0a9a8d" x="429.264375" y="172.025723" style="stroke: #000000; stroke-width: 0.6"/>
      </g>
     </g>
     <g id="line2d_69">
      <g>
       <use xlink:href="#mc3b9b6f23f" x="429.264375" y="6.512192" style="stroke: #000000; stroke-width: 0.6"/>
      </g>
     </g>
     <g id="text_26">
      <text style="font-size: 9px; font-family: 'Times New Roman', 'Times', 'DejaVu Serif', serif; text-anchor: middle" x="429.264375" y="181.775098" transform="rotate(-0 429.264375 181.775098)">450</text>
     </g>
    </g>
    <g id="xtick_12">
     <g id="line2d_70">
      <path d="M 464.099191 172.025723 
L 464.099191 6.512192 
" clip-path="url(#pea8ff87622)" style="fill: none; stroke-dasharray: 1.48,0.64; stroke-dashoffset: 0; stroke: #b0b0b0; stroke-opacity: 0.2; stroke-width: 0.4"/>
     </g>
     <g id="line2d_71">
      <g>
       <use xlink:href="#m281e0a9a8d" x="464.099191" y="172.025723" style="stroke: #000000; stroke-width: 0.6"/>
      </g>
     </g>
     <g id="line2d_72">
      <g>
       <use xlink:href="#mc3b9b6f23f" x="464.099191" y="6.512192" style="stroke: #000000; stroke-width: 0.6"/>
      </g>
     </g>
     <g id="text_27">
      <text style="font-size: 9px; font-family: 'Times New Roman', 'Times', 'DejaVu Serif', serif; text-anchor: middle" x="464.099191" y="181.775098" transform="rotate(-0 464.099191 181.775098)">500</text>
     </g>
    </g>
    <g id="text_28">
     <text style="font-size: 10px; font-family: 'Times New Roman', 'Times', 'DejaVu Serif', serif; text-anchor: middle" x="377.360498" y="194.644004" transform="rotate(-0 377.360498 194.644004)">Iteration</text>
    </g>
   </g>
   <g id="matplotlib.axis_4">
    <g id="ytick_9">
     <g id="line2d_73">
      <path d="M 281.947936 155.723384 
L 472.77306 155.723384 
" clip-path="url(#pea8ff87622)" style="fill: none; stroke-dasharray: 1.48,0.64; stroke-dashoffset: 0; stroke: #b0b0b0; stroke-opacity: 0.2; stroke-width: 0.4"/>
     </g>
     <g id="line2d_74">
      <g>
       <use xlink:href="#m3aceeaf81e" x="281.947936" y="155.723384" style="stroke: #000000; stroke-width: 0.6"/>
      </g>
     </g>
     <g id="line2d_75">
      <g>
       <use xlink:href="#m537f858f1b" x="472.77306" y="155.723384" style="stroke: #000000; stroke-width: 0.6"/>
      </g>
     </g>
     <g id="text_29">
      <text style="font-size: 9px; font-family: 'Times New Roman', 'Times', 'DejaVu Serif', serif; text-anchor: end" x="278.447936" y="158.848071" transform="rotate(-0 278.447936 158.848071)">285.0</text>
     </g>
    </g>
    <g id="ytick_10">
     <g id="line2d_76">
      <path d="M 281.947936 137.098547 
L 472.77306 137.098547 
" clip-path="url(#pea8ff87622)" style="fill: none; stroke-dasharray: 1.48,0.64; stroke-dashoffset: 0; stroke: #b0b0b0; stroke-opacity: 0.2; stroke-width: 0.4"/>
     </g>
     <g id="line2d_77">
      <g>
       <use xlink:href="#m3aceeaf81e" x="281.947936" y="137.098547" style="stroke: #000000; stroke-width: 0.6"/>
      </g>
     </g>
     <g id="line2d_78">
      <g>
       <use xlink:href="#m537f858f1b" x="472.77306" y="137.098547" style="stroke: #000000; stroke-width: 0.6"/>
      </g>
     </g>
     <g id="text_30">
      <text style="font-size: 9px; font-family: 'Times New Roman', 'Times', 'DejaVu Serif', serif; text-anchor: end" x="278.447936" y="140.223234" transform="rotate(-0 278.447936 140.223234)">287.5</text>
     </g>
    </g>
    <g id="ytick_11">
     <g id="line2d_79">
      <path d="M 281.947936 118.47371 
L 472.77306 118.47371 
" clip-path="url(#pea8ff87622)" style="fill: none; stroke-dasharray: 1.48,0.64; stroke-dashoffset: 0; stroke: #b0b0b0; stroke-opacity: 0.2; stroke-width: 0.4"/>
     </g>
     <g id="line2d_80">
      <g>
       <use xlink:href="#m3aceeaf81e" x="281.947936" y="118.47371" style="stroke: #000000; stroke-width: 0.6"/>
      </g>
     </g>
     <g id="line2d_81">
      <g>
       <use xlink:href="#m537f858f1b" x="472.77306" y="118.47371" style="stroke: #000000; stroke-width: 0.6"/>
      </g>
     </g>
     <g id="text_31">
      <text style="font-size: 9px; font-family: 'Times New Roman', 'Times', 'DejaVu Serif', serif; text-anchor: end" x="278.447936" y="121.598397" transform="rotate(-0 278.447936 121.598397)">290.0</text>
     </g>
    </g>
    <g id="ytick_12">
     <g id="line2d_82">
      <path d="M 281.947936 99.848873 
L 472.77306 99.848873 
" clip-path="url(#pea8ff87622)" style="fill: none; stroke-dasharray: 1.48,0.64; stroke-dashoffset: 0; stroke: #b0b0b0; stroke-opacity: 0.2; stroke-width: 0.4"/>
     </g>
     <g id="line2d_83">
      <g>
       <use xlink:href="#m3aceeaf81e" x="281.947936" y="99.848873" style="stroke: #000000; stroke-width: 0.6"/>
      </g>
     </g>
     <g id="line2d_84">
      <g>
       <use xlink:href="#m537f858f1b" x="472.77306" y="99.848873" style="stroke: #000000; stroke-width: 0.6"/>
      </g>
     </g>
     <g id="text_32">
      <text style="font-size: 9px; font-family: 'Times New Roman', 'Times', 'DejaVu Serif', serif; text-anchor: end" x="278.447936" y="102.97356" transform="rotate(-0 278.447936 102.97356)">292.5</text>
     </g>
    </g>
    <g id="ytick_13">
     <g id="line2d_85">
      <path d="M 281.947936 81.224036 
L 472.77306 81.224036 
" clip-path="url(#pea8ff87622)" style="fill: none; stroke-dasharray: 1.48,0.64; stroke-dashoffset: 0; stroke: #b0b0b0; stroke-opacity: 0.2; stroke-width: 0.4"/>
     </g>
     <g id="line2d_86">
      <g>
       <use xlink:href="#m3aceeaf81e" x="281.947936" y="81.224036" style="stroke: #000000; stroke-width: 0.6"/>
      </g>
     </g>
     <g id="line2d_87">
      <g>
       <use xlink:href="#m537f858f1b" x="472.77306" y="81.224036" style="stroke: #000000; stroke-width: 0.6"/>
      </g>
     </g>
     <g id="text_33">
      <text style="font-size: 9px; font-family: 'Times New Roman', 'Times', 'DejaVu Serif', serif; text-anchor: end" x="278.447936" y="84.348723" transform="rotate(-0 278.447936 84.348723)">295.0</text>
     </g>
    </g>
    <g id="ytick_14">
     <g id="line2d_88">
      <path d="M 281.947936 62.599199 
L 472.77306 62.599199 
" clip-path="url(#pea8ff87622)" style="fill: none; stroke-dasharray: 1.48,0.64; stroke-dashoffset: 0; stroke: #b0b0b0; stroke-opacity: 0.2; stroke-width: 0.4"/>
     </g>
     <g id="line2d_89">
      <g>
       <use xlink:href="#m3aceeaf81e" x="281.947936" y="62.599199" style="stroke: #000000; stroke-width: 0.6"/>
      </g>
     </g>
     <g id="line2d_90">
      <g>
       <use xlink:href="#m537f858f1b" x="472.77306" y="62.599199" style="stroke: #000000; stroke-width: 0.6"/>
      </g>
     </g>
     <g id="text_34">
      <text style="font-size: 9px; font-family: 'Times New Roman', 'Times', 'DejaVu Serif', serif; text-anchor: end" x="278.447936" y="65.723886" transform="rotate(-0 278.447936 65.723886)">297.5</text>
     </g>
    </g>
    <g id="ytick_15">
     <g id="line2d_91">
      <path d="M 281.947936 43.974362 
L 472.77306 43.974362 
" clip-path="url(#pea8ff87622)" style="fill: none; stroke-dasharray: 1.48,0.64; stroke-dashoffset: 0; stroke: #b0b0b0; stroke-opacity: 0.2; stroke-width: 0.4"/>
     </g>
     <g id="line2d_92">
      <g>
       <use xlink:href="#m3aceeaf81e" x="281.947936" y="43.974362" style="stroke: #000000; stroke-width: 0.6"/>
      </g>
     </g>
     <g id="line2d_93">
      <g>
       <use xlink:href="#m537f858f1b" x="472.77306" y="43.974362" style="stroke: #000000; stroke-width: 0.6"/>
      </g>
     </g>
     <g id="text_35">
      <text style="font-size: 9px; font-family: 'Times New Roman', 'Times', 'DejaVu Serif', serif; text-anchor: end" x="278.447936" y="47.099049" transform="rotate(-0 278.447936 47.099049)">300.0</text>
     </g>
    </g>
    <g id="ytick_16">
     <g id="line2d_94">
      <path d="M 281.947936 25.349525 
L 472.77306 25.349525 
" clip-path="url(#pea8ff87622)" style="fill: none; stroke-dasharray: 1.48,0.64; stroke-dashoffset: 0; stroke: #b0b0b0; stroke-opacity: 0.2; stroke-width: 0.4"/>
     </g>
     <g id="line2d_95">
      <g>
       <use xlink:href="#m3aceeaf81e" x="281.947936" y="25.349525" style="stroke: #000000; stroke-width: 0.6"/>
      </g>
     </g>
     <g id="line2d_96">
      <g>
       <use xlink:href="#m537f858f1b" x="472.77306" y="25.349525" style="stroke: #000000; stroke-width: 0.6"/>
      </g>
     </g>
     <g id="text_36">
      <text style="font-size: 9px; font-family: 'Times New Roman', 'Times', 'DejaVu Serif', serif; text-anchor: end" x="278.447936" y="28.474212" transform="rotate(-0 278.447936 28.474212)">302.5</text>
     </g>
    </g>
    <g id="ytick_17">
     <g id="line2d_97">
      <path d="M 281.947936 6.724688 
L 472.77306 6.724688 
" clip-path="url(#pea8ff87622)" style="fill: none; stroke-dasharray: 1.48,0.64; stroke-dashoffset: 0; stroke: #b0b0b0; stroke-opacity: 0.2; stroke-width: 0.4"/>
     </g>
     <g id="line2d_98">
      <g>
       <use xlink:href="#m3aceeaf81e" x="281.947936" y="6.724688" style="stroke: #000000; stroke-width: 0.6"/>
      </g>
     </g>
     <g id="line2d_99">
      <g>
       <use xlink:href="#m537f858f1b" x="472.77306" y="6.724688" style="stroke: #000000; stroke-width: 0.6"/>
      </g>
     </g>
     <g id="text_37">
      <text style="font-size: 9px; font-family: 'Times New Roman', 'Times', 'DejaVu Serif', serif; text-anchor: end" x="278.447936" y="9.849375" transform="rotate(-0 278.447936 9.849375)">305.0</text>
     </g>
    </g>
    <g id="text_38">
     <text style="font-size: 10px; font-family: 'Times New Roman', 'Times', 'DejaVu Serif', serif; text-anchor: middle" x="252.058874" y="89.268957" transform="rotate(-90 252.058874 89.268957)">Best Distance (km)</text>
    </g>
   </g>
   <g id="line2d_100">
    <path d="M 290.621806 158.175558 
L 293.408591 158.175558 
L 294.105287 158.425689 
L 296.892073 158.425689 
L 297.588769 158.585881 
L 298.982162 158.585881 
L 299.678858 158.856252 
L 308.039214 158.859088 
L 309.432607 159.275743 
L 321.97314 159.281415 
L 322.669837 159.400106 
L 328.243407 159.400106 
L 328.940104 159.68728 
L 340.783941 159.755225 
L 341.480638 159.935657 
L 349.144297 159.935657 
L 349.840994 160.147551 
L 363.77492 160.147551 
L 364.471616 160.586251 
L 464.099191 160.586251 
L 464.099191 160.586251 
" clip-path="url(#pea8ff87622)" style="fill: none; stroke: #d62728; stroke-width: 1.2; stroke-linecap: square"/>
   </g>
   <g id="line2d_101">
    <path d="M 290.621806 152.055374 
L 464.099191 152.055374 
L 464.099191 152.055374 
" clip-path="url(#pea8ff87622)" style="fill: none; stroke-dasharray: 4.44,1.92; stroke-dashoffset: 0; stroke: #1f77b4; stroke-width: 1.2"/>
   </g>
   <g id="line2d_102">
    <path d="M 290.621806 14.035534 
L 292.015198 14.035534 
L 292.711895 14.389627 
L 298.982162 14.39064 
L 299.678858 14.590543 
L 300.375554 14.590543 
L 301.072251 14.892823 
L 302.465643 14.928588 
L 303.16234 15.767073 
L 303.859036 15.767073 
L 305.252429 16.103599 
L 305.949125 16.314426 
L 307.342518 16.314426 
L 308.039214 16.972085 
L 310.825999 17.146374 
L 311.522696 18.420665 
L 315.702874 18.420665 
L 316.39957 19.778364 
L 331.030193 19.878975 
L 331.726889 20.642534 
L 333.120282 20.642534 
L 333.816978 21.711596 
L 337.997156 21.797536 
L 338.693852 23.427295 
L 345.660816 23.427856 
L 346.357512 24.438466 
L 347.054208 24.569143 
L 356.807957 24.569143 
L 357.504653 24.683821 
L 361.684831 24.699371 
L 362.381527 25.469223 
L 364.471616 25.469223 
L 365.168313 26.052558 
L 377.708847 26.052558 
L 378.405543 26.226219 
L 379.102239 26.735449 
L 399.306433 26.821388 
L 400.003129 27.125118 
L 429.264375 27.125118 
L 429.961071 27.386009 
L 438.321427 27.479801 
L 439.018123 27.936096 
L 461.312406 27.936096 
L 462.009102 28.08346 
L 464.099191 28.08346 
L 464.099191 28.08346 
" clip-path="url(#pea8ff87622)" style="fill: none; stroke-dasharray: 7.68,1.92,1.2,1.92; stroke-dashoffset: 0; stroke: #2ca02c; stroke-width: 1.2"/>
   </g>
   <g id="line2d_103">
    <path d="M 290.621806 164.502381 
L 464.099191 164.502381 
L 464.099191 164.502381 
" clip-path="url(#pea8ff87622)" style="fill: none; stroke-dasharray: 1.2,1.98; stroke-dashoffset: 0; stroke: #7f7f7f; stroke-width: 1.2"/>
   </g>
   <g id="patch_9">
    <path d="M 281.947936 172.025723 
L 281.947936 6.512192 
" style="fill: none; stroke: #000000; stroke-width: 0.8; stroke-linejoin: miter; stroke-linecap: square"/>
   </g>
   <g id="patch_10">
    <path d="M 472.77306 172.025723 
L 472.77306 6.512192 
" style="fill: none; stroke: #000000; stroke-width: 0.8; stroke-linejoin: miter; stroke-linecap: square"/>
   </g>
   <g id="patch_11">
    <path d="M 281.947936 172.025723 
L 472.77306 172.025723 
" style="fill: none; stroke: #000000; stroke-width: 0.8; stroke-linejoin: miter; stroke-linecap: square"/>
   </g>
   <g id="patch_12">
    <path d="M 281.947936 6.512192 
L 472.77306 6.512192 
" style="fill: none; stroke: #000000; stroke-width: 0.8; stroke-linejoin: miter; stroke-linecap: square"/>
   </g>
   <g id="text_39">
    <text style="font-size: 7px; font-family: 'Times New Roman', 'Times', 'DejaVu Serif', serif; text-anchor: start; fill: #d62728" x="469.099191" y="162.267892" transform="rotate(-0 469.099191 162.267892)">284.3</text>
   </g>
   <g id="text_40">
    <text style="font-size: 7px; font-family: 'Times New Roman', 'Times', 'DejaVu Serif', serif; text-anchor: start; fill: #1f77b4" x="469.099191" y="153.737015" transform="rotate(-0 469.099191 153.737015)">285.5</text>
   </g>
   <g id="text_41">
    <text style="font-size: 7px; font-family: 'Times New Roman', 'Times', 'DejaVu Serif', serif; text-anchor: start; fill: #2ca02c" x="469.099191" y="29.765101" transform="rotate(-0 469.099191 29.765101)">302.1</text>
   </g>
   <g id="text_42">
    <text style="font-size: 7px; font-family: 'Times New Roman', 'Times', 'DejaVu Serif', serif; text-anchor: start; fill: #7f7f7f" x="469.099191" y="166.184021" transform="rotate(-0 469.099191 166.184021)">283.8</text>
   </g>
   <g id="text_43">
    <text style="font-weight: 700; font-size: 10px; font-family: 'Times New Roman', 'Times', 'DejaVu Serif', serif; text-anchor: start" x="285.764439" y="21.422243" transform="rotate(-0 285.764439 21.422243)">(b)</text>
   </g>
   <g id="legend_2">
    <g id="patch_13">
     <path d="M 415.51931 58.157192 
L 468.77306 58.157192 
L 468.77306 10.512192 
L 415.51931 10.512192 
z
" style="fill: #ffffff; opacity: 0.8; stroke: #cccccc; stroke-linejoin: miter"/>
    </g>
    <g id="line2d_104">
     <path d="M 418.71931 16.512192 
L 426.71931 16.512192 
L 434.71931 16.512192 
" style="fill: none; stroke: #d62728; stroke-width: 1.2; stroke-linecap: square"/>
    </g>
    <g id="text_44">
     <text style="font-size: 8px; font-family: 'Times New Roman', 'Times', 'DejaVu Serif', serif; text-anchor: start" x="441.11931" y="19.312192" transform="rotate(-0 441.11931 19.312192)">MMAS</text>
    </g>
    <g id="line2d_105">
     <path d="M 418.71931 27.823442 
L 426.71931 27.823442 
L 434.71931 27.823442 
" style="fill: none; stroke-dasharray: 4.44,1.92; stroke-dashoffset: 0; stroke: #1f77b4; stroke-width: 1.2"/>
    </g>
    <g id="text_45">
     <text style="font-size: 8px; font-family: 'Times New Roman', 'Times', 'DejaVu Serif', serif; text-anchor: start" x="441.11931" y="30.623442" transform="rotate(-0 441.11931 30.623442)">ACS</text>
    </g>
    <g id="line2d_106">
     <path d="M 418.71931 39.134692 
L 426.71931 39.134692 
L 434.71931 39.134692 
" style="fill: none; stroke-dasharray: 7.68,1.92,1.2,1.92; stroke-dashoffset: 0; stroke: #2ca02c; stroke-width: 1.2"/>
    </g>
    <g id="text_46">
     <text style="font-size: 8px; font-family: 'Times New Roman', 'Times', 'DejaVu Serif', serif; text-anchor: start" x="441.11931" y="41.934692" transform="rotate(-0 441.11931 41.934692)">GA</text>
    </g>
    <g id="line2d_107">
     <path d="M 418.71931 50.445942 
L 426.71931 50.445942 
L 434.71931 50.445942 
" style="fill: none; stroke-dasharray: 1.2,1.98; stroke-dashoffset: 0; stroke: #7f7f7f; stroke-width: 1.2"/>
    </g>
    <g id="text_47">
     <text style="font-size: 8px; font-family: 'Times New Roman', 'Times', 'DejaVu Serif', serif; text-anchor: start" x="441.11931" y="53.245942" transform="rotate(-0 441.11931 53.245942)">SA</text>
    </g>
   </g>
  </g>
 </g>
 <defs>
  <clipPath id="pe626117d74">
   <rect x="33.682813" y="6.512192" width="190.825124" height="165.513531"/>
  </clipPath>
  <clipPath id="pea8ff87622">
   <rect x="281.947936" y="6.512192" width="190.825124" height="165.513531"/>
  </clipPath>
 </defs>
</svg>
