<?xml version="1.0" encoding="utf-8" standalone="no"?>
<!DOCTYPE svg PUBLIC "-//W3C//DTD SVG 1.1//EN"
  "http://www.w3.org/Graphics/SVG/1.1/DTD/svg11.dtd">
<svg xmlns:xlink="http://www.w3.org/1999/xlink" width="489.022813pt" height="215.036094pt" viewBox="0 0 489.022813 215.036094" xmlns="http://www.w3.org/2000/svg" version="1.1">
 <metadata>
  <rdf:RDF xmlns:dc="http://purl.org/dc/elements/1.1/" xmlns:cc="http://creativecommons.org/ns#" xmlns:rdf="http://www.w3.org/1999/02/22-rdf-syntax-ns#">
   <cc:Work>
    <dc:type rdf:resource="http://purl.org/dc/dcmitype/StillImage"/>
    <dc:date>2026-02-18T12:33:13.529682</dc:date>
    <dc:format>image/svg+xml</dc:format>
    <dc:creator>
     <cc:Agent>
      <dc:title>Matplotlib v3.10.7, https://matplotlib.org/</dc:title>
     </cc:Agent>
    </dc:creator>
   </cc:Work>
  </rdf:RDF>
 </metadata>
 <defs>
  <style type="text/css">*{stroke-linejoin: round; stroke-linecap: butt}</style>
 </defs>
 <g id="figure_1">
  <g id="patch_1">
   <path d="M 0 215.036094 
L 489.022813 215.036094 
L 489.022813 0 
L 0 0 
z
" style="fill: #ffffff"/>
  </g>
  <g id="axes_1">
   <g id="patch_2">
    <path d="M 33.682813 186.66 
L 234.282813 186.66 
L 234.282813 3.6 
L 33.682813 3.6 
z
" style="fill: #ffffff"/>
   </g>
   <g id="matplotlib.axis_1">
    <g id="xtick_1">
     <g id="line2d_1">
      <defs>
       <path id="m13bd93cbcc" d="M 0 0 
L 0 -3.5 
" style="stroke: #000000; stroke-width: 0.6"/>
      </defs>
      <g>
       <use xlink:href="#m13bd93cbcc" x="57.997964" y="186.66" style="stroke: #000000; stroke-width: 0.6"/>
      </g>
     </g>
     <g id="line2d_2">
      <defs>
       <path id="mc3a8cff143" d="M 0 0 
L 0 3.5 
" style="stroke: #000000; stroke-width: 0.6"/>
      </defs>
      <g>
       <use xlink:href="#mc3a8cff143" x="57.997964" y="3.6" style="stroke: #000000; stroke-width: 0.6"/>
      </g>
     </g>
     <g id="text_1">
      <text style="font-size: 9px; font-family: 'Times New Roman', 'Times', 'DejaVu Serif', serif; text-anchor: middle" x="57.997964" y="196.409375" transform="rotate(-0 57.997964 196.409375)">MMAS</text>
     </g>
    </g>
    <g id="xtick_2">
     <g id="line2d_3">
      <g>
       <use xlink:href="#m13bd93cbcc" x="108.65453" y="186.66" style="stroke: #000000; stroke-width: 0.6"/>
      </g>
     </g>
     <g id="line2d_4">
      <g>
       <use xlink:href="#mc3a8cff143" x="108.65453" y="3.6" style="stroke: #000000; stroke-width: 0.6"/>
      </g>
     </g>
     <g id="text_2">
      <text style="font-size: 9px; font-family: 'Times New Roman', 'Times', 'DejaVu Serif', serif; text-anchor: middle" x="108.65453" y="196.409375" transform="rotate(-0 108.65453 196.409375)">ACS</text>
     </g>
    </g>
    <g id="xtick_3">
     <g id="line2d_5">
      <g>
       <use xlink:href="#m13bd93cbcc" x="159.311095" y="186.66" style="stroke: #000000; stroke-width: 0.6"/>
      </g>
     </g>
     <g id="line2d_6">
      <g>
       <use xlink:href="#mc3a8cff143" x="159.311095" y="3.6" style="stroke: #000000; stroke-width: 0.6"/>
      </g>
     </g>
     <g id="text_3">
      <text style="font-size: 9px; font-family: 'Times New Roman', 'Times', 'DejaVu Serif', serif; text-anchor: middle" x="159.311095" y="196.409375" transform="rotate(-0 159.311095 196.409375)">GA</text>
     </g>
    </g>
    <g id="xtick_4">
     <g id="line2d_7">
      <g>
       <use xlink:href="#m13bd93cbcc" x="209.967661" y="186.66" style="stroke: #000000; stroke-width: 0.6"/>
      </g>
     </g>
     <g id="line2d_8">
      <g>
       <use xlink:href="#mc3a8cff143" x="209.967661" y="3.6" style="stroke: #000000; stroke-width: 0.6"/>
      </g>
     </g>
     <g id="text_4">
      <text style="font-size: 9px; font-family: 'Times New Roman', 'Times', 'DejaVu Serif', serif; text-anchor: middle" x="209.967661" y="196.409375" transform="rotate(-0 209.967661 196.409375)">SA</text>
     </g>
    </g>
    <g id="text_5">
     <text style="font-size: 10px; font-family: 'Times New Roman', 'Times', 'DejaVu Serif', serif; text-anchor: middle" x="133.982812" y="209.278281" transform="rotate(-0 133.982812 209.278281)">Algorithm</text>
    </g>
   </g>
   <g id="matplotlib.axis_2">
    <g id="ytick_1">
     <g id="line2d_9">
      <path d="M 33.682813 173.24172 
L 234.282813 173.24172 
" clip-path="url(#p2bb7cd983b)" style="fill: none; stroke-dasharray: 1.48,0.64; stroke-dashoffset: 0; stroke: #b0b0b0; stroke-opacity: 0.2; stroke-width: 0.4"/>
     </g>
     <g id="line2d_10">
      <defs>
       <path id="mbe21d1ad92" d="M 0 0 
L 3.5 0 
" style="stroke: #000000; stroke-width: 0.6"/>
      </defs>
      <g>
       <use xlink:href="#mbe21d1ad92" x="33.682813" y="173.24172" style="stroke: #000000; stroke-width: 0.6"/>
      </g>
     </g>
     <g id="line2d_11">
      <defs>
       <path id="m648b905624" d="M 0 0 
L -3.5 0 
" style="stroke: #000000; stroke-width: 0.6"/>
      </defs>
      <g>
       <use xlink:href="#m648b905624" x="234.282813" y="173.24172" style="stroke: #000000; stroke-width: 0.6"/>
      </g>
     </g>
     <g id="text_6">
      <text style="font-size: 9px; font-family: 'Times New Roman', 'Times', 'DejaVu Serif', serif; text-anchor: end" x="30.182813" y="176.366407" transform="rotate(-0 30.182813 176.366407)">285</text>
     </g>
    </g>
    <g id="ytick_2">
     <g id="line2d_12">
      <path d="M 33.682813 152.663303 
L 234.282813 152.663303 
" clip-path="url(#p2bb7cd983b)" style="fill: none; stroke-dasharray: 1.48,0.64; stroke-dashoffset: 0; stroke: #b0b0b0; stroke-opacity: 0.2; stroke-width: 0.4"/>
     </g>
     <g id="line2d_13">
      <g>
       <use xlink:href="#mbe21d1ad92" x="33.682813" y="152.663303" style="stroke: #000000; stroke-width: 0.6"/>
      </g>
     </g>
     <g id="line2d_14">
      <g>
       <use xlink:href="#m648b905624" x="234.282813" y="152.663303" style="stroke: #000000; stroke-width: 0.6"/>
      </g>
     </g>
     <g id="text_7">
      <text style="font-size: 9px; font-family: 'Times New Roman', 'Times', 'DejaVu Serif', serif; text-anchor: end" x="30.182813" y="155.78799" transform="rotate(-0 30.182813 155.78799)">290</text>
     </g>
    </g>
    <g id="ytick_3">
     <g id="line2d_15">
      <path d="M 33.682813 132.084886 
L 234.282813 132.084886 
" clip-path="url(#p2bb7cd983b)" style="fill: none; stroke-dasharray: 1.48,0.64; stroke-dashoffset: 0; stroke: #b0b0b0; stroke-opacity: 0.2; stroke-width: 0.4"/>
     </g>
     <g id="line2d_16">
      <g>
       <use xlink:href="#mbe21d1ad92" x="33.682813" y="132.084886" style="stroke: #000000; stroke-width: 0.6"/>
      </g>
     </g>
     <g id="line2d_17">
      <g>
       <use xlink:href="#m648b905624" x="234.282813" y="132.084886" style="stroke: #000000; stroke-width: 0.6"/>
      </g>
     </g>
     <g id="text_8">
      <text style="font-size: 9px; font-family: 'Times New Roman', 'Times', 'DejaVu Serif', serif; text-anchor: end" x="30.182813" y="135.209573" transform="rotate(-0 30.182813 135.209573)">295</text>
     </g>
    </g>
    <g id="ytick_4">
     <g id="line2d_18">
      <path d="M 33.682813 111.506468 
L 234.282813 111.506468 
" clip-path="url(#p2bb7cd983b)" style="fill: none; stroke-dasharray: 1.48,0.64; stroke-dashoffset: 0; stroke: #b0b0b0; stroke-opacity: 0.2; stroke-width: 0.4"/>
     </g>
     <g id="line2d_19">
      <g>
       <use xlink:href="#mbe21d1ad92" x="33.682813" y="111.506468" style="stroke: #000000; stroke-width: 0.6"/>
      </g>
     </g>
     <g id="line2d_20">
      <g>
       <use xlink:href="#m648b905624" x="234.282813" y="111.506468" style="stroke: #000000; stroke-width: 0.6"/>
      </g>
     </g>
     <g id="text_9">
      <text style="font-size: 9px; font-family: 'Times New Roman', 'Times', 'DejaVu Serif', serif; text-anchor: end" x="30.182813" y="114.631156" transform="rotate(-0 30.182813 114.631156)">300</text>
     </g>
    </g>
    <g id="ytick_5">
     <g id="line2d_21">
      <path d="M 33.682813 90.928051 
L 234.282813 90.928051 
" clip-path="url(#p2bb7cd983b)" style="fill: none; stroke-dasharray: 1.48,0.64; stroke-dashoffset: 0; stroke: #b0b0b0; stroke-opacity: 0.2; stroke-width: 0.4"/>
     </g>
     <g id="line2d_22">
      <g>
       <use xlink:href="#mbe21d1ad92" x="33.682813" y="90.928051" style="stroke: #000000; stroke-width: 0.6"/>
      </g>
     </g>
     <g id="line2d_23">
      <g>
       <use xlink:href="#m648b905624" x="234.282813" y="90.928051" style="stroke: #000000; stroke-width: 0.6"/>
      </g>
     </g>
     <g id="text_10">
      <text style="font-size: 9px; font-family: 'Times New Roman', 'Times', 'DejaVu Serif', serif; text-anchor: end" x="30.182813" y="94.052739" transform="rotate(-0 30.182813 94.052739)">305</text>
     </g>
    </g>
    <g id="ytick_6">
     <g id="line2d_24">
      <path d="M 33.682813 70.349634 
L 234.282813 70.349634 
" clip-path="url(#p2bb7cd983b)" style="fill: none; stroke-dasharray: 1.48,0.64; stroke-dashoffset: 0; stroke: #b0b0b0; stroke-opacity: 0.2; stroke-width: 0.4"/>
     </g>
     <g id="line2d_25">
      <g>
       <use xlink:href="#mbe21d1ad92" x="33.682813" y="70.349634" style="stroke: #000000; stroke-width: 0.6"/>
      </g>
     </g>
     <g id="line2d_26">
      <g>
       <use xlink:href="#m648b905624" x="234.282813" y="70.349634" style="stroke: #000000; stroke-width: 0.6"/>
      </g>
     </g>
     <g id="text_11">
      <text style="font-size: 9px; font-family: 'Times New Roman', 'Times', 'DejaVu Serif', serif; text-anchor: end" x="30.182813" y="73.474322" transform="rotate(-0 30.182813 73.474322)">310</text>
     </g>
    </g>
    <g id="ytick_7">
     <g id="line2d_27">
      <path d="M 33.682813 49.771217 
L 234.282813 49.771217 
" clip-path="url(#p2bb7cd983b)" style="fill: none; stroke-dasharray: 1.48,0.64; stroke-dashoffset: 0; stroke: #b0b0b0; stroke-opacity: 0.2; stroke-width: 0.4"/>
     </g>
     <g id="line2d_28">
      <g>
       <use xlink:href="#mbe21d1ad92" x="33.682813" y="49.771217" style="stroke: #000000; stroke-width: 0.6"/>
      </g>
     </g>
     <g id="line2d_29">
      <g>
       <use xlink:href="#m648b905624" x="234.282813" y="49.771217" style="stroke: #000000; stroke-width: 0.6"/>
      </g>
     </g>
     <g id="text_12">
      <text style="font-size: 9px; font-family: 'Times New Roman', 'Times', 'DejaVu Serif', serif; text-anchor: end" x="30.182813" y="52.895905" transform="rotate(-0 30.182813 52.895905)">315</text>
     </g>
    </g>
    <g id="ytick_8">
     <g id="line2d_30">
      <path d="M 33.682813 29.1928 
L 234.282813 29.1928 
" clip-path="url(#p2bb7cd983b)" style="fill: none; stroke-dasharray: 1.48,0.64; stroke-dashoffset: 0; stroke: #b0b0b0; stroke-opacity: 0.2; stroke-width: 0.4"/>
     </g>
     <g id="line2d_31">
      <g>
       <use xlink:href="#mbe21d1ad92" x="33.682813" y="29.1928" style="stroke: #000000; stroke-width: 0.6"/>
      </g>
     </g>
     <g id="line2d_32">
      <g>
       <use xlink:href="#m648b905624" x="234.282813" y="29.1928" style="stroke: #000000; stroke-width: 0.6"/>
      </g>
     </g>
     <g id="text_13">
      <text style="font-size: 9px; font-family: 'Times New Roman', 'Times', 'DejaVu Serif', serif; text-anchor: end" x="30.182813" y="32.317488" transform="rotate(-0 30.182813 32.317488)">320</text>
     </g>
    </g>
    <g id="ytick_9">
     <g id="line2d_33">
      <path d="M 33.682813 8.614383 
L 234.282813 8.614383 
" clip-path="url(#p2bb7cd983b)" style="fill: none; stroke-dasharray: 1.48,0.64; stroke-dashoffset: 0; stroke: #b0b0b0; stroke-opacity: 0.2; stroke-width: 0.4"/>
     </g>
     <g id="line2d_34">
      <g>
       <use xlink:href="#mbe21d1ad92" x="33.682813" y="8.614383" style="stroke: #000000; stroke-width: 0.6"/>
      </g>
     </g>
     <g id="line2d_35">
      <g>
       <use xlink:href="#m648b905624" x="234.282813" y="8.614383" style="stroke: #000000; stroke-width: 0.6"/>
      </g>
     </g>
     <g id="text_14">
      <text style="font-size: 9px; font-family: 'Times New Roman', 'Times', 'DejaVu Serif', serif; text-anchor: end" x="30.182813" y="11.739071" transform="rotate(-0 30.182813 11.739071)">325</text>
     </g>
    </g>
    <g id="text_15">
     <text style="font-size: 10px; font-family: 'Times New Roman', 'Times', 'DejaVu Serif', serif; text-anchor: middle" x="10.54375" y="95.13" transform="rotate(-90 10.54375 95.13)">Total Route Distance (km)</text>
    </g>
   </g>
   <g id="patch_3">
    <path d="M 42.800994 177.619587 
L 73.194934 177.619587 
L 73.194934 175.272317 
L 42.800994 175.272317 
L 42.800994 177.619587 
z
" clip-path="url(#p2bb7cd983b)" style="fill: #c03d3e; stroke: #3d3d3d; stroke-width: 0.8; stroke-linejoin: miter"/>
   </g>
   <g id="line2d_36">
    <path d="M 57.997964 177.619587 
L 57.997964 178.339091 
" clip-path="url(#p2bb7cd983b)" style="fill: none; stroke: #3d3d3d; stroke-width: 0.8"/>
   </g>
   <g id="line2d_37">
    <path d="M 57.997964 175.272317 
L 57.997964 172.098045 
" clip-path="url(#p2bb7cd983b)" style="fill: none; stroke: #3d3d3d; stroke-width: 0.8"/>
   </g>
   <g id="line2d_38">
    <path d="M 50.399479 178.339091 
L 65.596449 178.339091 
" clip-path="url(#p2bb7cd983b)" style="fill: none; stroke: #3d3d3d; stroke-width: 0.8; stroke-linecap: square"/>
   </g>
   <g id="line2d_39">
    <path d="M 50.399479 172.098045 
L 65.596449 172.098045 
" clip-path="url(#p2bb7cd983b)" style="fill: none; stroke: #3d3d3d; stroke-width: 0.8; stroke-linecap: square"/>
   </g>
   <g id="line2d_40">
    <defs>
     <path id="m9d416e8ccf" d="M 0 1.5 
C 0.397805 1.5 0.77937 1.341951 1.06066 1.06066 
C 1.341951 0.77937 1.5 0.397805 1.5 0 
C 1.5 -0.397805 1.341951 -0.77937 1.06066 -1.06066 
C 0.77937 -1.341951 0.397805 -1.5 0 -1.5 
C -0.397805 -1.5 -0.77937 -1.341951 -1.06066 -1.06066 
C -1.341951 -0.77937 -1.5 -0.397805 -1.5 0 
C -1.5 0.397805 -1.341951 0.77937 -1.06066 1.06066 
C -0.77937 1.341951 -0.397805 1.5 0 1.5 
z
" style="stroke: #3d3d3d"/>
    </defs>
    <g clip-path="url(#p2bb7cd983b)">
     <use xlink:href="#m9d416e8ccf" x="57.997964" y="166.213158" style="fill-opacity: 0; stroke: #3d3d3d"/>
     <use xlink:href="#m9d416e8ccf" x="57.997964" y="167.977529" style="fill-opacity: 0; stroke: #3d3d3d"/>
     <use xlink:href="#m9d416e8ccf" x="57.997964" y="166.261898" style="fill-opacity: 0; stroke: #3d3d3d"/>
    </g>
   </g>
   <g id="patch_4">
    <path d="M 93.45756 177.619587 
L 123.851499 177.619587 
L 123.851499 162.008287 
L 93.45756 162.008287 
L 93.45756 177.619587 
z
" clip-path="url(#p2bb7cd983b)" style="fill: #3274a1; stroke: #3d3d3d; stroke-width: 0.8; stroke-linejoin: miter"/>
   </g>
   <g id="line2d_41">
    <path d="M 108.65453 177.619587 
L 108.65453 177.619587 
" clip-path="url(#p2bb7cd983b)" style="fill: none; stroke: #3d3d3d; stroke-width: 0.8"/>
   </g>
   <g id="line2d_42">
    <path d="M 108.65453 162.008287 
L 108.65453 158.939637 
" clip-path="url(#p2bb7cd983b)" style="fill: none; stroke: #3d3d3d; stroke-width: 0.8"/>
   </g>
   <g id="line2d_43">
    <path d="M 101.056045 177.619587 
L 116.253015 177.619587 
" clip-path="url(#p2bb7cd983b)" style="fill: none; stroke: #3d3d3d; stroke-width: 0.8; stroke-linecap: square"/>
   </g>
   <g id="line2d_44">
    <path d="M 101.056045 158.939637 
L 116.253015 158.939637 
" clip-path="url(#p2bb7cd983b)" style="fill: none; stroke: #3d3d3d; stroke-width: 0.8; stroke-linecap: square"/>
   </g>
   <g id="line2d_45"/>
   <g id="patch_5">
    <path d="M 144.114126 126.312525 
L 174.508065 126.312525 
L 174.508065 83.751915 
L 144.114126 83.751915 
L 144.114126 126.312525 
z
" clip-path="url(#p2bb7cd983b)" style="fill: #3a923a; stroke: #3d3d3d; stroke-width: 0.8; stroke-linejoin: miter"/>
   </g>
   <g id="line2d_46">
    <path d="M 159.311095 126.312525 
L 159.311095 147.262329 
" clip-path="url(#p2bb7cd983b)" style="fill: none; stroke: #3d3d3d; stroke-width: 0.8"/>
   </g>
   <g id="line2d_47">
    <path d="M 159.311095 83.751915 
L 159.311095 37.306733 
" clip-path="url(#p2bb7cd983b)" style="fill: none; stroke: #3d3d3d; stroke-width: 0.8"/>
   </g>
   <g id="line2d_48">
    <path d="M 151.71261 147.262329 
L 166.90958 147.262329 
" clip-path="url(#p2bb7cd983b)" style="fill: none; stroke: #3d3d3d; stroke-width: 0.8; stroke-linecap: square"/>
   </g>
   <g id="line2d_49">
    <path d="M 151.71261 37.306733 
L 166.90958 37.306733 
" clip-path="url(#p2bb7cd983b)" style="fill: none; stroke: #3d3d3d; stroke-width: 0.8; stroke-linecap: square"/>
   </g>
   <g id="line2d_50"/>
   <g id="patch_6">
    <path d="M 194.770691 178.339091 
L 225.164631 178.339091 
L 225.164631 177.619587 
L 194.770691 177.619587 
L 194.770691 178.339091 
z
" clip-path="url(#p2bb7cd983b)" style="fill: #7f7f7f; stroke: #3d3d3d; stroke-width: 0.8; stroke-linejoin: miter"/>
   </g>
   <g id="line2d_51">
    <path d="M 209.967661 178.339091 
L 209.967661 178.339091 
" clip-path="url(#p2bb7cd983b)" style="fill: none; stroke: #3d3d3d; stroke-width: 0.8"/>
   </g>
   <g id="line2d_52">
    <path d="M 209.967661 177.619587 
L 209.967661 177.494329 
" clip-path="url(#p2bb7cd983b)" style="fill: none; stroke: #3d3d3d; stroke-width: 0.8"/>
   </g>
   <g id="line2d_53">
    <path d="M 202.369176 178.339091 
L 217.566146 178.339091 
" clip-path="url(#p2bb7cd983b)" style="fill: none; stroke: #3d3d3d; stroke-width: 0.8; stroke-linecap: square"/>
   </g>
   <g id="line2d_54">
    <path d="M 202.369176 177.494329 
L 217.566146 177.494329 
" clip-path="url(#p2bb7cd983b)" style="fill: none; stroke: #3d3d3d; stroke-width: 0.8; stroke-linecap: square"/>
   </g>
   <g id="line2d_55"/>
   <g id="line2d_56">
    <path d="M 57.997964 31.383374 
L 57.997964 28.844792 
L 159.311095 28.844792 
L 159.311095 31.383374 
" clip-path="url(#p2bb7cd983b)" style="fill: none; stroke: #000000; stroke-width: 0.7; stroke-linecap: square"/>
   </g>
   <g id="line2d_57">
    <path d="M 108.65453 22.921433 
L 108.65453 20.382851 
L 159.311095 20.382851 
L 159.311095 22.921433 
" clip-path="url(#p2bb7cd983b)" style="fill: none; stroke: #000000; stroke-width: 0.7; stroke-linecap: square"/>
   </g>
   <g id="line2d_58">
    <path d="M 108.65453 14.459492 
L 108.65453 11.920909 
L 209.967661 11.920909 
L 209.967661 14.459492 
" clip-path="url(#p2bb7cd983b)" style="fill: none; stroke: #000000; stroke-width: 0.7; stroke-linecap: square"/>
   </g>
   <g id="line2d_59">
    <path d="M 42.800994 177.619587 
L 73.194934 177.619587 
" clip-path="url(#p2bb7cd983b)" style="fill: none; stroke: #3d3d3d; stroke-width: 0.8"/>
   </g>
   <g id="line2d_60">
    <path d="M 93.45756 175.752594 
L 123.851499 175.752594 
" clip-path="url(#p2bb7cd983b)" style="fill: none; stroke: #3d3d3d; stroke-width: 0.8"/>
   </g>
   <g id="line2d_61">
    <path d="M 144.114126 100.510658 
L 174.508065 100.510658 
" clip-path="url(#p2bb7cd983b)" style="fill: none; stroke: #3d3d3d; stroke-width: 0.8"/>
   </g>
   <g id="line2d_62">
    <path d="M 194.770691 178.339091 
L 225.164631 178.339091 
" clip-path="url(#p2bb7cd983b)" style="fill: none; stroke: #3d3d3d; stroke-width: 0.8"/>
   </g>
   <g id="patch_7">
    <path d="M 33.682813 186.66 
L 33.682813 3.6 
" style="fill: none; stroke: #000000; stroke-width: 0.8; stroke-linejoin: miter; stroke-linecap: square"/>
   </g>
   <g id="patch_8">
    <path d="M 234.282813 186.66 
L 234.282813 3.6 
" style="fill: none; stroke: #000000; stroke-width: 0.8; stroke-linejoin: miter; stroke-linecap: square"/>
   </g>
   <g id="patch_9">
    <path d="M 33.682813 186.66 
L 234.282813 186.66 
" style="fill: none; stroke: #000000; stroke-width: 0.8; stroke-linejoin: miter; stroke-linecap: square"/>
   </g>
   <g id="patch_10">
    <path d="M 33.682813 3.6 
L 234.282813 3.6 
" style="fill: none; stroke: #000000; stroke-width: 0.8; stroke-linejoin: miter; stroke-linecap: square"/>
   </g>
   <g id="text_16">
    <text style="font-weight: 700; font-size: 10px; font-family: 'Times New Roman', 'Times', 'DejaVu Serif', serif; text-anchor: start" x="37.694813" y="19.387375" transform="rotate(-0 37.694813 19.387375)">(a)</text>
   </g>
   <g id="text_17">
    <text style="font-size: 8px; font-family: 'Times New Roman', 'Times', 'DejaVu Serif', serif; text-anchor: middle" x="108.65453" y="27.998598" transform="rotate(-0 108.65453 27.998598)">***</text>
   </g>
   <g id="text_18">
    <text style="font-size: 8px; font-family: 'Times New Roman', 'Times', 'DejaVu Serif', serif; text-anchor: middle" x="133.982813" y="19.536656" transform="rotate(-0 133.982813 19.536656)">***</text>
   </g>
   <g id="text_19">
    <text style="font-size: 8px; font-family: 'Times New Roman', 'Times', 'DejaVu Serif', serif; text-anchor: middle" x="159.311095" y="11.074715" transform="rotate(-0 159.311095 11.074715)">***</text>
   </g>
   <g id="line2d_63">
    <path d="M 57.997964 175.928189 
" clip-path="url(#p2bb7cd983b)" style="fill: none; stroke: #ffffff; stroke-width: 1.5; stroke-linecap: square"/>
    <defs>
     <path id="m450de9b27d" d="M 0 3.535534 
L 3.535534 0 
L 0 -3.535534 
L -3.535534 0 
z
" style="stroke: #000000; stroke-linejoin: miter"/>
    </defs>
    <g clip-path="url(#p2bb7cd983b)">
     <use xlink:href="#m450de9b27d" x="57.997964" y="175.928189" style="fill: #ffffff; stroke: #000000; stroke-linejoin: miter"/>
    </g>
   </g>
   <g id="line2d_64">
    <path d="M 108.65453 171.215344 
" clip-path="url(#p2bb7cd983b)" style="fill: none; stroke: #ffffff; stroke-width: 1.5; stroke-linecap: square"/>
    <g clip-path="url(#p2bb7cd983b)">
     <use xlink:href="#m450de9b27d" x="108.65453" y="171.215344" style="fill: #ffffff; stroke: #000000; stroke-linejoin: miter"/>
    </g>
   </g>
   <g id="line2d_65">
    <path d="M 159.311095 102.72761 
" clip-path="url(#p2bb7cd983b)" style="fill: none; stroke: #ffffff; stroke-width: 1.5; stroke-linecap: square"/>
    <g clip-path="url(#p2bb7cd983b)">
     <use xlink:href="#m450de9b27d" x="159.311095" y="102.72761" style="fill: #ffffff; stroke: #000000; stroke-linejoin: miter"/>
    </g>
   </g>
   <g id="line2d_66">
    <path d="M 209.967661 178.091637 
" clip-path="url(#p2bb7cd983b)" style="fill: none; stroke: #ffffff; stroke-width: 1.5; stroke-linecap: square"/>
    <g clip-path="url(#p2bb7cd983b)">
     <use xlink:href="#m450de9b27d" x="209.967661" y="178.091637" style="fill: #ffffff; stroke: #000000; stroke-linejoin: miter"/>
    </g>
   </g>
  </g>
  <g id="axes_2">
   <g id="patch_11">
    <path d="M 284.822812 186.66 
L 485.422813 186.66 
L 485.422813 3.6 
L 284.822812 3.6 
z
" style="fill: #ffffff"/>
   </g>
   <g id="FillBetweenPolyCollection_1">
    <defs>
     <path id="m6851e00ee7" d="M 314.411308 -39.811222 
L 311.863026 -39.811222 
L 311.52703 -39.994813 
L 311.125229 -40.178404 
L 310.651302 -40.361995 
L 310.10008 -40.545586 
L 309.468073 -40.729177 
L 308.753994 -40.912768 
L 307.959274 -41.09636 
L 307.088499 -41.279951 
L 306.149747 -41.463542 
L 305.15476 -41.647133 
L 304.118927 -41.830724 
L 303.061052 -42.014315 
L 302.002876 -42.197907 
L 300.968376 -42.381498 
L 299.982856 -42.565089 
L 299.071869 -42.74868 
L 298.260041 -42.932271 
L 297.569865 -43.115862 
L 297.020542 -43.299454 
L 296.626966 -43.483045 
L 296.398915 -43.666636 
L 296.340516 -43.850227 
L 296.450028 -44.033818 
L 296.71996 -44.217409 
L 297.137512 -44.401 
L 297.685316 -44.584592 
L 298.342403 -44.768183 
L 299.085357 -44.951774 
L 299.88953 -45.135365 
L 300.730278 -45.318956 
L 301.584098 -45.502547 
L 302.429634 -45.686139 
L 303.248464 -45.86973 
L 304.025657 -46.053321 
L 304.750084 -46.236912 
L 305.414472 -46.420503 
L 306.015244 -46.604094 
L 306.552165 -46.787686 
L 307.027844 -46.971277 
L 307.447143 -47.154868 
L 307.816534 -47.338459 
L 308.143458 -47.52205 
L 308.43572 -47.705641 
L 308.700952 -47.889232 
L 308.94617 -48.072824 
L 309.177429 -48.256415 
L 309.399594 -48.440006 
L 309.616217 -48.623597 
L 309.829511 -48.807188 
L 310.040406 -48.990779 
L 310.248683 -49.174371 
L 310.453151 -49.357962 
L 310.651864 -49.541553 
L 310.84235 -49.725144 
L 311.021849 -49.908735 
L 311.187529 -50.092326 
L 311.336693 -50.275918 
L 311.466947 -50.459509 
L 311.576339 -50.6431 
L 311.663465 -50.826691 
L 311.727535 -51.010282 
L 311.76841 -51.193873 
L 311.786604 -51.377464 
L 311.783268 -51.561056 
L 311.760142 -51.744647 
L 311.719498 -51.928238 
L 311.664064 -52.111829 
L 311.596937 -52.29542 
L 311.521492 -52.479011 
L 311.441284 -52.662603 
L 311.359941 -52.846194 
L 311.281063 -53.029785 
L 311.208116 -53.213376 
L 311.144329 -53.396967 
L 311.092595 -53.580558 
L 311.055382 -53.76415 
L 311.034657 -53.947741 
L 311.031818 -54.131332 
L 311.047654 -54.314923 
L 311.082326 -54.498514 
L 311.135366 -54.682105 
L 311.205713 -54.865696 
L 311.291765 -55.049288 
L 311.391461 -55.232879 
L 311.502378 -55.41647 
L 311.621844 -55.600061 
L 311.747062 -55.783652 
L 311.875225 -55.967243 
L 312.003634 -56.150835 
L 312.129798 -56.334426 
L 312.251516 -56.518017 
L 312.366939 -56.701608 
L 312.474611 -56.885199 
L 312.573477 -57.06879 
L 312.662877 -57.252381 
L 312.742525 -57.435973 
L 312.812457 -57.619564 
L 312.87299 -57.803155 
L 312.924656 -57.986746 
L 313.349677 -57.986746 
L 313.349677 -57.986746 
L 313.401343 -57.803155 
L 313.461876 -57.619564 
L 313.531809 -57.435973 
L 313.611456 -57.252381 
L 313.700857 -57.06879 
L 313.799722 -56.885199 
L 313.907394 -56.701608 
L 314.022817 -56.518017 
L 314.144535 -56.334426 
L 314.270699 -56.150835 
L 314.399108 -55.967243 
L 314.527271 -55.783652 
L 314.652489 -55.600061 
L 314.771956 -55.41647 
L 314.882872 -55.232879 
L 314.982568 -55.049288 
L 315.06862 -54.865696 
L 315.138967 -54.682105 
L 315.192007 -54.498514 
L 315.226679 -54.314923 
L 315.242516 -54.131332 
L 315.239676 -53.947741 
L 315.218951 -53.76415 
L 315.181738 -53.580558 
L 315.130004 -53.396967 
L 315.066217 -53.213376 
L 314.99327 -53.029785 
L 314.914392 -52.846194 
L 314.833049 -52.662603 
L 314.752841 -52.479011 
L 314.677396 -52.29542 
L 314.610269 -52.111829 
L 314.554835 -51.928238 
L 314.514191 -51.744647 
L 314.491065 -51.561056 
L 314.487729 -51.377464 
L 314.505923 -51.193873 
L 314.546798 -51.010282 
L 314.610868 -50.826691 
L 314.697994 -50.6431 
L 314.807386 -50.459509 
L 314.93764 -50.275918 
L 315.086804 -50.092326 
L 315.252485 -49.908735 
L 315.431983 -49.725144 
L 315.62247 -49.541553 
L 315.821182 -49.357962 
L 316.02565 -49.174371 
L 316.233927 -48.990779 
L 316.444822 -48.807188 
L 316.658116 -48.623597 
L 316.874739 -48.440006 
L 317.096905 -48.256415 
L 317.328163 -48.072824 
L 317.573381 -47.889232 
L 317.838613 -47.705641 
L 318.130875 -47.52205 
L 318.457799 -47.338459 
L 318.82719 -47.154868 
L 319.246489 -46.971277 
L 319.722168 -46.787686 
L 320.259089 -46.604094 
L 320.859861 -46.420503 
L 321.524249 -46.236912 
L 322.248676 -46.053321 
L 323.025869 -45.86973 
L 323.844699 -45.686139 
L 324.690235 -45.502547 
L 325.544055 -45.318956 
L 326.384803 -45.135365 
L 327.188976 -44.951774 
L 327.93193 -44.768183 
L 328.589018 -44.584592 
L 329.136821 -44.401 
L 329.554373 -44.217409 
L 329.824305 -44.033818 
L 329.933817 -43.850227 
L 329.875418 -43.666636 
L 329.647367 -43.483045 
L 329.253791 -43.299454 
L 328.704468 -43.115862 
L 328.014292 -42.932271 
L 327.202464 -42.74868 
L 326.291477 -42.565089 
L 325.305957 -42.381498 
L 324.271457 -42.197907 
L 323.213281 -42.014315 
L 322.155406 -41.830724 
L 321.119573 -41.647133 
L 320.124586 -41.463542 
L 319.185834 -41.279951 
L 318.315059 -41.09636 
L 317.520339 -40.912768 
L 316.806261 -40.729177 
L 316.174253 -40.545586 
L 315.623032 -40.361995 
L 315.149104 -40.178404 
L 314.747303 -39.994813 
L 314.411308 -39.811222 
z
" style="stroke: #3d3d3d; stroke-width: 0.8"/>
    </defs>
    <g clip-path="url(#p98f867c0ac)">
     <use xlink:href="#m6851e00ee7" x="0" y="215.036094" style="fill: #c03d3e; stroke: #3d3d3d; stroke-width: 0.8"/>
    </g>
   </g>
   <g id="FillBetweenPolyCollection_2">
    <defs>
     <path id="mec2855230c" d="M 363.009619 -36.697003 
L 359.245576 -36.697003 
L 358.87424 -37.01954 
L 358.450836 -37.342078 
L 357.972815 -37.664616 
L 357.438538 -37.987153 
L 356.847485 -38.309691 
L 356.200454 -38.632229 
L 355.49973 -38.954766 
L 354.749227 -39.277304 
L 353.954578 -39.599841 
L 353.123158 -39.922379 
L 352.264055 -40.244917 
L 351.387953 -40.567454 
L 350.506948 -40.889992 
L 349.634286 -41.212529 
L 348.784035 -41.535067 
L 347.970697 -41.857605 
L 347.208784 -42.180142 
L 346.512359 -42.50268 
L 345.894584 -42.825218 
L 345.367272 -43.147755 
L 344.940489 -43.470293 
L 344.622201 -43.79283 
L 344.418007 -44.115368 
L 344.330946 -44.437906 
L 344.361412 -44.760443 
L 344.507156 -45.082981 
L 344.763387 -45.405518 
L 345.122967 -45.728056 
L 345.576671 -46.050594 
L 346.113517 -46.373131 
L 346.721133 -46.695669 
L 347.386152 -47.018207 
L 348.094608 -47.340744 
L 348.832325 -47.663282 
L 349.585274 -47.985819 
L 350.339895 -48.308357 
L 351.083364 -48.630895 
L 351.80382 -48.953432 
L 352.490525 -49.27597 
L 353.133986 -49.598507 
L 353.726019 -49.921045 
L 354.259779 -50.243583 
L 354.729763 -50.56612 
L 355.131782 -50.888658 
L 355.462923 -51.211196 
L 355.721498 -51.533733 
L 355.906998 -51.856271 
L 356.020041 -52.178808 
L 356.062328 -52.501346 
L 356.036597 -52.823884 
L 355.946584 -53.146421 
L 355.79698 -53.468959 
L 355.593382 -53.791496 
L 355.342236 -54.114034 
L 355.050764 -54.436572 
L 354.726875 -54.759109 
L 354.379057 -55.081647 
L 354.016239 -55.404185 
L 353.647647 -55.726722 
L 353.282619 -56.04926 
L 352.930425 -56.371797 
L 352.600058 -56.694335 
L 352.300032 -57.016873 
L 352.038175 -57.33941 
L 351.821442 -57.661948 
L 351.655739 -57.984485 
L 351.545775 -58.307023 
L 351.494952 -58.629561 
L 351.505292 -58.952098 
L 351.577403 -59.274636 
L 351.710499 -59.597174 
L 351.902448 -59.919711 
L 352.149878 -60.242249 
L 352.448312 -60.564786 
L 352.792331 -60.887324 
L 353.175764 -61.209862 
L 353.591895 -61.532399 
L 354.033675 -61.854937 
L 354.493925 -62.177474 
L 354.965545 -62.500012 
L 355.441688 -62.82255 
L 355.915929 -63.145087 
L 356.382391 -63.467625 
L 356.835856 -63.790163 
L 357.271833 -64.1127 
L 357.686607 -64.435238 
L 358.077248 -64.757775 
L 358.441604 -65.080313 
L 358.778261 -65.402851 
L 359.086494 -65.725388 
L 359.366198 -66.047926 
L 359.617806 -66.370463 
L 359.84221 -66.693001 
L 360.04067 -67.015539 
L 360.214732 -67.338076 
L 360.366146 -67.660614 
L 360.496791 -67.983152 
L 360.60861 -68.305689 
L 360.703553 -68.628227 
L 361.551641 -68.628227 
L 361.551641 -68.628227 
L 361.646584 -68.305689 
L 361.758403 -67.983152 
L 361.889048 -67.660614 
L 362.040462 -67.338076 
L 362.214524 -67.015539 
L 362.412984 -66.693001 
L 362.637388 -66.370463 
L 362.888996 -66.047926 
L 363.1687 -65.725388 
L 363.476934 -65.402851 
L 363.813591 -65.080313 
L 364.177946 -64.757775 
L 364.568587 -64.435238 
L 364.983361 -64.1127 
L 365.419338 -63.790163 
L 365.872803 -63.467625 
L 366.339265 -63.145087 
L 366.813506 -62.82255 
L 367.28965 -62.500012 
L 367.761269 -62.177474 
L 368.22152 -61.854937 
L 368.663299 -61.532399 
L 369.07943 -61.209862 
L 369.462863 -60.887324 
L 369.806882 -60.564786 
L 370.105316 -60.242249 
L 370.352747 -59.919711 
L 370.544696 -59.597174 
L 370.677791 -59.274636 
L 370.749903 -58.952098 
L 370.760243 -58.629561 
L 370.70942 -58.307023 
L 370.599455 -57.984485 
L 370.433752 -57.661948 
L 370.217019 -57.33941 
L 369.955163 -57.016873 
L 369.655136 -56.694335 
L 369.324769 -56.371797 
L 368.972575 -56.04926 
L 368.607548 -55.726722 
L 368.238955 -55.404185 
L 367.876138 -55.081647 
L 367.528319 -54.759109 
L 367.20443 -54.436572 
L 366.912958 -54.114034 
L 366.661812 -53.791496 
L 366.458215 -53.468959 
L 366.308611 -53.146421 
L 366.218598 -52.823884 
L 366.192867 -52.501346 
L 366.235153 -52.178808 
L 366.348196 -51.856271 
L 366.533697 -51.533733 
L 366.792272 -51.211196 
L 367.123412 -50.888658 
L 367.525431 -50.56612 
L 367.995416 -50.243583 
L 368.529176 -49.921045 
L 369.121208 -49.598507 
L 369.764669 -49.27597 
L 370.451375 -48.953432 
L 371.171831 -48.630895 
L 371.9153 -48.308357 
L 372.66992 -47.985819 
L 373.422869 -47.663282 
L 374.160586 -47.340744 
L 374.869043 -47.018207 
L 375.534061 -46.695669 
L 376.141677 -46.373131 
L 376.678523 -46.050594 
L 377.132227 -45.728056 
L 377.491807 -45.405518 
L 377.748039 -45.082981 
L 377.893782 -44.760443 
L 377.924248 -44.437906 
L 377.837187 -44.115368 
L 377.632993 -43.79283 
L 377.314706 -43.470293 
L 376.887922 -43.147755 
L 376.360611 -42.825218 
L 375.742835 -42.50268 
L 375.046411 -42.180142 
L 374.284497 -41.857605 
L 373.47116 -41.535067 
L 372.620908 -41.212529 
L 371.748246 -40.889992 
L 370.867242 -40.567454 
L 369.99114 -40.244917 
L 369.132037 -39.922379 
L 368.300617 -39.599841 
L 367.505967 -39.277304 
L 366.755465 -38.954766 
L 366.054741 -38.632229 
L 365.407709 -38.309691 
L 364.816657 -37.987153 
L 364.28238 -37.664616 
L 363.804358 -37.342078 
L 363.380954 -37.01954 
L 363.009619 -36.697003 
z
" style="stroke: #3d3d3d; stroke-width: 0.8"/>
    </defs>
    <g clip-path="url(#p98f867c0ac)">
     <use xlink:href="#mec2855230c" x="0" y="215.036094" style="fill: #3274a1; stroke: #3d3d3d; stroke-width: 0.8"/>
    </g>
   </g>
   <g id="FillBetweenPolyCollection_3">
    <defs>
     <path id="md45c61d09b" d="M 409.571034 -45.343554 
L 408.665022 -45.343554 
L 408.525343 -46.937207 
L 408.352259 -48.53086 
L 408.140931 -50.124513 
L 407.886741 -51.718165 
L 407.585602 -53.311818 
L 407.234301 -54.905471 
L 406.83086 -56.499124 
L 406.374894 -58.092777 
L 405.867926 -59.68643 
L 405.313623 -61.280082 
L 404.717927 -62.873735 
L 404.089044 -64.467388 
L 403.437264 -66.061041 
L 402.77461 -67.654694 
L 402.114322 -69.248347 
L 401.470188 -70.841999 
L 400.855767 -72.435652 
L 400.283562 -74.029305 
L 399.764202 -75.622958 
L 399.305689 -77.216611 
L 398.91281 -78.810264 
L 398.586728 -80.403916 
L 398.324831 -81.997569 
L 398.120837 -83.591222 
L 397.96517 -85.184875 
L 397.845568 -86.778528 
L 397.747898 -88.372181 
L 397.6571 -89.965833 
L 397.558201 -91.559486 
L 397.437315 -93.153139 
L 397.28257 -94.746792 
L 397.084881 -96.340445 
L 396.838535 -97.934098 
L 396.541548 -99.52775 
L 396.195776 -101.121403 
L 395.806794 -102.715056 
L 395.383548 -104.308709 
L 394.937823 -105.902362 
L 394.483571 -107.496015 
L 394.036137 -109.089667 
L 393.611456 -110.68332 
L 393.225246 -112.276973 
L 392.89227 -113.870626 
L 392.625676 -115.464279 
L 392.436473 -117.057932 
L 392.33314 -118.651584 
L 392.321377 -120.245237 
L 392.404009 -121.83889 
L 392.581012 -123.432543 
L 392.849661 -125.026196 
L 393.204767 -126.619849 
L 393.638992 -128.213501 
L 394.143213 -129.807154 
L 394.706928 -131.400807 
L 395.318669 -132.99446 
L 395.96644 -134.588113 
L 396.638129 -136.181766 
L 397.321922 -137.775418 
L 398.006674 -139.369071 
L 398.682246 -140.962724 
L 399.339784 -142.556377 
L 399.971935 -144.15003 
L 400.572979 -145.743683 
L 401.138886 -147.337335 
L 401.667285 -148.930988 
L 402.157351 -150.524641 
L 402.609631 -152.118294 
L 403.025805 -153.711947 
L 403.408431 -155.3056 
L 403.760668 -156.899252 
L 404.086011 -158.492905 
L 404.388057 -160.086558 
L 404.670306 -161.680211 
L 404.936016 -163.273864 
L 405.188095 -164.867517 
L 405.429045 -166.461169 
L 405.66094 -168.054822 
L 405.885426 -169.648475 
L 406.103739 -171.242128 
L 406.316738 -172.835781 
L 406.524927 -174.429434 
L 406.728491 -176.023086 
L 406.927324 -177.616739 
L 407.121065 -179.210392 
L 407.30913 -180.804045 
L 407.490759 -182.397698 
L 407.665066 -183.991351 
L 407.831101 -185.585003 
L 407.987912 -187.178656 
L 408.13461 -188.772309 
L 408.270433 -190.365962 
L 408.394796 -191.959615 
L 408.507332 -193.553268 
L 408.607917 -195.14692 
L 408.696676 -196.740573 
L 408.773971 -198.334226 
L 408.840377 -199.927879 
L 408.896646 -201.521532 
L 408.943662 -203.115185 
L 409.292394 -203.115185 
L 409.292394 -203.115185 
L 409.339409 -201.521532 
L 409.395679 -199.927879 
L 409.462085 -198.334226 
L 409.539379 -196.740573 
L 409.628138 -195.14692 
L 409.728724 -193.553268 
L 409.84126 -191.959615 
L 409.965623 -190.365962 
L 410.101446 -188.772309 
L 410.248144 -187.178656 
L 410.404955 -185.585003 
L 410.57099 -183.991351 
L 410.745297 -182.397698 
L 410.926925 -180.804045 
L 411.11499 -179.210392 
L 411.308731 -177.616739 
L 411.507565 -176.023086 
L 411.711129 -174.429434 
L 411.919318 -172.835781 
L 412.132316 -171.242128 
L 412.35063 -169.648475 
L 412.575116 -168.054822 
L 412.807011 -166.461169 
L 413.047961 -164.867517 
L 413.30004 -163.273864 
L 413.565749 -161.680211 
L 413.847999 -160.086558 
L 414.150045 -158.492905 
L 414.475388 -156.899252 
L 414.827625 -155.3056 
L 415.210251 -153.711947 
L 415.626425 -152.118294 
L 416.078704 -150.524641 
L 416.568771 -148.930988 
L 417.09717 -147.337335 
L 417.663077 -145.743683 
L 418.264121 -144.15003 
L 418.896271 -142.556377 
L 419.55381 -140.962724 
L 420.229382 -139.369071 
L 420.914134 -137.775418 
L 421.597927 -136.181766 
L 422.269616 -134.588113 
L 422.917386 -132.99446 
L 423.529128 -131.400807 
L 424.092842 -129.807154 
L 424.597064 -128.213501 
L 425.031289 -126.619849 
L 425.386395 -125.026196 
L 425.655044 -123.432543 
L 425.832047 -121.83889 
L 425.914679 -120.245237 
L 425.902916 -118.651584 
L 425.799582 -117.057932 
L 425.61038 -115.464279 
L 425.343786 -113.870626 
L 425.010809 -112.276973 
L 424.6246 -110.68332 
L 424.199919 -109.089667 
L 423.752485 -107.496015 
L 423.298232 -105.902362 
L 422.852507 -104.308709 
L 422.429261 -102.715056 
L 422.040279 -101.121403 
L 421.694508 -99.52775 
L 421.39752 -97.934098 
L 421.151174 -96.340445 
L 420.953485 -94.746792 
L 420.798741 -93.153139 
L 420.677855 -91.559486 
L 420.578956 -89.965833 
L 420.488158 -88.372181 
L 420.390488 -86.778528 
L 420.270886 -85.184875 
L 420.115218 -83.591222 
L 419.911225 -81.997569 
L 419.649328 -80.403916 
L 419.323246 -78.810264 
L 418.930367 -77.216611 
L 418.471854 -75.622958 
L 417.952493 -74.029305 
L 417.380289 -72.435652 
L 416.765868 -70.841999 
L 416.121734 -69.248347 
L 415.461446 -67.654694 
L 414.798792 -66.061041 
L 414.147011 -64.467388 
L 413.518128 -62.873735 
L 412.922433 -61.280082 
L 412.368129 -59.68643 
L 411.861161 -58.092777 
L 411.405196 -56.499124 
L 411.001755 -54.905471 
L 410.650453 -53.311818 
L 410.349315 -51.718165 
L 410.095125 -50.124513 
L 409.883797 -48.53086 
L 409.710713 -46.937207 
L 409.571034 -45.343554 
z
" style="stroke: #3d3d3d; stroke-width: 0.8"/>
    </defs>
    <g clip-path="url(#p98f867c0ac)">
     <use xlink:href="#md45c61d09b" x="0" y="215.036094" style="fill: #3a923a; stroke: #3d3d3d; stroke-width: 0.8"/>
    </g>
   </g>
   <g id="FillBetweenPolyCollection_4">
    <defs>
     <path id="m5b15088832" d="M 459.33056 -42.85279 
L 454.886357 -42.85279 
L 454.466234 -42.867624 
L 453.990942 -42.882459 
L 453.458556 -42.897293 
L 452.868248 -42.912127 
L 452.2205 -42.926961 
L 451.517302 -42.941795 
L 450.762309 -42.956629 
L 449.960967 -42.971464 
L 449.120571 -42.986298 
L 448.250257 -43.001132 
L 447.360926 -43.015966 
L 446.465075 -43.0308 
L 445.576555 -43.045634 
L 444.710252 -43.060469 
L 443.88169 -43.075303 
L 443.106586 -43.090137 
L 442.400362 -43.104971 
L 441.777638 -43.119805 
L 441.251727 -43.134639 
L 440.834164 -43.149474 
L 440.534277 -43.164308 
L 440.35884 -43.179142 
L 440.311808 -43.193976 
L 440.394162 -43.20881 
L 440.603863 -43.223645 
L 440.935921 -43.238479 
L 441.382572 -43.253313 
L 441.933558 -43.268147 
L 442.576487 -43.282981 
L 443.297266 -43.297815 
L 444.080568 -43.31265 
L 444.910322 -43.327484 
L 445.770203 -43.342318 
L 446.644094 -43.357152 
L 447.516502 -43.371986 
L 448.372916 -43.38682 
L 449.200099 -43.401655 
L 449.986301 -43.416489 
L 450.721397 -43.431323 
L 451.396956 -43.446157 
L 452.006238 -43.460991 
L 452.544147 -43.475825 
L 453.007135 -43.49066 
L 453.393078 -43.505494 
L 453.701142 -43.520328 
L 453.931635 -43.535162 
L 454.085881 -43.549996 
L 454.166095 -43.56483 
L 454.175286 -43.579665 
L 454.117176 -43.594499 
L 453.996149 -43.609333 
L 453.817207 -43.624167 
L 453.585952 -43.639001 
L 453.308558 -43.653836 
L 452.991759 -43.66867 
L 452.642813 -43.683504 
L 452.269462 -43.698338 
L 451.87986 -43.713172 
L 451.482483 -43.728006 
L 451.086012 -43.742841 
L 450.699179 -43.757675 
L 450.330604 -43.772509 
L 449.988604 -43.787343 
L 449.680995 -43.802177 
L 449.414893 -43.817011 
L 449.19652 -43.831846 
L 449.031032 -43.84668 
L 448.922368 -43.861514 
L 448.873148 -43.876348 
L 448.884595 -43.891182 
L 448.956521 -43.906016 
L 449.087348 -43.920851 
L 449.274187 -43.935685 
L 449.512958 -43.950519 
L 449.798545 -43.965353 
L 450.124985 -43.980187 
L 450.485685 -43.995021 
L 450.873638 -44.009856 
L 451.281657 -44.02469 
L 451.702585 -44.039524 
L 452.129506 -44.054358 
L 452.555915 -44.069192 
L 452.975874 -44.084027 
L 453.384125 -44.098861 
L 453.776172 -44.113695 
L 454.14833 -44.128529 
L 454.497733 -44.143363 
L 454.822322 -44.158197 
L 455.120805 -44.173032 
L 455.392587 -44.187866 
L 455.637699 -44.2027 
L 455.856706 -44.217534 
L 456.050612 -44.232368 
L 456.220769 -44.247202 
L 456.368784 -44.262037 
L 456.496437 -44.276871 
L 456.605599 -44.291705 
L 456.698174 -44.306539 
L 456.776037 -44.321373 
L 457.440879 -44.321373 
L 457.440879 -44.321373 
L 457.518743 -44.306539 
L 457.611318 -44.291705 
L 457.72048 -44.276871 
L 457.848133 -44.262037 
L 457.996148 -44.247202 
L 458.166305 -44.232368 
L 458.360211 -44.217534 
L 458.579217 -44.2027 
L 458.82433 -44.187866 
L 459.096112 -44.173032 
L 459.394595 -44.158197 
L 459.719184 -44.143363 
L 460.068587 -44.128529 
L 460.440744 -44.113695 
L 460.832792 -44.098861 
L 461.241043 -44.084027 
L 461.661002 -44.069192 
L 462.087411 -44.054358 
L 462.514332 -44.039524 
L 462.93526 -44.02469 
L 463.343278 -44.009856 
L 463.731232 -43.995021 
L 464.091932 -43.980187 
L 464.418372 -43.965353 
L 464.703959 -43.950519 
L 464.94273 -43.935685 
L 465.129569 -43.920851 
L 465.260396 -43.906016 
L 465.332321 -43.891182 
L 465.343769 -43.876348 
L 465.294548 -43.861514 
L 465.185885 -43.84668 
L 465.020396 -43.831846 
L 464.802024 -43.817011 
L 464.535922 -43.802177 
L 464.228313 -43.787343 
L 463.886313 -43.772509 
L 463.517738 -43.757675 
L 463.130905 -43.742841 
L 462.734434 -43.728006 
L 462.337057 -43.713172 
L 461.947455 -43.698338 
L 461.574104 -43.683504 
L 461.225158 -43.66867 
L 460.908359 -43.653836 
L 460.630965 -43.639001 
L 460.399709 -43.624167 
L 460.220768 -43.609333 
L 460.099741 -43.594499 
L 460.041631 -43.579665 
L 460.050821 -43.56483 
L 460.131036 -43.549996 
L 460.285282 -43.535162 
L 460.515775 -43.520328 
L 460.823838 -43.505494 
L 461.209782 -43.49066 
L 461.67277 -43.475825 
L 462.210679 -43.460991 
L 462.819961 -43.446157 
L 463.49552 -43.431323 
L 464.230616 -43.416489 
L 465.016818 -43.401655 
L 465.844001 -43.38682 
L 466.700415 -43.371986 
L 467.572823 -43.357152 
L 468.446714 -43.342318 
L 469.306595 -43.327484 
L 470.136349 -43.31265 
L 470.919651 -43.297815 
L 471.64043 -43.282981 
L 472.283359 -43.268147 
L 472.834345 -43.253313 
L 473.280996 -43.238479 
L 473.613053 -43.223645 
L 473.822755 -43.20881 
L 473.905109 -43.193976 
L 473.858077 -43.179142 
L 473.68264 -43.164308 
L 473.382753 -43.149474 
L 472.96519 -43.134639 
L 472.439279 -43.119805 
L 471.816555 -43.104971 
L 471.110331 -43.090137 
L 470.335227 -43.075303 
L 469.506665 -43.060469 
L 468.640362 -43.045634 
L 467.751842 -43.0308 
L 466.855991 -43.015966 
L 465.966659 -43.001132 
L 465.096346 -42.986298 
L 464.25595 -42.971464 
L 463.454608 -42.956629 
L 462.699615 -42.941795 
L 461.996416 -42.926961 
L 461.348669 -42.912127 
L 460.758361 -42.897293 
L 460.225975 -42.882459 
L 459.750683 -42.867624 
L 459.33056 -42.85279 
z
" style="stroke: #3d3d3d; stroke-width: 0.8"/>
    </defs>
    <g clip-path="url(#p98f867c0ac)">
     <use xlink:href="#m5b15088832" x="0" y="215.036094" style="fill: #7f7f7f; stroke: #3d3d3d; stroke-width: 0.8"/>
    </g>
   </g>
   <g id="matplotlib.axis_3">
    <g id="xtick_5">
     <g id="line2d_67">
      <g>
       <use xlink:href="#m13bd93cbcc" x="313.137167" y="186.66" style="stroke: #000000; stroke-width: 0.6"/>
      </g>
     </g>
     <g id="line2d_68">
      <g>
       <use xlink:href="#mc3a8cff143" x="313.137167" y="3.6" style="stroke: #000000; stroke-width: 0.6"/>
      </g>
     </g>
     <g id="text_20">
      <text style="font-size: 9px; font-family: 'Times New Roman', 'Times', 'DejaVu Serif', serif; text-anchor: middle" x="313.137167" y="196.409375" transform="rotate(-0 313.137167 196.409375)">MMAS</text>
     </g>
    </g>
    <g id="xtick_6">
     <g id="line2d_69">
      <g>
       <use xlink:href="#m13bd93cbcc" x="361.127597" y="186.66" style="stroke: #000000; stroke-width: 0.6"/>
      </g>
     </g>
     <g id="line2d_70">
      <g>
       <use xlink:href="#mc3a8cff143" x="361.127597" y="3.6" style="stroke: #000000; stroke-width: 0.6"/>
      </g>
     </g>
     <g id="text_21">
      <text style="font-size: 9px; font-family: 'Times New Roman', 'Times', 'DejaVu Serif', serif; text-anchor: middle" x="361.127597" y="196.409375" transform="rotate(-0 361.127597 196.409375)">ACS</text>
     </g>
    </g>
    <g id="xtick_7">
     <g id="line2d_71">
      <g>
       <use xlink:href="#m13bd93cbcc" x="409.118028" y="186.66" style="stroke: #000000; stroke-width: 0.6"/>
      </g>
     </g>
     <g id="line2d_72">
      <g>
       <use xlink:href="#mc3a8cff143" x="409.118028" y="3.6" style="stroke: #000000; stroke-width: 0.6"/>
      </g>
     </g>
     <g id="text_22">
      <text style="font-size: 9px; font-family: 'Times New Roman', 'Times', 'DejaVu Serif', serif; text-anchor: middle" x="409.118028" y="196.409375" transform="rotate(-0 409.118028 196.409375)">GA</text>
     </g>
    </g>
    <g id="xtick_8">
     <g id="line2d_73">
      <g>
       <use xlink:href="#m13bd93cbcc" x="457.108458" y="186.66" style="stroke: #000000; stroke-width: 0.6"/>
      </g>
     </g>
     <g id="line2d_74">
      <g>
       <use xlink:href="#mc3a8cff143" x="457.108458" y="3.6" style="stroke: #000000; stroke-width: 0.6"/>
      </g>
     </g>
     <g id="text_23">
      <text style="font-size: 9px; font-family: 'Times New Roman', 'Times', 'DejaVu Serif', serif; text-anchor: middle" x="457.108458" y="196.409375" transform="rotate(-0 457.108458 196.409375)">SA</text>
     </g>
    </g>
    <g id="text_24">
     <text style="font-size: 10px; font-family: 'Times New Roman', 'Times', 'DejaVu Serif', serif; text-anchor: middle" x="385.122813" y="209.278281" transform="rotate(-0 385.122813 209.278281)">Algorithm</text>
    </g>
   </g>
   <g id="matplotlib.axis_4">
    <g id="ytick_10">
     <g id="line2d_75">
      <path d="M 284.822812 186.425726 
L 485.422813 186.425726 
" clip-path="url(#p98f867c0ac)" style="fill: none; stroke-dasharray: 1.48,0.64; stroke-dashoffset: 0; stroke: #b0b0b0; stroke-opacity: 0.2; stroke-width: 0.4"/>
     </g>
     <g id="line2d_76">
      <g>
       <use xlink:href="#mbe21d1ad92" x="284.822812" y="186.425726" style="stroke: #000000; stroke-width: 0.6"/>
      </g>
     </g>
     <g id="line2d_77">
      <g>
       <use xlink:href="#m648b905624" x="485.422813" y="186.425726" style="stroke: #000000; stroke-width: 0.6"/>
      </g>
     </g>
     <g id="text_25">
      <text style="font-size: 9px; font-family: 'Times New Roman', 'Times', 'DejaVu Serif', serif; text-anchor: end" x="281.322812" y="189.550414" transform="rotate(-0 281.322812 189.550414)">280</text>
     </g>
    </g>
    <g id="ytick_11">
     <g id="line2d_78">
      <path d="M 284.822812 147.667151 
L 485.422813 147.667151 
" clip-path="url(#p98f867c0ac)" style="fill: none; stroke-dasharray: 1.48,0.64; stroke-dashoffset: 0; stroke: #b0b0b0; stroke-opacity: 0.2; stroke-width: 0.4"/>
     </g>
     <g id="line2d_79">
      <g>
       <use xlink:href="#mbe21d1ad92" x="284.822812" y="147.667151" style="stroke: #000000; stroke-width: 0.6"/>
      </g>
     </g>
     <g id="line2d_80">
      <g>
       <use xlink:href="#m648b905624" x="485.422813" y="147.667151" style="stroke: #000000; stroke-width: 0.6"/>
      </g>
     </g>
     <g id="text_26">
      <text style="font-size: 9px; font-family: 'Times New Roman', 'Times', 'DejaVu Serif', serif; text-anchor: end" x="281.322812" y="150.791839" transform="rotate(-0 281.322812 150.791839)">290</text>
     </g>
    </g>
    <g id="ytick_12">
     <g id="line2d_81">
      <path d="M 284.822812 108.908576 
L 485.422813 108.908576 
" clip-path="url(#p98f867c0ac)" style="fill: none; stroke-dasharray: 1.48,0.64; stroke-dashoffset: 0; stroke: #b0b0b0; stroke-opacity: 0.2; stroke-width: 0.4"/>
     </g>
     <g id="line2d_82">
      <g>
       <use xlink:href="#mbe21d1ad92" x="284.822812" y="108.908576" style="stroke: #000000; stroke-width: 0.6"/>
      </g>
     </g>
     <g id="line2d_83">
      <g>
       <use xlink:href="#m648b905624" x="485.422813" y="108.908576" style="stroke: #000000; stroke-width: 0.6"/>
      </g>
     </g>
     <g id="text_27">
      <text style="font-size: 9px; font-family: 'Times New Roman', 'Times', 'DejaVu Serif', serif; text-anchor: end" x="281.322812" y="112.033263" transform="rotate(-0 281.322812 112.033263)">300</text>
     </g>
    </g>
    <g id="ytick_13">
     <g id="line2d_84">
      <path d="M 284.822812 70.150001 
L 485.422813 70.150001 
" clip-path="url(#p98f867c0ac)" style="fill: none; stroke-dasharray: 1.48,0.64; stroke-dashoffset: 0; stroke: #b0b0b0; stroke-opacity: 0.2; stroke-width: 0.4"/>
     </g>
     <g id="line2d_85">
      <g>
       <use xlink:href="#mbe21d1ad92" x="284.822812" y="70.150001" style="stroke: #000000; stroke-width: 0.6"/>
      </g>
     </g>
     <g id="line2d_86">
      <g>
       <use xlink:href="#m648b905624" x="485.422813" y="70.150001" style="stroke: #000000; stroke-width: 0.6"/>
      </g>
     </g>
     <g id="text_28">
      <text style="font-size: 9px; font-family: 'Times New Roman', 'Times', 'DejaVu Serif', serif; text-anchor: end" x="281.322812" y="73.274688" transform="rotate(-0 281.322812 73.274688)">310</text>
     </g>
    </g>
    <g id="ytick_14">
     <g id="line2d_87">
      <path d="M 284.822812 31.391425 
L 485.422813 31.391425 
" clip-path="url(#p98f867c0ac)" style="fill: none; stroke-dasharray: 1.48,0.64; stroke-dashoffset: 0; stroke: #b0b0b0; stroke-opacity: 0.2; stroke-width: 0.4"/>
     </g>
     <g id="line2d_88">
      <g>
       <use xlink:href="#mbe21d1ad92" x="284.822812" y="31.391425" style="stroke: #000000; stroke-width: 0.6"/>
      </g>
     </g>
     <g id="line2d_89">
      <g>
       <use xlink:href="#m648b905624" x="485.422813" y="31.391425" style="stroke: #000000; stroke-width: 0.6"/>
      </g>
     </g>
     <g id="text_29">
      <text style="font-size: 9px; font-family: 'Times New Roman', 'Times', 'DejaVu Serif', serif; text-anchor: end" x="281.322812" y="34.516113" transform="rotate(-0 281.322812 34.516113)">320</text>
     </g>
    </g>
    <g id="text_30">
     <text style="font-size: 10px; font-family: 'Times New Roman', 'Times', 'DejaVu Serif', serif; text-anchor: middle" x="261.68375" y="95.13" transform="rotate(-90 261.68375 95.13)">Total Route Distance (km)</text>
    </g>
   </g>
   <g id="line2d_90">
    <path d="M 296.350456 171.169202 
L 329.923877 171.169202 
" clip-path="url(#p98f867c0ac)" style="fill: none; stroke-dasharray: 1,0.6; stroke-dashoffset: 0; stroke: #3d3d3d; stroke-width: 0.8"/>
   </g>
   <g id="line2d_91">
    <path d="M 296.350456 171.169202 
L 329.923877 171.169202 
" clip-path="url(#p98f867c0ac)" style="fill: none; stroke-dasharray: 2,0.8; stroke-dashoffset: 0; stroke: #3d3d3d; stroke-width: 0.8"/>
   </g>
   <g id="line2d_92">
    <path d="M 304.120602 168.958711 
L 322.153731 168.958711 
" clip-path="url(#p98f867c0ac)" style="fill: none; stroke-dasharray: 1,0.6; stroke-dashoffset: 0; stroke: #3d3d3d; stroke-width: 0.8"/>
   </g>
   <g id="line2d_93">
    <path d="M 344.575314 171.169202 
L 377.67988 171.169202 
" clip-path="url(#p98f867c0ac)" style="fill: none; stroke-dasharray: 1,0.6; stroke-dashoffset: 0; stroke: #3d3d3d; stroke-width: 0.8"/>
   </g>
   <g id="line2d_94">
    <path d="M 345.008178 169.411002 
L 377.247016 169.411002 
" clip-path="url(#p98f867c0ac)" style="fill: none; stroke-dasharray: 2,0.8; stroke-dashoffset: 0; stroke: #3d3d3d; stroke-width: 0.8"/>
   </g>
   <g id="line2d_95">
    <path d="M 351.504573 156.467592 
L 370.750621 156.467592 
" clip-path="url(#p98f867c0ac)" style="fill: none; stroke-dasharray: 1,0.6; stroke-dashoffset: 0; stroke: #3d3d3d; stroke-width: 0.8"/>
   </g>
   <g id="line2d_96">
    <path d="M 397.510811 122.851865 
L 420.725244 122.851865 
" clip-path="url(#p98f867c0ac)" style="fill: none; stroke-dasharray: 1,0.6; stroke-dashoffset: 0; stroke: #3d3d3d; stroke-width: 0.8"/>
   </g>
   <g id="line2d_97">
    <path d="M 392.50478 98.553505 
L 425.731276 98.553505 
" clip-path="url(#p98f867c0ac)" style="fill: none; stroke-dasharray: 2,0.8; stroke-dashoffset: 0; stroke: #3d3d3d; stroke-width: 0.8"/>
   </g>
   <g id="line2d_98">
    <path d="M 395.038574 82.771314 
L 423.197482 82.771314 
" clip-path="url(#p98f867c0ac)" style="fill: none; stroke-dasharray: 1,0.6; stroke-dashoffset: 0; stroke: #3d3d3d; stroke-width: 0.8"/>
   </g>
   <g id="line2d_99">
    <path d="M 440.32659 171.84678 
L 473.890326 171.84678 
" clip-path="url(#p98f867c0ac)" style="fill: none; stroke-dasharray: 1,0.6; stroke-dashoffset: 0; stroke: #3d3d3d; stroke-width: 0.8"/>
   </g>
   <g id="line2d_100">
    <path d="M 440.32659 171.84678 
L 473.890326 171.84678 
" clip-path="url(#p98f867c0ac)" style="fill: none; stroke-dasharray: 2,0.8; stroke-dashoffset: 0; stroke: #3d3d3d; stroke-width: 0.8"/>
   </g>
   <g id="line2d_101">
    <path d="M 448.904525 171.169202 
L 465.312391 171.169202 
" clip-path="url(#p98f867c0ac)" style="fill: none; stroke-dasharray: 1,0.6; stroke-dashoffset: 0; stroke: #3d3d3d; stroke-width: 0.8"/>
   </g>
   <g id="patch_12">
    <path d="M 284.822812 186.66 
L 284.822812 3.6 
" style="fill: none; stroke: #000000; stroke-width: 0.8; stroke-linejoin: miter; stroke-linecap: square"/>
   </g>
   <g id="patch_13">
    <path d="M 485.422813 186.66 
L 485.422813 3.6 
" style="fill: none; stroke: #000000; stroke-width: 0.8; stroke-linejoin: miter; stroke-linecap: square"/>
   </g>
   <g id="patch_14">
    <path d="M 284.822813 186.66 
L 485.422813 186.66 
" style="fill: none; stroke: #000000; stroke-width: 0.8; stroke-linejoin: miter; stroke-linecap: square"/>
   </g>
   <g id="patch_15">
    <path d="M 284.822813 3.6 
L 485.422813 3.6 
" style="fill: none; stroke: #000000; stroke-width: 0.8; stroke-linejoin: miter; stroke-linecap: square"/>
   </g>
   <g id="PathCollection_1">
    <defs>
     <path id="m19af075865" d="M 0 1 
C 0.265203 1 0.51958 0.894634 0.707107 0.707107 
C 0.894634 0.51958 1 0.265203 1 0 
C 1 -0.265203 0.894634 -0.51958 0.707107 -0.707107 
C 0.51958 -0.894634 0.265203 -1 0 -1 
C -0.265203 -1 -0.51958 -0.894634 -0.707107 -0.707107 
C -0.894634 -0.51958 -1 -0.265203 -1 0 
C -1 0.265203 -0.894634 0.51958 -0.707107 0.707107 
C -0.51958 0.894634 -0.265203 1 0 1 
z
"/>
    </defs>
    <g clip-path="url(#p98f867c0ac)">
     <use xlink:href="#m19af075865" x="313.137167" y="167.626936" style="fill-opacity: 0.5"/>
     <use xlink:href="#m19af075865" x="296.445746" y="171.169202" style="fill-opacity: 0.5"/>
     <use xlink:href="#m19af075865" x="304.845746" y="171.169202" style="fill-opacity: 0.5"/>
     <use xlink:href="#m19af075865" x="327.728587" y="171.169202" style="fill-opacity: 0.5"/>
     <use xlink:href="#m19af075865" x="323.528587" y="171.169202" style="fill-opacity: 0.5"/>
     <use xlink:href="#m19af075865" x="311.037681" y="171.802515" style="fill-opacity: 0.5"/>
     <use xlink:href="#m19af075865" x="298.545746" y="171.169202" style="fill-opacity: 0.5"/>
     <use xlink:href="#m19af075865" x="332.333339" y="170.786332" style="fill-opacity: 0.5"/>
     <use xlink:href="#m19af075865" x="308.937681" y="171.802515" style="fill-opacity: 0.5"/>
     <use xlink:href="#m19af075865" x="315.112978" y="166.949358" style="fill-opacity: 0.5"/>
     <use xlink:href="#m19af075865" x="321.428587" y="171.169202" style="fill-opacity: 0.5"/>
     <use xlink:href="#m19af075865" x="310.353377" y="166.949358" style="fill-opacity: 0.5"/>
     <use xlink:href="#m19af075865" x="302.745746" y="171.169202" style="fill-opacity: 0.5"/>
     <use xlink:href="#m19af075865" x="325.628587" y="171.169202" style="fill-opacity: 0.5"/>
     <use xlink:href="#m19af075865" x="314.30603" y="160.42744" style="fill-opacity: 0.5"/>
     <use xlink:href="#m19af075865" x="315.236652" y="171.802515" style="fill-opacity: 0.5"/>
     <use xlink:href="#m19af075865" x="313.137167" y="162.088999" style="fill-opacity: 0.5"/>
     <use xlink:href="#m19af075865" x="329.828587" y="171.169202" style="fill-opacity: 0.5"/>
     <use xlink:href="#m19af075865" x="331.928587" y="171.169202" style="fill-opacity: 0.5"/>
     <use xlink:href="#m19af075865" x="316.943624" y="165.969407" style="fill-opacity: 0.5"/>
     <use xlink:href="#m19af075865" x="317.336652" y="171.802515" style="fill-opacity: 0.5"/>
     <use xlink:href="#m19af075865" x="319.436652" y="171.802515" style="fill-opacity: 0.5"/>
     <use xlink:href="#m19af075865" x="313.137167" y="169.827891" style="fill-opacity: 0.5"/>
     <use xlink:href="#m19af075865" x="311.425655" y="168.668984" style="fill-opacity: 0.5"/>
     <use xlink:href="#m19af075865" x="293.940994" y="170.830597" style="fill-opacity: 0.5"/>
     <use xlink:href="#m19af075865" x="311.899392" y="160.47334" style="fill-opacity: 0.5"/>
     <use xlink:href="#m19af075865" x="306.837681" y="171.802515" style="fill-opacity: 0.5"/>
     <use xlink:href="#m19af075865" x="300.645746" y="171.169202" style="fill-opacity: 0.5"/>
     <use xlink:href="#m19af075865" x="313.137167" y="171.84678" style="fill-opacity: 0.5"/>
     <use xlink:href="#m19af075865" x="294.345746" y="171.169202" style="fill-opacity: 0.5"/>
    </g>
   </g>
   <g id="PathCollection_2">
    <g clip-path="url(#p98f867c0ac)">
     <use xlink:href="#m19af075865" x="361.127597" y="171.169202" style="fill-opacity: 0.5"/>
     <use xlink:href="#m19af075865" x="359.027597" y="171.169202" style="fill-opacity: 0.5"/>
     <use xlink:href="#m19af075865" x="361.559567" y="156.467592" style="fill-opacity: 0.5"/>
     <use xlink:href="#m19af075865" x="363.659567" y="156.467592" style="fill-opacity: 0.5"/>
     <use xlink:href="#m19af075865" x="356.927597" y="171.169202" style="fill-opacity: 0.5"/>
     <use xlink:href="#m19af075865" x="363.227597" y="171.169202" style="fill-opacity: 0.5"/>
     <use xlink:href="#m19af075865" x="365.327597" y="171.169202" style="fill-opacity: 0.5"/>
     <use xlink:href="#m19af075865" x="358.501786" y="156.467592" style="fill-opacity: 0.5"/>
     <use xlink:href="#m19af075865" x="354.749668" y="155.232979" style="fill-opacity: 0.5"/>
     <use xlink:href="#m19af075865" x="352.727597" y="171.169202" style="fill-opacity: 0.5"/>
     <use xlink:href="#m19af075865" x="346.718861" y="170.153019" style="fill-opacity: 0.5"/>
     <use xlink:href="#m19af075865" x="360.030676" y="157.838655" style="fill-opacity: 0.5"/>
     <use xlink:href="#m19af075865" x="367.427597" y="171.169202" style="fill-opacity: 0.5"/>
     <use xlink:href="#m19af075865" x="361.127597" y="153.577756" style="fill-opacity: 0.5"/>
     <use xlink:href="#m19af075865" x="360.099875" y="166.949358" style="fill-opacity: 0.5"/>
     <use xlink:href="#m19af075865" x="354.827597" y="171.169202" style="fill-opacity: 0.5"/>
     <use xlink:href="#m19af075865" x="363.227597" y="153.577756" style="fill-opacity: 0.5"/>
     <use xlink:href="#m19af075865" x="367.859567" y="156.467592" style="fill-opacity: 0.5"/>
     <use xlink:href="#m19af075865" x="373.727597" y="171.169202" style="fill-opacity: 0.5"/>
     <use xlink:href="#m19af075865" x="359.027597" y="168.668984" style="fill-opacity: 0.5"/>
     <use xlink:href="#m19af075865" x="371.627597" y="171.169202" style="fill-opacity: 0.5"/>
     <use xlink:href="#m19af075865" x="361.127597" y="168.668984" style="fill-opacity: 0.5"/>
     <use xlink:href="#m19af075865" x="350.627597" y="171.169202" style="fill-opacity: 0.5"/>
     <use xlink:href="#m19af075865" x="356.401786" y="156.467592" style="fill-opacity: 0.5"/>
     <use xlink:href="#m19af075865" x="369.527597" y="171.169202" style="fill-opacity: 0.5"/>
     <use xlink:href="#m19af075865" x="361.79932" y="165.774455" style="fill-opacity: 0.5"/>
     <use xlink:href="#m19af075865" x="361.127597" y="159.544126" style="fill-opacity: 0.5"/>
     <use xlink:href="#m19af075865" x="365.759567" y="156.467592" style="fill-opacity: 0.5"/>
     <use xlink:href="#m19af075865" x="348.527597" y="171.169202" style="fill-opacity: 0.5"/>
     <use xlink:href="#m19af075865" x="375.536334" y="170.153019" style="fill-opacity: 0.5"/>
    </g>
   </g>
   <g id="PathCollection_3">
    <g clip-path="url(#p98f867c0ac)">
     <use xlink:href="#m19af075865" x="408.617933" y="95.527237" style="fill-opacity: 0.5"/>
     <use xlink:href="#m19af075865" x="409.118028" y="54.344524" style="fill-opacity: 0.5"/>
     <use xlink:href="#m19af075865" x="410.671651" y="95.109662" style="fill-opacity: 0.5"/>
     <use xlink:href="#m19af075865" x="407.053481" y="99.637312" style="fill-opacity: 0.5"/>
     <use xlink:href="#m19af075865" x="409.118028" y="135.204613" style="fill-opacity: 0.5"/>
     <use xlink:href="#m19af075865" x="409.118028" y="68.462311" style="fill-opacity: 0.5"/>
     <use xlink:href="#m19af075865" x="409.118028" y="89.241043" style="fill-opacity: 0.5"/>
     <use xlink:href="#m19af075865" x="409.118028" y="108.284511" style="fill-opacity: 0.5"/>
     <use xlink:href="#m19af075865" x="407.669414" y="106.836542" style="fill-opacity: 0.5"/>
     <use xlink:href="#m19af075865" x="413.175084" y="134.184816" style="fill-opacity: 0.5"/>
     <use xlink:href="#m19af075865" x="409.118028" y="97.469698" style="fill-opacity: 0.5"/>
     <use xlink:href="#m19af075865" x="407.081172" y="134.717857" style="fill-opacity: 0.5"/>
     <use xlink:href="#m19af075865" x="407.091069" y="96.946809" style="fill-opacity: 0.5"/>
     <use xlink:href="#m19af075865" x="407.114701" y="82.621355" style="fill-opacity: 0.5"/>
     <use xlink:href="#m19af075865" x="409.118028" y="111.944533" style="fill-opacity: 0.5"/>
     <use xlink:href="#m19af075865" x="409.118028" y="77.218596" style="fill-opacity: 0.5"/>
     <use xlink:href="#m19af075865" x="409.118028" y="100.00326" style="fill-opacity: 0.5"/>
     <use xlink:href="#m19af075865" x="409.118028" y="59.390398" style="fill-opacity: 0.5"/>
     <use xlink:href="#m19af075865" x="409.118028" y="118.351568" style="fill-opacity: 0.5"/>
     <use xlink:href="#m19af075865" x="409.118028" y="102.807054" style="fill-opacity: 0.5"/>
     <use xlink:href="#m19af075865" x="409.118028" y="142.580899" style="fill-opacity: 0.5"/>
     <use xlink:href="#m19af075865" x="413.057024" y="82.046957" style="fill-opacity: 0.5"/>
     <use xlink:href="#m19af075865" x="409.118028" y="91.817921" style="fill-opacity: 0.5"/>
     <use xlink:href="#m19af075865" x="409.118028" y="138.563853" style="fill-opacity: 0.5"/>
     <use xlink:href="#m19af075865" x="411.123129" y="134.610181" style="fill-opacity: 0.5"/>
     <use xlink:href="#m19af075865" x="409.118028" y="132.428123" style="fill-opacity: 0.5"/>
     <use xlink:href="#m19af075865" x="409.118028" y="83.22119" style="fill-opacity: 0.5"/>
     <use xlink:href="#m19af075865" x="410.971433" y="82.280843" style="fill-opacity: 0.5"/>
     <use xlink:href="#m19af075865" x="409.118028" y="124.351964" style="fill-opacity: 0.5"/>
     <use xlink:href="#m19af075865" x="409.118028" y="39.03255" style="fill-opacity: 0.5"/>
    </g>
   </g>
   <g id="PathCollection_4">
    <g clip-path="url(#p98f867c0ac)">
     <use xlink:href="#m19af075865" x="476.304631" y="171.169202" style="fill-opacity: 0.5"/>
     <use xlink:href="#m19af075865" x="463.408458" y="171.84678" style="fill-opacity: 0.5"/>
     <use xlink:href="#m19af075865" x="448.708458" y="171.84678" style="fill-opacity: 0.5"/>
     <use xlink:href="#m19af075865" x="459.208458" y="171.84678" style="fill-opacity: 0.5"/>
     <use xlink:href="#m19af075865" x="437.912286" y="171.793759" style="fill-opacity: 0.5"/>
     <use xlink:href="#m19af075865" x="473.908458" y="171.84678" style="fill-opacity: 0.5"/>
     <use xlink:href="#m19af075865" x="465.508458" y="171.84678" style="fill-opacity: 0.5"/>
     <use xlink:href="#m19af075865" x="476.304631" y="171.169202" style="fill-opacity: 0.5"/>
     <use xlink:href="#m19af075865" x="437.912286" y="171.169202" style="fill-opacity: 0.5"/>
     <use xlink:href="#m19af075865" x="457.108458" y="171.84678" style="fill-opacity: 0.5"/>
     <use xlink:href="#m19af075865" x="437.912286" y="171.169202" style="fill-opacity: 0.5"/>
     <use xlink:href="#m19af075865" x="469.708458" y="171.84678" style="fill-opacity: 0.5"/>
     <use xlink:href="#m19af075865" x="452.908458" y="171.84678" style="fill-opacity: 0.5"/>
     <use xlink:href="#m19af075865" x="455.008458" y="171.84678" style="fill-opacity: 0.5"/>
     <use xlink:href="#m19af075865" x="437.912286" y="171.169202" style="fill-opacity: 0.5"/>
     <use xlink:href="#m19af075865" x="461.308458" y="171.84678" style="fill-opacity: 0.5"/>
     <use xlink:href="#m19af075865" x="476.008458" y="171.84678" style="fill-opacity: 0.5"/>
     <use xlink:href="#m19af075865" x="440.308458" y="171.84678" style="fill-opacity: 0.5"/>
     <use xlink:href="#m19af075865" x="476.304631" y="171.169202" style="fill-opacity: 0.5"/>
     <use xlink:href="#m19af075865" x="467.608458" y="171.84678" style="fill-opacity: 0.5"/>
     <use xlink:href="#m19af075865" x="444.508458" y="171.84678" style="fill-opacity: 0.5"/>
     <use xlink:href="#m19af075865" x="437.912286" y="171.124937" style="fill-opacity: 0.5"/>
     <use xlink:href="#m19af075865" x="476.304631" y="171.169202" style="fill-opacity: 0.5"/>
     <use xlink:href="#m19af075865" x="476.304631" y="171.169202" style="fill-opacity: 0.5"/>
     <use xlink:href="#m19af075865" x="476.304631" y="171.051244" style="fill-opacity: 0.5"/>
     <use xlink:href="#m19af075865" x="450.808458" y="171.84678" style="fill-opacity: 0.5"/>
     <use xlink:href="#m19af075865" x="438.208458" y="171.84678" style="fill-opacity: 0.5"/>
     <use xlink:href="#m19af075865" x="446.608458" y="171.84678" style="fill-opacity: 0.5"/>
     <use xlink:href="#m19af075865" x="442.408458" y="171.84678" style="fill-opacity: 0.5"/>
     <use xlink:href="#m19af075865" x="471.808458" y="171.84678" style="fill-opacity: 0.5"/>
    </g>
   </g>
   <g id="text_31">
    <text style="font-weight: 700; font-size: 10px; font-family: 'Times New Roman', 'Times', 'DejaVu Serif', serif; text-anchor: start" x="288.834812" y="19.387375" transform="rotate(-0 288.834812 19.387375)">(b)</text>
   </g>
   <g id="line2d_102">
    <path d="M 313.137167 169.576365 
" clip-path="url(#p98f867c0ac)" style="fill: none; stroke: #ffffff; stroke-width: 1.5; stroke-linecap: square"/>
    <g clip-path="url(#p98f867c0ac)">
     <use xlink:href="#m450de9b27d" x="313.137167" y="169.576365" style="fill: #ffffff; stroke: #000000; stroke-linejoin: miter"/>
    </g>
   </g>
   <g id="line2d_103">
    <path d="M 361.127597 165.138142 
" clip-path="url(#p98f867c0ac)" style="fill: none; stroke: #ffffff; stroke-width: 1.5; stroke-linecap: square"/>
    <g clip-path="url(#p98f867c0ac)">
     <use xlink:href="#m450de9b27d" x="361.127597" y="165.138142" style="fill: #ffffff; stroke: #000000; stroke-linejoin: miter"/>
    </g>
   </g>
   <g id="line2d_104">
    <path d="M 409.118028 100.641273 
" clip-path="url(#p98f867c0ac)" style="fill: none; stroke: #ffffff; stroke-width: 1.5; stroke-linecap: square"/>
    <g clip-path="url(#p98f867c0ac)">
     <use xlink:href="#m450de9b27d" x="409.118028" y="100.641273" style="fill: #ffffff; stroke: #000000; stroke-linejoin: miter"/>
    </g>
   </g>
   <g id="line2d_105">
    <path d="M 457.108458 171.613746 
" clip-path="url(#p98f867c0ac)" style="fill: none; stroke: #ffffff; stroke-width: 1.5; stroke-linecap: square"/>
    <g clip-path="url(#p98f867c0ac)">
     <use xlink:href="#m450de9b27d" x="457.108458" y="171.613746" style="fill: #ffffff; stroke: #000000; stroke-linejoin: miter"/>
    </g>
   </g>
  </g>
 </g>
 <defs>
  <clipPath id="p2bb7cd983b">
   <rect x="33.682813" y="3.6" width="200.6" height="183.06"/>
  </clipPath>
  <clipPath id="p98f867c0ac">
   <rect x="284.822812" y="3.6" width="200.6" height="183.06"/>
  </clipPath>
 </defs>
</svg>
