<?xml version="1.0" encoding="utf-8" standalone="no"?>
<!DOCTYPE svg PUBLIC "-//W3C//DTD SVG 1.1//EN"
  "http://www.w3.org/Graphics/SVG/1.1/DTD/svg11.dtd">
<svg xmlns:xlink="http://www.w3.org/1999/xlink" width="489.022812pt" height="215.036094pt" viewBox="0 0 489.022812 215.036094" xmlns="http://www.w3.org/2000/svg" version="1.1">
 <metadata>
  <rdf:RDF xmlns:dc="http://purl.org/dc/elements/1.1/" xmlns:cc="http://creativecommons.org/ns#" xmlns:rdf="http://www.w3.org/1999/02/22-rdf-syntax-ns#">
   <cc:Work>
    <dc:type rdf:resource="http://purl.org/dc/dcmitype/StillImage"/>
    <dc:date>2026-02-17T01:48:56.410510</dc:date>
    <dc:format>image/svg+xml</dc:format>
    <dc:creator>
     <cc:Agent>
      <dc:title>Matplotlib v3.10.7, https://matplotlib.org/</dc:title>
     </cc:Agent>
    </dc:creator>
   </cc:Work>
  </rdf:RDF>
 </metadata>
 <defs>
  <style type="text/css">*{stroke-linejoin: round; stroke-linecap: butt}</style>
 </defs>
 <g id="figure_1">
  <g id="patch_1">
   <path d="M 0 215.036094 
L 489.022812 215.036094 
L 489.022812 0 
L 0 0 
z
" style="fill: #ffffff"/>
  </g>
  <g id="axes_1">
   <g id="patch_2">
    <path d="M 33.682813 186.66 
L 234.282812 186.66 
L 234.282812 3.6 
L 33.682813 3.6 
z
" style="fill: #ffffff"/>
   </g>
   <g id="matplotlib.axis_1">
    <g id="xtick_1">
     <g id="line2d_1">
      <defs>
       <path id="m594a11d138" d="M 0 0 
L 0 -3.5 
" style="stroke: #000000; stroke-width: 0.6"/>
      </defs>
      <g>
       <use xlink:href="#m594a11d138" x="58.757812" y="186.66" style="stroke: #000000; stroke-width: 0.6"/>
      </g>
     </g>
     <g id="line2d_2">
      <defs>
       <path id="m5beda81783" d="M 0 0 
L 0 3.5 
" style="stroke: #000000; stroke-width: 0.6"/>
      </defs>
      <g>
       <use xlink:href="#m5beda81783" x="58.757812" y="3.6" style="stroke: #000000; stroke-width: 0.6"/>
      </g>
     </g>
     <g id="text_1">
      <text style="font-size: 9px; font-family: 'Times New Roman', 'Times', 'DejaVu Serif', serif; text-anchor: middle" x="58.757812" y="196.409375" transform="rotate(-0 58.757812 196.409375)">MMAS</text>
     </g>
    </g>
    <g id="xtick_2">
     <g id="line2d_3">
      <g>
       <use xlink:href="#m594a11d138" x="108.907812" y="186.66" style="stroke: #000000; stroke-width: 0.6"/>
      </g>
     </g>
     <g id="line2d_4">
      <g>
       <use xlink:href="#m5beda81783" x="108.907812" y="3.6" style="stroke: #000000; stroke-width: 0.6"/>
      </g>
     </g>
     <g id="text_2">
      <text style="font-size: 9px; font-family: 'Times New Roman', 'Times', 'DejaVu Serif', serif; text-anchor: middle" x="108.907812" y="196.409375" transform="rotate(-0 108.907812 196.409375)">ACS</text>
     </g>
    </g>
    <g id="xtick_3">
     <g id="line2d_5">
      <g>
       <use xlink:href="#m594a11d138" x="159.057812" y="186.66" style="stroke: #000000; stroke-width: 0.6"/>
      </g>
     </g>
     <g id="line2d_6">
      <g>
       <use xlink:href="#m5beda81783" x="159.057812" y="3.6" style="stroke: #000000; stroke-width: 0.6"/>
      </g>
     </g>
     <g id="text_3">
      <text style="font-size: 9px; font-family: 'Times New Roman', 'Times', 'DejaVu Serif', serif; text-anchor: middle" x="159.057812" y="196.409375" transform="rotate(-0 159.057812 196.409375)">GA</text>
     </g>
    </g>
    <g id="xtick_4">
     <g id="line2d_7">
      <g>
       <use xlink:href="#m594a11d138" x="209.207812" y="186.66" style="stroke: #000000; stroke-width: 0.6"/>
      </g>
     </g>
     <g id="line2d_8">
      <g>
       <use xlink:href="#m5beda81783" x="209.207812" y="3.6" style="stroke: #000000; stroke-width: 0.6"/>
      </g>
     </g>
     <g id="text_4">
      <text style="font-size: 9px; font-family: 'Times New Roman', 'Times', 'DejaVu Serif', serif; text-anchor: middle" x="209.207812" y="196.409375" transform="rotate(-0 209.207812 196.409375)">SA</text>
     </g>
    </g>
    <g id="text_5">
     <text style="font-size: 10px; font-family: 'Times New Roman', 'Times', 'DejaVu Serif', serif; text-anchor: middle" x="133.982812" y="209.278281" transform="rotate(-0 133.982812 209.278281)">Algorithm</text>
    </g>
   </g>
   <g id="matplotlib.axis_2">
    <g id="ytick_1">
     <g id="line2d_9">
      <defs>
       <path id="mf95208fe2c" d="M 0 0 
L 3.5 0 
" style="stroke: #000000; stroke-width: 0.6"/>
      </defs>
      <g>
       <use xlink:href="#mf95208fe2c" x="33.682813" y="172.324193" style="stroke: #000000; stroke-width: 0.6"/>
      </g>
     </g>
     <g id="line2d_10">
      <defs>
       <path id="m709f6c06e9" d="M 0 0 
L -3.5 0 
" style="stroke: #000000; stroke-width: 0.6"/>
      </defs>
      <g>
       <use xlink:href="#m709f6c06e9" x="234.282812" y="172.324193" style="stroke: #000000; stroke-width: 0.6"/>
      </g>
     </g>
     <g id="text_6">
      <text style="font-size: 9px; font-family: 'Times New Roman', 'Times', 'DejaVu Serif', serif; text-anchor: end" x="30.182813" y="175.44888" transform="rotate(-0 30.182813 175.44888)">285</text>
     </g>
    </g>
    <g id="ytick_2">
     <g id="line2d_11">
      <g>
       <use xlink:href="#mf95208fe2c" x="33.682813" y="148.041661" style="stroke: #000000; stroke-width: 0.6"/>
      </g>
     </g>
     <g id="line2d_12">
      <g>
       <use xlink:href="#m709f6c06e9" x="234.282812" y="148.041661" style="stroke: #000000; stroke-width: 0.6"/>
      </g>
     </g>
     <g id="text_7">
      <text style="font-size: 9px; font-family: 'Times New Roman', 'Times', 'DejaVu Serif', serif; text-anchor: end" x="30.182813" y="151.166348" transform="rotate(-0 30.182813 151.166348)">290</text>
     </g>
    </g>
    <g id="ytick_3">
     <g id="line2d_13">
      <g>
       <use xlink:href="#mf95208fe2c" x="33.682813" y="123.759129" style="stroke: #000000; stroke-width: 0.6"/>
      </g>
     </g>
     <g id="line2d_14">
      <g>
       <use xlink:href="#m709f6c06e9" x="234.282812" y="123.759129" style="stroke: #000000; stroke-width: 0.6"/>
      </g>
     </g>
     <g id="text_8">
      <text style="font-size: 9px; font-family: 'Times New Roman', 'Times', 'DejaVu Serif', serif; text-anchor: end" x="30.182813" y="126.883816" transform="rotate(-0 30.182813 126.883816)">295</text>
     </g>
    </g>
    <g id="ytick_4">
     <g id="line2d_15">
      <g>
       <use xlink:href="#mf95208fe2c" x="33.682813" y="99.476596" style="stroke: #000000; stroke-width: 0.6"/>
      </g>
     </g>
     <g id="line2d_16">
      <g>
       <use xlink:href="#m709f6c06e9" x="234.282812" y="99.476596" style="stroke: #000000; stroke-width: 0.6"/>
      </g>
     </g>
     <g id="text_9">
      <text style="font-size: 9px; font-family: 'Times New Roman', 'Times', 'DejaVu Serif', serif; text-anchor: end" x="30.182813" y="102.601284" transform="rotate(-0 30.182813 102.601284)">300</text>
     </g>
    </g>
    <g id="ytick_5">
     <g id="line2d_17">
      <g>
       <use xlink:href="#mf95208fe2c" x="33.682813" y="75.194064" style="stroke: #000000; stroke-width: 0.6"/>
      </g>
     </g>
     <g id="line2d_18">
      <g>
       <use xlink:href="#m709f6c06e9" x="234.282812" y="75.194064" style="stroke: #000000; stroke-width: 0.6"/>
      </g>
     </g>
     <g id="text_10">
      <text style="font-size: 9px; font-family: 'Times New Roman', 'Times', 'DejaVu Serif', serif; text-anchor: end" x="30.182813" y="78.318752" transform="rotate(-0 30.182813 78.318752)">305</text>
     </g>
    </g>
    <g id="ytick_6">
     <g id="line2d_19">
      <g>
       <use xlink:href="#mf95208fe2c" x="33.682813" y="50.911532" style="stroke: #000000; stroke-width: 0.6"/>
      </g>
     </g>
     <g id="line2d_20">
      <g>
       <use xlink:href="#m709f6c06e9" x="234.282812" y="50.911532" style="stroke: #000000; stroke-width: 0.6"/>
      </g>
     </g>
     <g id="text_11">
      <text style="font-size: 9px; font-family: 'Times New Roman', 'Times', 'DejaVu Serif', serif; text-anchor: end" x="30.182813" y="54.03622" transform="rotate(-0 30.182813 54.03622)">310</text>
     </g>
    </g>
    <g id="ytick_7">
     <g id="line2d_21">
      <g>
       <use xlink:href="#mf95208fe2c" x="33.682813" y="26.629" style="stroke: #000000; stroke-width: 0.6"/>
      </g>
     </g>
     <g id="line2d_22">
      <g>
       <use xlink:href="#m709f6c06e9" x="234.282812" y="26.629" style="stroke: #000000; stroke-width: 0.6"/>
      </g>
     </g>
     <g id="text_12">
      <text style="font-size: 9px; font-family: 'Times New Roman', 'Times', 'DejaVu Serif', serif; text-anchor: end" x="30.182813" y="29.753688" transform="rotate(-0 30.182813 29.753688)">315</text>
     </g>
    </g>
    <g id="text_13">
     <text style="font-size: 10px; font-family: 'Times New Roman', 'Times', 'DejaVu Serif', serif; text-anchor: middle" x="10.54375" y="95.13" transform="rotate(-90 10.54375 95.13)">Total Route Distance (km)</text>
    </g>
   </g>
   <g id="patch_3">
    <path d="M 43.712813 177.490076 
L 73.802813 177.490076 
L 73.802813 174.720298 
L 43.712813 174.720298 
L 43.712813 177.490076 
z
" clip-path="url(#p2bd2b844bf)" style="fill: #c03d3e; stroke: #3d3d3d; stroke-width: 0.8; stroke-linejoin: miter"/>
   </g>
   <g id="line2d_23">
    <path d="M 58.757812 177.490076 
L 58.757812 178.339091 
" clip-path="url(#p2bd2b844bf)" style="fill: none; stroke: #3d3d3d; stroke-width: 0.8"/>
   </g>
   <g id="line2d_24">
    <path d="M 58.757812 174.720298 
L 58.757812 170.974657 
" clip-path="url(#p2bd2b844bf)" style="fill: none; stroke: #3d3d3d; stroke-width: 0.8"/>
   </g>
   <g id="line2d_25">
    <path d="M 51.235312 178.339091 
L 66.280312 178.339091 
" clip-path="url(#p2bd2b844bf)" style="fill: none; stroke: #3d3d3d; stroke-width: 0.8; stroke-linecap: square"/>
   </g>
   <g id="line2d_26">
    <path d="M 51.235312 170.974657 
L 66.280312 170.974657 
" clip-path="url(#p2bd2b844bf)" style="fill: none; stroke: #3d3d3d; stroke-width: 0.8; stroke-linecap: square"/>
   </g>
   <g id="line2d_27">
    <defs>
     <path id="m4ee300d6c8" d="M 0 1.5 
C 0.397805 1.5 0.77937 1.341951 1.06066 1.06066 
C 1.341951 0.77937 1.5 0.397805 1.5 0 
C 1.5 -0.397805 1.341951 -0.77937 1.06066 -1.06066 
C 0.77937 -1.341951 0.397805 -1.5 0 -1.5 
C -0.397805 -1.5 -0.77937 -1.341951 -1.06066 -1.06066 
C -1.341951 -0.77937 -1.5 -0.397805 -1.5 0 
C -1.5 0.397805 -1.341951 0.77937 -1.06066 1.06066 
C -0.77937 1.341951 -0.397805 1.5 0 1.5 
z
" style="stroke: #3d3d3d"/>
    </defs>
    <g clip-path="url(#p2bd2b844bf)">
     <use xlink:href="#m4ee300d6c8" x="58.757812" y="164.03049" style="fill-opacity: 0; stroke: #3d3d3d"/>
     <use xlink:href="#m4ee300d6c8" x="58.757812" y="166.112448" style="fill-opacity: 0; stroke: #3d3d3d"/>
     <use xlink:href="#m4ee300d6c8" x="58.757812" y="164.088004" style="fill-opacity: 0; stroke: #3d3d3d"/>
    </g>
   </g>
   <g id="patch_4">
    <path d="M 93.862812 177.490076 
L 123.952812 177.490076 
L 123.952812 159.068743 
L 93.862812 159.068743 
L 93.862812 177.490076 
z
" clip-path="url(#p2bd2b844bf)" style="fill: #3274a1; stroke: #3d3d3d; stroke-width: 0.8; stroke-linejoin: miter"/>
   </g>
   <g id="line2d_28">
    <path d="M 108.907812 177.490076 
L 108.907812 177.490076 
" clip-path="url(#p2bd2b844bf)" style="fill: none; stroke: #3d3d3d; stroke-width: 0.8"/>
   </g>
   <g id="line2d_29">
    <path d="M 108.907812 159.068743 
L 108.907812 155.447735 
" clip-path="url(#p2bd2b844bf)" style="fill: none; stroke: #3d3d3d; stroke-width: 0.8"/>
   </g>
   <g id="line2d_30">
    <path d="M 101.385312 177.490076 
L 116.430312 177.490076 
" clip-path="url(#p2bd2b844bf)" style="fill: none; stroke: #3d3d3d; stroke-width: 0.8; stroke-linecap: square"/>
   </g>
   <g id="line2d_31">
    <path d="M 101.385312 155.447735 
L 116.430312 155.447735 
" clip-path="url(#p2bd2b844bf)" style="fill: none; stroke: #3d3d3d; stroke-width: 0.8; stroke-linecap: square"/>
   </g>
   <g id="line2d_32"/>
   <g id="patch_5">
    <path d="M 144.012812 116.947743 
L 174.102812 116.947743 
L 174.102812 66.726223 
L 144.012812 66.726223 
L 144.012812 116.947743 
z
" clip-path="url(#p2bd2b844bf)" style="fill: #3a923a; stroke: #3d3d3d; stroke-width: 0.8; stroke-linejoin: miter"/>
   </g>
   <g id="line2d_33">
    <path d="M 159.057812 116.947743 
L 159.057812 141.668512 
" clip-path="url(#p2bd2b844bf)" style="fill: none; stroke: #3d3d3d; stroke-width: 0.8"/>
   </g>
   <g id="line2d_34">
    <path d="M 159.057812 66.726223 
L 159.057812 11.920909 
" clip-path="url(#p2bd2b844bf)" style="fill: none; stroke: #3d3d3d; stroke-width: 0.8"/>
   </g>
   <g id="line2d_35">
    <path d="M 151.535312 141.668512 
L 166.580312 141.668512 
" clip-path="url(#p2bd2b844bf)" style="fill: none; stroke: #3d3d3d; stroke-width: 0.8; stroke-linecap: square"/>
   </g>
   <g id="line2d_36">
    <path d="M 151.535312 11.920909 
L 166.580312 11.920909 
" clip-path="url(#p2bd2b844bf)" style="fill: none; stroke: #3d3d3d; stroke-width: 0.8; stroke-linecap: square"/>
   </g>
   <g id="line2d_37"/>
   <g id="patch_6">
    <path d="M 194.162812 178.339091 
L 224.252812 178.339091 
L 224.252812 177.490076 
L 194.162812 177.490076 
L 194.162812 178.339091 
z
" clip-path="url(#p2bd2b844bf)" style="fill: #7f7f7f; stroke: #3d3d3d; stroke-width: 0.8; stroke-linejoin: miter"/>
   </g>
   <g id="line2d_38">
    <path d="M 209.207812 178.339091 
L 209.207812 178.339091 
" clip-path="url(#p2bd2b844bf)" style="fill: none; stroke: #3d3d3d; stroke-width: 0.8"/>
   </g>
   <g id="line2d_39">
    <path d="M 209.207812 177.490076 
L 209.207812 177.342272 
" clip-path="url(#p2bd2b844bf)" style="fill: none; stroke: #3d3d3d; stroke-width: 0.8"/>
   </g>
   <g id="line2d_40">
    <path d="M 201.685312 178.339091 
L 216.730312 178.339091 
" clip-path="url(#p2bd2b844bf)" style="fill: none; stroke: #3d3d3d; stroke-width: 0.8; stroke-linecap: square"/>
   </g>
   <g id="line2d_41">
    <path d="M 201.685312 177.342272 
L 216.730312 177.342272 
" clip-path="url(#p2bd2b844bf)" style="fill: none; stroke: #3d3d3d; stroke-width: 0.8; stroke-linecap: square"/>
   </g>
   <g id="line2d_42"/>
   <g id="line2d_43">
    <path d="M 43.712813 177.490076 
L 73.802813 177.490076 
" clip-path="url(#p2bd2b844bf)" style="fill: none; stroke: #3d3d3d; stroke-width: 0.8"/>
   </g>
   <g id="line2d_44">
    <path d="M 93.862812 175.287025 
L 123.952812 175.287025 
" clip-path="url(#p2bd2b844bf)" style="fill: none; stroke: #3d3d3d; stroke-width: 0.8"/>
   </g>
   <g id="line2d_45">
    <path d="M 144.012812 86.50154 
L 174.102812 86.50154 
" clip-path="url(#p2bd2b844bf)" style="fill: none; stroke: #3d3d3d; stroke-width: 0.8"/>
   </g>
   <g id="line2d_46">
    <path d="M 194.162812 178.339091 
L 224.252812 178.339091 
" clip-path="url(#p2bd2b844bf)" style="fill: none; stroke: #3d3d3d; stroke-width: 0.8"/>
   </g>
   <g id="patch_7">
    <path d="M 33.682813 186.66 
L 33.682813 3.6 
" style="fill: none; stroke: #000000; stroke-width: 0.8; stroke-linejoin: miter; stroke-linecap: square"/>
   </g>
   <g id="patch_8">
    <path d="M 234.282812 186.66 
L 234.282812 3.6 
" style="fill: none; stroke: #000000; stroke-width: 0.8; stroke-linejoin: miter; stroke-linecap: square"/>
   </g>
   <g id="patch_9">
    <path d="M 33.682813 186.66 
L 234.282812 186.66 
" style="fill: none; stroke: #000000; stroke-width: 0.8; stroke-linejoin: miter; stroke-linecap: square"/>
   </g>
   <g id="patch_10">
    <path d="M 33.682813 3.6 
L 234.282812 3.6 
" style="fill: none; stroke: #000000; stroke-width: 0.8; stroke-linejoin: miter; stroke-linecap: square"/>
   </g>
   <g id="text_14">
    <text style="font-weight: 700; font-size: 10px; font-family: 'Times New Roman', 'Times', 'DejaVu Serif', serif; text-anchor: start" x="37.694813" y="19.387375" transform="rotate(-0 37.694813 19.387375)">(a)</text>
   </g>
  </g>
  <g id="axes_2">
   <g id="patch_11">
    <path d="M 284.822812 186.66 
L 485.422812 186.66 
L 485.422812 3.6 
L 284.822812 3.6 
z
" style="fill: #ffffff"/>
   </g>
   <g id="FillBetweenPolyCollection_1">
    <defs>
     <path id="md4c9e88cbe" d="M 311.22929 -39.811222 
L 308.566335 -39.811222 
L 308.21522 -39.994813 
L 307.795338 -40.178404 
L 307.300084 -40.361995 
L 306.724057 -40.545586 
L 306.063609 -40.729177 
L 305.317397 -40.912768 
L 304.486914 -41.09636 
L 303.576955 -41.279951 
L 302.59596 -41.463542 
L 301.556197 -41.647133 
L 300.473752 -41.830724 
L 299.368273 -42.014315 
L 298.262479 -42.197907 
L 297.181427 -42.381498 
L 296.151558 -42.565089 
L 295.199576 -42.74868 
L 294.351216 -42.932271 
L 293.629982 -43.115862 
L 293.05594 -43.299454 
L 292.644653 -43.483045 
L 292.40634 -43.666636 
L 292.345312 -43.850227 
L 292.459753 -44.033818 
L 292.741831 -44.217409 
L 293.178174 -44.401 
L 293.750628 -44.584592 
L 294.437285 -44.768183 
L 295.213671 -44.951774 
L 296.054033 -45.135365 
L 296.932614 -45.318956 
L 297.824856 -45.502547 
L 298.708441 -45.686139 
L 299.564118 -45.86973 
L 300.376285 -46.053321 
L 301.133311 -46.236912 
L 301.827597 -46.420503 
L 302.455404 -46.604094 
L 303.016486 -46.787686 
L 303.513571 -46.971277 
L 303.951738 -47.154868 
L 304.337751 -47.338459 
L 304.679387 -47.52205 
L 304.984801 -47.705641 
L 305.261969 -47.889232 
L 305.518221 -48.072824 
L 305.759886 -48.256415 
L 305.992049 -48.440006 
L 306.21842 -48.623597 
L 306.441312 -48.807188 
L 306.661698 -48.990779 
L 306.879347 -49.174371 
L 307.093016 -49.357962 
L 307.300671 -49.541553 
L 307.499729 -49.725144 
L 307.687305 -49.908735 
L 307.860441 -50.092326 
L 308.016318 -50.275918 
L 308.152433 -50.459509 
L 308.266748 -50.6431 
L 308.357795 -50.826691 
L 308.424748 -51.010282 
L 308.467462 -51.193873 
L 308.486475 -51.377464 
L 308.482988 -51.561056 
L 308.458822 -51.744647 
L 308.416349 -51.928238 
L 308.35842 -52.111829 
L 308.288272 -52.29542 
L 308.209433 -52.479011 
L 308.125615 -52.662603 
L 308.040612 -52.846194 
L 307.958185 -53.029785 
L 307.881955 -53.213376 
L 307.815297 -53.396967 
L 307.761235 -53.580558 
L 307.722348 -53.76415 
L 307.70069 -53.947741 
L 307.697723 -54.131332 
L 307.714272 -54.314923 
L 307.750504 -54.498514 
L 307.805931 -54.682105 
L 307.879444 -54.865696 
L 307.969368 -55.049288 
L 308.07355 -55.232879 
L 308.189458 -55.41647 
L 308.314301 -55.600061 
L 308.445154 -55.783652 
L 308.579084 -55.967243 
L 308.713271 -56.150835 
L 308.845112 -56.334426 
L 308.972307 -56.518017 
L 309.092925 -56.701608 
L 309.205442 -56.885199 
L 309.308756 -57.06879 
L 309.40218 -57.252381 
L 309.485412 -57.435973 
L 309.558491 -57.619564 
L 309.621748 -57.803155 
L 309.675739 -57.986746 
L 310.119886 -57.986746 
L 310.119886 -57.986746 
L 310.173877 -57.803155 
L 310.237134 -57.619564 
L 310.310213 -57.435973 
L 310.393445 -57.252381 
L 310.486869 -57.06879 
L 310.590183 -56.885199 
L 310.7027 -56.701608 
L 310.823318 -56.518017 
L 310.950513 -56.334426 
L 311.082354 -56.150835 
L 311.216541 -55.967243 
L 311.350471 -55.783652 
L 311.481324 -55.600061 
L 311.606167 -55.41647 
L 311.722075 -55.232879 
L 311.826257 -55.049288 
L 311.916181 -54.865696 
L 311.989694 -54.682105 
L 312.045121 -54.498514 
L 312.081353 -54.314923 
L 312.097902 -54.131332 
L 312.094935 -53.947741 
L 312.073277 -53.76415 
L 312.03439 -53.580558 
L 311.980328 -53.396967 
L 311.91367 -53.213376 
L 311.83744 -53.029785 
L 311.755013 -52.846194 
L 311.67001 -52.662603 
L 311.586192 -52.479011 
L 311.507353 -52.29542 
L 311.437205 -52.111829 
L 311.379276 -51.928238 
L 311.336803 -51.744647 
L 311.312637 -51.561056 
L 311.30915 -51.377464 
L 311.328163 -51.193873 
L 311.370877 -51.010282 
L 311.43783 -50.826691 
L 311.528877 -50.6431 
L 311.643192 -50.459509 
L 311.779307 -50.275918 
L 311.935184 -50.092326 
L 312.10832 -49.908735 
L 312.295896 -49.725144 
L 312.494954 -49.541553 
L 312.702609 -49.357962 
L 312.916278 -49.174371 
L 313.133927 -48.990779 
L 313.354313 -48.807188 
L 313.577205 -48.623597 
L 313.803576 -48.440006 
L 314.035739 -48.256415 
L 314.277404 -48.072824 
L 314.533656 -47.889232 
L 314.810824 -47.705641 
L 315.116238 -47.52205 
L 315.457874 -47.338459 
L 315.843887 -47.154868 
L 316.282054 -46.971277 
L 316.779139 -46.787686 
L 317.340221 -46.604094 
L 317.968028 -46.420503 
L 318.662314 -46.236912 
L 319.41934 -46.053321 
L 320.231507 -45.86973 
L 321.087184 -45.686139 
L 321.970769 -45.502547 
L 322.863011 -45.318956 
L 323.741592 -45.135365 
L 324.581954 -44.951774 
L 325.35834 -44.768183 
L 326.044997 -44.584592 
L 326.617451 -44.401 
L 327.053794 -44.217409 
L 327.335872 -44.033818 
L 327.450312 -43.850227 
L 327.389285 -43.666636 
L 327.150972 -43.483045 
L 326.739685 -43.299454 
L 326.165643 -43.115862 
L 325.444409 -42.932271 
L 324.596049 -42.74868 
L 323.644067 -42.565089 
L 322.614198 -42.381498 
L 321.533146 -42.197907 
L 320.427352 -42.014315 
L 319.321873 -41.830724 
L 318.239428 -41.647133 
L 317.199665 -41.463542 
L 316.21867 -41.279951 
L 315.308711 -41.09636 
L 314.478228 -40.912768 
L 313.732016 -40.729177 
L 313.071568 -40.545586 
L 312.495541 -40.361995 
L 312.000287 -40.178404 
L 311.580405 -39.994813 
L 311.22929 -39.811222 
z
" style="stroke: #3d3d3d; stroke-width: 0.8"/>
    </defs>
    <g clip-path="url(#pffb109f888)">
     <use xlink:href="#md4c9e88cbe" x="0" y="215.036094" style="fill: #c03d3e; stroke: #3d3d3d; stroke-width: 0.8"/>
    </g>
   </g>
   <g id="FillBetweenPolyCollection_2">
    <defs>
     <path id="mcd303ee982" d="M 362.014525 -36.697003 
L 358.0811 -36.697003 
L 357.693055 -37.01954 
L 357.250597 -37.342078 
L 356.751065 -37.664616 
L 356.192745 -37.987153 
L 355.575096 -38.309691 
L 354.898948 -38.632229 
L 354.166691 -38.954766 
L 353.382416 -39.277304 
L 352.552007 -39.599841 
L 351.683173 -39.922379 
L 350.78541 -40.244917 
L 349.869884 -40.567454 
L 348.949234 -40.889992 
L 348.037302 -41.212529 
L 347.14879 -41.535067 
L 346.298852 -41.857605 
L 345.502652 -42.180142 
L 344.774889 -42.50268 
L 344.129313 -42.825218 
L 343.578273 -43.147755 
L 343.132284 -43.470293 
L 342.799674 -43.79283 
L 342.586291 -44.115368 
L 342.495312 -44.437906 
L 342.527149 -44.760443 
L 342.679451 -45.082981 
L 342.947213 -45.405518 
L 343.322974 -45.728056 
L 343.797095 -46.050594 
L 344.358099 -46.373131 
L 344.993058 -46.695669 
L 345.688002 -47.018207 
L 346.428339 -47.340744 
L 347.199253 -47.663282 
L 347.986085 -47.985819 
L 348.774663 -48.308357 
L 349.551589 -48.630895 
L 350.304465 -48.953432 
L 351.022073 -49.27597 
L 351.694489 -49.598507 
L 352.313163 -49.921045 
L 352.870942 -50.243583 
L 353.362076 -50.56612 
L 353.782186 -50.888658 
L 354.128228 -51.211196 
L 354.398439 -51.533733 
L 354.592286 -51.856271 
L 354.710417 -52.178808 
L 354.754606 -52.501346 
L 354.727717 -52.823884 
L 354.633653 -53.146421 
L 354.477317 -53.468959 
L 354.264558 -53.791496 
L 354.00211 -54.114034 
L 353.697522 -54.436572 
L 353.359058 -54.759109 
L 352.995588 -55.081647 
L 352.616443 -55.404185 
L 352.231264 -55.726722 
L 351.849811 -56.04926 
L 351.481768 -56.371797 
L 351.136534 -56.694335 
L 350.823006 -57.016873 
L 350.549366 -57.33941 
L 350.322881 -57.661948 
L 350.149721 -57.984485 
L 350.034808 -58.307023 
L 349.981698 -58.629561 
L 349.992503 -58.952098 
L 350.06786 -59.274636 
L 350.206945 -59.597174 
L 350.407531 -59.919711 
L 350.666096 -60.242249 
L 350.97796 -60.564786 
L 351.337459 -60.887324 
L 351.738147 -61.209862 
L 352.173004 -61.532399 
L 352.634663 -61.854937 
L 353.115625 -62.177474 
L 353.608467 -62.500012 
L 354.106038 -62.82255 
L 354.601619 -63.145087 
L 355.089073 -63.467625 
L 355.562943 -63.790163 
L 356.018539 -64.1127 
L 356.451978 -64.435238 
L 356.860198 -64.757775 
L 357.240949 -65.080313 
L 357.592756 -65.402851 
L 357.91486 -65.725388 
L 358.20715 -66.047926 
L 358.470081 -66.370463 
L 358.704583 -66.693001 
L 358.911974 -67.015539 
L 359.093869 -67.338076 
L 359.252096 -67.660614 
L 359.38862 -67.983152 
L 359.505471 -68.305689 
L 359.604687 -68.628227 
L 360.490938 -68.628227 
L 360.490938 -68.628227 
L 360.590154 -68.305689 
L 360.707005 -67.983152 
L 360.843529 -67.660614 
L 361.001756 -67.338076 
L 361.183651 -67.015539 
L 361.391042 -66.693001 
L 361.625544 -66.370463 
L 361.888475 -66.047926 
L 362.180765 -65.725388 
L 362.502869 -65.402851 
L 362.854676 -65.080313 
L 363.235427 -64.757775 
L 363.643647 -64.435238 
L 364.077086 -64.1127 
L 364.532682 -63.790163 
L 365.006552 -63.467625 
L 365.494006 -63.145087 
L 365.989587 -62.82255 
L 366.487158 -62.500012 
L 366.98 -62.177474 
L 367.460962 -61.854937 
L 367.922621 -61.532399 
L 368.357478 -61.209862 
L 368.758166 -60.887324 
L 369.117665 -60.564786 
L 369.429529 -60.242249 
L 369.688094 -59.919711 
L 369.88868 -59.597174 
L 370.027765 -59.274636 
L 370.103122 -58.952098 
L 370.113927 -58.629561 
L 370.060817 -58.307023 
L 369.945904 -57.984485 
L 369.772744 -57.661948 
L 369.546259 -57.33941 
L 369.272619 -57.016873 
L 368.959091 -56.694335 
L 368.613857 -56.371797 
L 368.245814 -56.04926 
L 367.864361 -55.726722 
L 367.479182 -55.404185 
L 367.100037 -55.081647 
L 366.736567 -54.759109 
L 366.398103 -54.436572 
L 366.093515 -54.114034 
L 365.831067 -53.791496 
L 365.618308 -53.468959 
L 365.461972 -53.146421 
L 365.367908 -52.823884 
L 365.341019 -52.501346 
L 365.385208 -52.178808 
L 365.503339 -51.856271 
L 365.697186 -51.533733 
L 365.967397 -51.211196 
L 366.313439 -50.888658 
L 366.733549 -50.56612 
L 367.224683 -50.243583 
L 367.782462 -49.921045 
L 368.401136 -49.598507 
L 369.073552 -49.27597 
L 369.79116 -48.953432 
L 370.544036 -48.630895 
L 371.320962 -48.308357 
L 372.10954 -47.985819 
L 372.896372 -47.663282 
L 373.667286 -47.340744 
L 374.407623 -47.018207 
L 375.102567 -46.695669 
L 375.737526 -46.373131 
L 376.29853 -46.050594 
L 376.772651 -45.728056 
L 377.148412 -45.405518 
L 377.416174 -45.082981 
L 377.568476 -44.760443 
L 377.600312 -44.437906 
L 377.509334 -44.115368 
L 377.295951 -43.79283 
L 376.963341 -43.470293 
L 376.517352 -43.147755 
L 375.966312 -42.825218 
L 375.320736 -42.50268 
L 374.592973 -42.180142 
L 373.796773 -41.857605 
L 372.946835 -41.535067 
L 372.058323 -41.212529 
L 371.146391 -40.889992 
L 370.225741 -40.567454 
L 369.310215 -40.244917 
L 368.412452 -39.922379 
L 367.543618 -39.599841 
L 366.713209 -39.277304 
L 365.928934 -38.954766 
L 365.196677 -38.632229 
L 364.520529 -38.309691 
L 363.90288 -37.987153 
L 363.34456 -37.664616 
L 362.845028 -37.342078 
L 362.40257 -37.01954 
L 362.014525 -36.697003 
z
" style="stroke: #3d3d3d; stroke-width: 0.8"/>
    </defs>
    <g clip-path="url(#pffb109f888)">
     <use xlink:href="#mcd303ee982" x="0" y="215.036094" style="fill: #3274a1; stroke: #3d3d3d; stroke-width: 0.8"/>
    </g>
   </g>
   <g id="FillBetweenPolyCollection_3">
    <defs>
     <path id="m4d5741714e" d="M 410.671204 -45.343554 
L 409.724421 -45.343554 
L 409.578456 -46.937207 
L 409.397584 -48.53086 
L 409.176746 -50.124513 
L 408.911118 -51.718165 
L 408.596428 -53.311818 
L 408.229318 -54.905471 
L 407.807722 -56.499124 
L 407.331238 -58.092777 
L 406.801456 -59.68643 
L 406.222209 -61.280082 
L 405.599708 -62.873735 
L 404.942525 -64.467388 
L 404.261414 -66.061041 
L 403.568941 -67.654694 
L 402.87894 -69.248347 
L 402.20582 -70.841999 
L 401.56375 -72.435652 
L 400.965796 -74.029305 
L 400.423064 -75.622958 
L 399.943919 -77.216611 
L 399.53336 -78.810264 
L 399.192604 -80.403916 
L 398.918922 -81.997569 
L 398.705749 -83.591222 
L 398.543076 -85.184875 
L 398.418092 -86.778528 
L 398.316027 -88.372181 
L 398.221143 -89.965833 
L 398.117793 -91.559486 
L 397.991468 -93.153139 
L 397.829759 -94.746792 
L 397.623174 -96.340445 
L 397.365743 -97.934098 
L 397.055391 -99.52775 
L 396.69406 -101.121403 
L 396.287574 -102.715056 
L 395.845281 -104.308709 
L 395.379499 -105.902362 
L 394.904805 -107.496015 
L 394.437236 -109.089667 
L 393.993445 -110.68332 
L 393.589856 -112.276973 
L 393.241895 -113.870626 
L 392.963305 -115.464279 
L 392.765588 -117.057932 
L 392.657605 -118.651584 
L 392.645312 -120.245237 
L 392.731663 -121.83889 
L 392.916631 -123.432543 
L 393.197369 -125.026196 
L 393.568455 -126.619849 
L 394.02222 -128.213501 
L 394.549131 -129.807154 
L 395.138213 -131.400807 
L 395.777483 -132.99446 
L 396.454403 -134.588113 
L 397.156318 -136.181766 
L 397.870881 -137.775418 
L 398.586447 -139.369071 
L 399.29242 -140.962724 
L 399.979548 -142.556377 
L 400.640145 -144.15003 
L 401.268236 -145.743683 
L 401.859609 -147.337335 
L 402.411786 -148.930988 
L 402.923906 -150.524641 
L 403.396537 -152.118294 
L 403.831439 -153.711947 
L 404.231284 -155.3056 
L 404.599372 -156.899252 
L 404.939355 -158.492905 
L 405.254993 -160.086558 
L 405.549944 -161.680211 
L 405.82761 -163.273864 
L 406.091032 -164.867517 
L 406.342826 -166.461169 
L 406.585156 -168.054822 
L 406.819743 -169.648475 
L 407.047881 -171.242128 
L 407.270465 -172.835781 
L 407.488022 -174.429434 
L 407.700746 -176.023086 
L 407.908527 -177.616739 
L 408.110987 -179.210392 
L 408.307515 -180.804045 
L 408.497316 -182.397698 
L 408.679467 -183.991351 
L 408.852974 -185.585003 
L 409.016841 -187.178656 
L 409.170141 -188.772309 
L 409.312076 -190.365962 
L 409.442035 -191.959615 
L 409.559635 -193.553268 
L 409.664747 -195.14692 
L 409.7575 -196.740573 
L 409.838273 -198.334226 
L 409.907667 -199.927879 
L 409.966469 -201.521532 
L 410.0156 -203.115185 
L 410.380025 -203.115185 
L 410.380025 -203.115185 
L 410.429156 -201.521532 
L 410.487958 -199.927879 
L 410.557352 -198.334226 
L 410.638125 -196.740573 
L 410.730878 -195.14692 
L 410.83599 -193.553268 
L 410.95359 -191.959615 
L 411.083549 -190.365962 
L 411.225484 -188.772309 
L 411.378784 -187.178656 
L 411.542651 -185.585003 
L 411.716158 -183.991351 
L 411.898309 -182.397698 
L 412.08811 -180.804045 
L 412.284638 -179.210392 
L 412.487098 -177.616739 
L 412.694879 -176.023086 
L 412.907603 -174.429434 
L 413.12516 -172.835781 
L 413.347744 -171.242128 
L 413.575882 -169.648475 
L 413.810469 -168.054822 
L 414.052799 -166.461169 
L 414.304593 -164.867517 
L 414.568015 -163.273864 
L 414.845681 -161.680211 
L 415.140632 -160.086558 
L 415.45627 -158.492905 
L 415.796253 -156.899252 
L 416.164341 -155.3056 
L 416.564186 -153.711947 
L 416.999088 -152.118294 
L 417.471719 -150.524641 
L 417.983839 -148.930988 
L 418.536016 -147.337335 
L 419.127389 -145.743683 
L 419.75548 -144.15003 
L 420.416077 -142.556377 
L 421.103205 -140.962724 
L 421.809178 -139.369071 
L 422.524744 -137.775418 
L 423.239307 -136.181766 
L 423.941222 -134.588113 
L 424.618142 -132.99446 
L 425.257412 -131.400807 
L 425.846494 -129.807154 
L 426.373405 -128.213501 
L 426.82717 -126.619849 
L 427.198256 -125.026196 
L 427.478994 -123.432543 
L 427.663962 -121.83889 
L 427.750312 -120.245237 
L 427.73802 -118.651584 
L 427.630037 -117.057932 
L 427.43232 -115.464279 
L 427.15373 -113.870626 
L 426.805769 -112.276973 
L 426.40218 -110.68332 
L 425.958389 -109.089667 
L 425.49082 -107.496015 
L 425.016126 -105.902362 
L 424.550344 -104.308709 
L 424.108051 -102.715056 
L 423.701565 -101.121403 
L 423.340234 -99.52775 
L 423.029882 -97.934098 
L 422.772451 -96.340445 
L 422.565866 -94.746792 
L 422.404157 -93.153139 
L 422.277832 -91.559486 
L 422.174482 -89.965833 
L 422.079598 -88.372181 
L 421.977533 -86.778528 
L 421.852549 -85.184875 
L 421.689876 -83.591222 
L 421.476703 -81.997569 
L 421.203021 -80.403916 
L 420.862265 -78.810264 
L 420.451706 -77.216611 
L 419.972561 -75.622958 
L 419.429829 -74.029305 
L 418.831875 -72.435652 
L 418.189805 -70.841999 
L 417.516685 -69.248347 
L 416.826684 -67.654694 
L 416.134211 -66.061041 
L 415.4531 -64.467388 
L 414.795917 -62.873735 
L 414.173416 -61.280082 
L 413.594169 -59.68643 
L 413.064387 -58.092777 
L 412.587903 -56.499124 
L 412.166307 -54.905471 
L 411.799197 -53.311818 
L 411.484507 -51.718165 
L 411.218879 -50.124513 
L 410.998041 -48.53086 
L 410.817169 -46.937207 
L 410.671204 -45.343554 
z
" style="stroke: #3d3d3d; stroke-width: 0.8"/>
    </defs>
    <g clip-path="url(#pffb109f888)">
     <use xlink:href="#m4d5741714e" x="0" y="215.036094" style="fill: #3a923a; stroke: #3d3d3d; stroke-width: 0.8"/>
    </g>
   </g>
   <g id="FillBetweenPolyCollection_4">
    <defs>
     <path id="mbd9a8d8e8a" d="M 462.669909 -42.85279 
L 458.025716 -42.85279 
L 457.586688 -42.867624 
L 457.090007 -42.882459 
L 456.533664 -42.897293 
L 455.916792 -42.912127 
L 455.239896 -42.926961 
L 454.505054 -42.941795 
L 453.716086 -42.956629 
L 452.878684 -42.971464 
L 452.00047 -42.986298 
L 451.090993 -43.001132 
L 450.161641 -43.015966 
L 449.225477 -43.0308 
L 448.296974 -43.045634 
L 447.391687 -43.060469 
L 446.525839 -43.075303 
L 445.715856 -43.090137 
L 444.977852 -43.104971 
L 444.327105 -43.119805 
L 443.777528 -43.134639 
L 443.341174 -43.149474 
L 443.027793 -43.164308 
L 442.844461 -43.179142 
L 442.795312 -43.193976 
L 442.881373 -43.20881 
L 443.100511 -43.223645 
L 443.447511 -43.238479 
L 443.914261 -43.253313 
L 444.490041 -43.268147 
L 445.161902 -43.282981 
L 445.915117 -43.297815 
L 446.733667 -43.31265 
L 447.600759 -43.327484 
L 448.499336 -43.342318 
L 449.412552 -43.357152 
L 450.324218 -43.371986 
L 451.21917 -43.38682 
L 452.083577 -43.401655 
L 452.905158 -43.416489 
L 453.673334 -43.431323 
L 454.379292 -43.446157 
L 455.015992 -43.460991 
L 455.578107 -43.475825 
L 456.06193 -43.49066 
L 456.46524 -43.505494 
L 456.787166 -43.520328 
L 457.028032 -43.535162 
L 457.189219 -43.549996 
L 457.273043 -43.56483 
L 457.282647 -43.579665 
L 457.221922 -43.594499 
L 457.095449 -43.609333 
L 456.908455 -43.624167 
L 456.666793 -43.639001 
L 456.376917 -43.653836 
L 456.045861 -43.66867 
L 455.681213 -43.683504 
L 455.291061 -43.698338 
L 454.883927 -43.713172 
L 454.468669 -43.728006 
L 454.054356 -43.742841 
L 453.650115 -43.757675 
L 453.264954 -43.772509 
L 452.907564 -43.787343 
L 452.586113 -43.802177 
L 452.308037 -43.817011 
L 452.079837 -43.831846 
L 451.906901 -43.84668 
L 451.793348 -43.861514 
L 451.741913 -43.876348 
L 451.753876 -43.891182 
L 451.829038 -43.906016 
L 451.965752 -43.920851 
L 452.160999 -43.935685 
L 452.410515 -43.950519 
L 452.708953 -43.965353 
L 453.050083 -43.980187 
L 453.427014 -43.995021 
L 453.832426 -44.009856 
L 454.258805 -44.02469 
L 454.698675 -44.039524 
L 455.144807 -44.054358 
L 455.590404 -44.069192 
L 456.029261 -44.084027 
L 456.455884 -44.098861 
L 456.865574 -44.113695 
L 457.254478 -44.128529 
L 457.619604 -44.143363 
L 457.9588 -44.158197 
L 458.270714 -44.173032 
L 458.554727 -44.187866 
L 458.810869 -44.2027 
L 459.039731 -44.217534 
L 459.242363 -44.232368 
L 459.420177 -44.247202 
L 459.574853 -44.262037 
L 459.70825 -44.276871 
L 459.822324 -44.291705 
L 459.919065 -44.306539 
L 460.000433 -44.321373 
L 460.695192 -44.321373 
L 460.695192 -44.321373 
L 460.77656 -44.306539 
L 460.873301 -44.291705 
L 460.987375 -44.276871 
L 461.120772 -44.262037 
L 461.275448 -44.247202 
L 461.453262 -44.232368 
L 461.655894 -44.217534 
L 461.884756 -44.2027 
L 462.140898 -44.187866 
L 462.424911 -44.173032 
L 462.736825 -44.158197 
L 463.076021 -44.143363 
L 463.441147 -44.128529 
L 463.830051 -44.113695 
L 464.239741 -44.098861 
L 464.666364 -44.084027 
L 465.105221 -44.069192 
L 465.550818 -44.054358 
L 465.99695 -44.039524 
L 466.43682 -44.02469 
L 466.863199 -44.009856 
L 467.268611 -43.995021 
L 467.645542 -43.980187 
L 467.986672 -43.965353 
L 468.28511 -43.950519 
L 468.534626 -43.935685 
L 468.729873 -43.920851 
L 468.866587 -43.906016 
L 468.941749 -43.891182 
L 468.953712 -43.876348 
L 468.902277 -43.861514 
L 468.788724 -43.84668 
L 468.615788 -43.831846 
L 468.387588 -43.817011 
L 468.109512 -43.802177 
L 467.788061 -43.787343 
L 467.430671 -43.772509 
L 467.04551 -43.757675 
L 466.641269 -43.742841 
L 466.226956 -43.728006 
L 465.811698 -43.713172 
L 465.404564 -43.698338 
L 465.014412 -43.683504 
L 464.649764 -43.66867 
L 464.318708 -43.653836 
L 464.028832 -43.639001 
L 463.78717 -43.624167 
L 463.600176 -43.609333 
L 463.473703 -43.594499 
L 463.412978 -43.579665 
L 463.422582 -43.56483 
L 463.506406 -43.549996 
L 463.667593 -43.535162 
L 463.908459 -43.520328 
L 464.230385 -43.505494 
L 464.633695 -43.49066 
L 465.117518 -43.475825 
L 465.679633 -43.460991 
L 466.316333 -43.446157 
L 467.022291 -43.431323 
L 467.790467 -43.416489 
L 468.612048 -43.401655 
L 469.476455 -43.38682 
L 470.371407 -43.371986 
L 471.283073 -43.357152 
L 472.196289 -43.342318 
L 473.094866 -43.327484 
L 473.961958 -43.31265 
L 474.780508 -43.297815 
L 475.533723 -43.282981 
L 476.205584 -43.268147 
L 476.781364 -43.253313 
L 477.248114 -43.238479 
L 477.595114 -43.223645 
L 477.814252 -43.20881 
L 477.900312 -43.193976 
L 477.851164 -43.179142 
L 477.667832 -43.164308 
L 477.354451 -43.149474 
L 476.918097 -43.134639 
L 476.36852 -43.119805 
L 475.717773 -43.104971 
L 474.979769 -43.090137 
L 474.169786 -43.075303 
L 473.303938 -43.060469 
L 472.398651 -43.045634 
L 471.470148 -43.0308 
L 470.533984 -43.015966 
L 469.604632 -43.001132 
L 468.695155 -42.986298 
L 467.816941 -42.971464 
L 466.979539 -42.956629 
L 466.190571 -42.941795 
L 465.455729 -42.926961 
L 464.778833 -42.912127 
L 464.161961 -42.897293 
L 463.605618 -42.882459 
L 463.108937 -42.867624 
L 462.669909 -42.85279 
z
" style="stroke: #3d3d3d; stroke-width: 0.8"/>
    </defs>
    <g clip-path="url(#pffb109f888)">
     <use xlink:href="#mbd9a8d8e8a" x="0" y="215.036094" style="fill: #7f7f7f; stroke: #3d3d3d; stroke-width: 0.8"/>
    </g>
   </g>
   <g id="matplotlib.axis_3">
    <g id="xtick_5">
     <g id="line2d_47">
      <g>
       <use xlink:href="#m594a11d138" x="309.897812" y="186.66" style="stroke: #000000; stroke-width: 0.6"/>
      </g>
     </g>
     <g id="line2d_48">
      <g>
       <use xlink:href="#m5beda81783" x="309.897812" y="3.6" style="stroke: #000000; stroke-width: 0.6"/>
      </g>
     </g>
     <g id="text_15">
      <text style="font-size: 9px; font-family: 'Times New Roman', 'Times', 'DejaVu Serif', serif; text-anchor: middle" x="309.897812" y="196.409375" transform="rotate(-0 309.897812 196.409375)">MMAS</text>
     </g>
    </g>
    <g id="xtick_6">
     <g id="line2d_49">
      <g>
       <use xlink:href="#m594a11d138" x="360.047812" y="186.66" style="stroke: #000000; stroke-width: 0.6"/>
      </g>
     </g>
     <g id="line2d_50">
      <g>
       <use xlink:href="#m5beda81783" x="360.047812" y="3.6" style="stroke: #000000; stroke-width: 0.6"/>
      </g>
     </g>
     <g id="text_16">
      <text style="font-size: 9px; font-family: 'Times New Roman', 'Times', 'DejaVu Serif', serif; text-anchor: middle" x="360.047812" y="196.409375" transform="rotate(-0 360.047812 196.409375)">ACS</text>
     </g>
    </g>
    <g id="xtick_7">
     <g id="line2d_51">
      <g>
       <use xlink:href="#m594a11d138" x="410.197812" y="186.66" style="stroke: #000000; stroke-width: 0.6"/>
      </g>
     </g>
     <g id="line2d_52">
      <g>
       <use xlink:href="#m5beda81783" x="410.197812" y="3.6" style="stroke: #000000; stroke-width: 0.6"/>
      </g>
     </g>
     <g id="text_17">
      <text style="font-size: 9px; font-family: 'Times New Roman', 'Times', 'DejaVu Serif', serif; text-anchor: middle" x="410.197812" y="196.409375" transform="rotate(-0 410.197812 196.409375)">GA</text>
     </g>
    </g>
    <g id="xtick_8">
     <g id="line2d_53">
      <g>
       <use xlink:href="#m594a11d138" x="460.347812" y="186.66" style="stroke: #000000; stroke-width: 0.6"/>
      </g>
     </g>
     <g id="line2d_54">
      <g>
       <use xlink:href="#m5beda81783" x="460.347812" y="3.6" style="stroke: #000000; stroke-width: 0.6"/>
      </g>
     </g>
     <g id="text_18">
      <text style="font-size: 9px; font-family: 'Times New Roman', 'Times', 'DejaVu Serif', serif; text-anchor: middle" x="460.347812" y="196.409375" transform="rotate(-0 460.347812 196.409375)">SA</text>
     </g>
    </g>
    <g id="text_19">
     <text style="font-size: 10px; font-family: 'Times New Roman', 'Times', 'DejaVu Serif', serif; text-anchor: middle" x="385.122813" y="209.278281" transform="rotate(-0 385.122813 209.278281)">Algorithm</text>
    </g>
   </g>
   <g id="matplotlib.axis_4">
    <g id="ytick_8">
     <g id="line2d_55">
      <g>
       <use xlink:href="#mf95208fe2c" x="284.822812" y="186.425726" style="stroke: #000000; stroke-width: 0.6"/>
      </g>
     </g>
     <g id="line2d_56">
      <g>
       <use xlink:href="#m709f6c06e9" x="485.422812" y="186.425726" style="stroke: #000000; stroke-width: 0.6"/>
      </g>
     </g>
     <g id="text_20">
      <text style="font-size: 9px; font-family: 'Times New Roman', 'Times', 'DejaVu Serif', serif; text-anchor: end" x="281.322812" y="189.550414" transform="rotate(-0 281.322812 189.550414)">280</text>
     </g>
    </g>
    <g id="ytick_9">
     <g id="line2d_57">
      <g>
       <use xlink:href="#mf95208fe2c" x="284.822812" y="147.667151" style="stroke: #000000; stroke-width: 0.6"/>
      </g>
     </g>
     <g id="line2d_58">
      <g>
       <use xlink:href="#m709f6c06e9" x="485.422812" y="147.667151" style="stroke: #000000; stroke-width: 0.6"/>
      </g>
     </g>
     <g id="text_21">
      <text style="font-size: 9px; font-family: 'Times New Roman', 'Times', 'DejaVu Serif', serif; text-anchor: end" x="281.322812" y="150.791839" transform="rotate(-0 281.322812 150.791839)">290</text>
     </g>
    </g>
    <g id="ytick_10">
     <g id="line2d_59">
      <g>
       <use xlink:href="#mf95208fe2c" x="284.822812" y="108.908576" style="stroke: #000000; stroke-width: 0.6"/>
      </g>
     </g>
     <g id="line2d_60">
      <g>
       <use xlink:href="#m709f6c06e9" x="485.422812" y="108.908576" style="stroke: #000000; stroke-width: 0.6"/>
      </g>
     </g>
     <g id="text_22">
      <text style="font-size: 9px; font-family: 'Times New Roman', 'Times', 'DejaVu Serif', serif; text-anchor: end" x="281.322812" y="112.033263" transform="rotate(-0 281.322812 112.033263)">300</text>
     </g>
    </g>
    <g id="ytick_11">
     <g id="line2d_61">
      <g>
       <use xlink:href="#mf95208fe2c" x="284.822812" y="70.150001" style="stroke: #000000; stroke-width: 0.6"/>
      </g>
     </g>
     <g id="line2d_62">
      <g>
       <use xlink:href="#m709f6c06e9" x="485.422812" y="70.150001" style="stroke: #000000; stroke-width: 0.6"/>
      </g>
     </g>
     <g id="text_23">
      <text style="font-size: 9px; font-family: 'Times New Roman', 'Times', 'DejaVu Serif', serif; text-anchor: end" x="281.322812" y="73.274688" transform="rotate(-0 281.322812 73.274688)">310</text>
     </g>
    </g>
    <g id="ytick_12">
     <g id="line2d_63">
      <g>
       <use xlink:href="#mf95208fe2c" x="284.822812" y="31.391425" style="stroke: #000000; stroke-width: 0.6"/>
      </g>
     </g>
     <g id="line2d_64">
      <g>
       <use xlink:href="#m709f6c06e9" x="485.422812" y="31.391425" style="stroke: #000000; stroke-width: 0.6"/>
      </g>
     </g>
     <g id="text_24">
      <text style="font-size: 9px; font-family: 'Times New Roman', 'Times', 'DejaVu Serif', serif; text-anchor: end" x="281.322812" y="34.516113" transform="rotate(-0 281.322812 34.516113)">320</text>
     </g>
    </g>
    <g id="text_25">
     <text style="font-size: 10px; font-family: 'Times New Roman', 'Times', 'DejaVu Serif', serif; text-anchor: middle" x="261.68375" y="95.13" transform="rotate(-90 261.68375 95.13)">Total Route Distance (km)</text>
    </g>
   </g>
   <g id="line2d_65">
    <path d="M 292.3557 171.169202 
L 327.439925 171.169202 
" clip-path="url(#pffb109f888)" style="fill: none; stroke-dasharray: 1,0.6; stroke-dashoffset: 0; stroke: #3d3d3d; stroke-width: 0.8"/>
   </g>
   <g id="line2d_66">
    <path d="M 292.3557 171.169202 
L 327.439925 171.169202 
" clip-path="url(#pffb109f888)" style="fill: none; stroke-dasharray: 2,0.8; stroke-dashoffset: 0; stroke: #3d3d3d; stroke-width: 0.8"/>
   </g>
   <g id="line2d_67">
    <path d="M 300.475503 168.958711 
L 319.320122 168.958711 
" clip-path="url(#pffb109f888)" style="fill: none; stroke-dasharray: 1,0.6; stroke-dashoffset: 0; stroke: #3d3d3d; stroke-width: 0.8"/>
   </g>
   <g id="line2d_68">
    <path d="M 342.750677 171.169202 
L 377.344948 171.169202 
" clip-path="url(#pffb109f888)" style="fill: none; stroke-dasharray: 1,0.6; stroke-dashoffset: 0; stroke: #3d3d3d; stroke-width: 0.8"/>
   </g>
   <g id="line2d_69">
    <path d="M 343.20302 169.411002 
L 376.892605 169.411002 
" clip-path="url(#pffb109f888)" style="fill: none; stroke-dasharray: 2,0.8; stroke-dashoffset: 0; stroke: #3d3d3d; stroke-width: 0.8"/>
   </g>
   <g id="line2d_70">
    <path d="M 349.991752 156.467592 
L 370.103873 156.467592 
" clip-path="url(#pffb109f888)" style="fill: none; stroke-dasharray: 1,0.6; stroke-dashoffset: 0; stroke: #3d3d3d; stroke-width: 0.8"/>
   </g>
   <g id="line2d_71">
    <path d="M 398.068271 122.851865 
L 422.327354 122.851865 
" clip-path="url(#pffb109f888)" style="fill: none; stroke-dasharray: 1,0.6; stroke-dashoffset: 0; stroke: #3d3d3d; stroke-width: 0.8"/>
   </g>
   <g id="line2d_72">
    <path d="M 392.836968 98.553505 
L 427.558657 98.553505 
" clip-path="url(#pffb109f888)" style="fill: none; stroke-dasharray: 2,0.8; stroke-dashoffset: 0; stroke: #3d3d3d; stroke-width: 0.8"/>
   </g>
   <g id="line2d_73">
    <path d="M 395.484783 82.771314 
L 424.910842 82.771314 
" clip-path="url(#pffb109f888)" style="fill: none; stroke-dasharray: 1,0.6; stroke-dashoffset: 0; stroke: #3d3d3d; stroke-width: 0.8"/>
   </g>
   <g id="line2d_74">
    <path d="M 442.81076 171.84678 
L 477.884865 171.84678 
" clip-path="url(#pffb109f888)" style="fill: none; stroke-dasharray: 1,0.6; stroke-dashoffset: 0; stroke: #3d3d3d; stroke-width: 0.8"/>
   </g>
   <g id="line2d_75">
    <path d="M 442.81076 171.84678 
L 477.884865 171.84678 
" clip-path="url(#pffb109f888)" style="fill: none; stroke-dasharray: 2,0.8; stroke-dashoffset: 0; stroke: #3d3d3d; stroke-width: 0.8"/>
   </g>
   <g id="line2d_76">
    <path d="M 451.774702 171.169202 
L 468.920923 171.169202 
" clip-path="url(#pffb109f888)" style="fill: none; stroke-dasharray: 1,0.6; stroke-dashoffset: 0; stroke: #3d3d3d; stroke-width: 0.8"/>
   </g>
   <g id="patch_12">
    <path d="M 284.822812 186.66 
L 284.822812 3.6 
" style="fill: none; stroke: #000000; stroke-width: 0.8; stroke-linejoin: miter; stroke-linecap: square"/>
   </g>
   <g id="patch_13">
    <path d="M 485.422812 186.66 
L 485.422812 3.6 
" style="fill: none; stroke: #000000; stroke-width: 0.8; stroke-linejoin: miter; stroke-linecap: square"/>
   </g>
   <g id="patch_14">
    <path d="M 284.822812 186.66 
L 485.422812 186.66 
" style="fill: none; stroke: #000000; stroke-width: 0.8; stroke-linejoin: miter; stroke-linecap: square"/>
   </g>
   <g id="patch_15">
    <path d="M 284.822812 3.6 
L 485.422812 3.6 
" style="fill: none; stroke: #000000; stroke-width: 0.8; stroke-linejoin: miter; stroke-linecap: square"/>
   </g>
   <g id="PathCollection_1">
    <defs>
     <path id="me30561789f" d="M 0 1 
C 0.265203 1 0.51958 0.894634 0.707107 0.707107 
C 0.894634 0.51958 1 0.265203 1 0 
C 1 -0.265203 0.894634 -0.51958 0.707107 -0.707107 
C 0.51958 -0.894634 0.265203 -1 0 -1 
C -0.265203 -1 -0.51958 -0.894634 -0.707107 -0.707107 
C -0.894634 -0.51958 -1 -0.265203 -1 0 
C -1 0.265203 -0.894634 0.51958 -0.707107 0.707107 
C -0.51958 0.894634 -0.265203 1 0 1 
z
"/>
    </defs>
    <g clip-path="url(#pffb109f888)">
     <use xlink:href="#me30561789f" x="309.743508" y="167.626936" style="fill-opacity: 0.4"/>
     <use xlink:href="#me30561789f" x="314.515779" y="171.169202" style="fill-opacity: 0.4"/>
     <use xlink:href="#me30561789f" x="314.297148" y="171.169202" style="fill-opacity: 0.4"/>
     <use xlink:href="#me30561789f" x="314.499915" y="171.169202" style="fill-opacity: 0.4"/>
     <use xlink:href="#me30561789f" x="309.129737" y="171.169202" style="fill-opacity: 0.4"/>
     <use xlink:href="#me30561789f" x="310.064588" y="171.802515" style="fill-opacity: 0.4"/>
     <use xlink:href="#me30561789f" x="310.276275" y="171.169202" style="fill-opacity: 0.4"/>
     <use xlink:href="#me30561789f" x="312.206785" y="170.786332" style="fill-opacity: 0.4"/>
     <use xlink:href="#me30561789f" x="308.501032" y="171.802515" style="fill-opacity: 0.4"/>
     <use xlink:href="#me30561789f" x="308.528845" y="166.949358" style="fill-opacity: 0.4"/>
     <use xlink:href="#me30561789f" x="314.248995" y="171.169202" style="fill-opacity: 0.4"/>
     <use xlink:href="#me30561789f" x="310.506561" y="166.949358" style="fill-opacity: 0.4"/>
     <use xlink:href="#me30561789f" x="309.6273" y="171.169202" style="fill-opacity: 0.4"/>
     <use xlink:href="#me30561789f" x="306.412507" y="171.169202" style="fill-opacity: 0.4"/>
     <use xlink:href="#me30561789f" x="314.243662" y="160.42744" style="fill-opacity: 0.4"/>
     <use xlink:href="#me30561789f" x="309.200048" y="171.802515" style="fill-opacity: 0.4"/>
     <use xlink:href="#me30561789f" x="313.924825" y="162.088999" style="fill-opacity: 0.4"/>
     <use xlink:href="#me30561789f" x="313.424963" y="171.169202" style="fill-opacity: 0.4"/>
     <use xlink:href="#me30561789f" x="304.912729" y="171.169202" style="fill-opacity: 0.4"/>
     <use xlink:href="#me30561789f" x="306.986932" y="165.969407" style="fill-opacity: 0.4"/>
     <use xlink:href="#me30561789f" x="307.955286" y="171.802515" style="fill-opacity: 0.4"/>
     <use xlink:href="#me30561789f" x="314.764285" y="171.802515" style="fill-opacity: 0.4"/>
     <use xlink:href="#me30561789f" x="313.160542" y="169.827891" style="fill-opacity: 0.4"/>
     <use xlink:href="#me30561789f" x="311.739954" y="168.668984" style="fill-opacity: 0.4"/>
     <use xlink:href="#me30561789f" x="314.34083" y="170.830597" style="fill-opacity: 0.4"/>
     <use xlink:href="#me30561789f" x="309.84557" y="160.47334" style="fill-opacity: 0.4"/>
     <use xlink:href="#me30561789f" x="305.73578" y="171.802515" style="fill-opacity: 0.4"/>
     <use xlink:href="#me30561789f" x="313.734042" y="171.169202" style="fill-opacity: 0.4"/>
     <use xlink:href="#me30561789f" x="305.55757" y="171.84678" style="fill-opacity: 0.4"/>
     <use xlink:href="#me30561789f" x="310.711185" y="171.169202" style="fill-opacity: 0.4"/>
    </g>
   </g>
   <g id="PathCollection_2">
    <g clip-path="url(#pffb109f888)">
     <use xlink:href="#me30561789f" x="360.673327" y="171.169202" style="fill-opacity: 0.4"/>
     <use xlink:href="#me30561789f" x="360.422212" y="171.169202" style="fill-opacity: 0.4"/>
     <use xlink:href="#me30561789f" x="364.118111" y="156.467592" style="fill-opacity: 0.4"/>
     <use xlink:href="#me30561789f" x="360.268024" y="156.467592" style="fill-opacity: 0.4"/>
     <use xlink:href="#me30561789f" x="358.971179" y="171.169202" style="fill-opacity: 0.4"/>
     <use xlink:href="#me30561789f" x="362.265977" y="171.169202" style="fill-opacity: 0.4"/>
     <use xlink:href="#me30561789f" x="361.15681" y="171.169202" style="fill-opacity: 0.4"/>
     <use xlink:href="#me30561789f" x="355.818847" y="156.467592" style="fill-opacity: 0.4"/>
     <use xlink:href="#me30561789f" x="364.090709" y="155.232979" style="fill-opacity: 0.4"/>
     <use xlink:href="#me30561789f" x="361.840487" y="171.169202" style="fill-opacity: 0.4"/>
     <use xlink:href="#me30561789f" x="361.56051" y="170.153019" style="fill-opacity: 0.4"/>
     <use xlink:href="#me30561789f" x="364.761931" y="157.838655" style="fill-opacity: 0.4"/>
     <use xlink:href="#me30561789f" x="356.987154" y="171.169202" style="fill-opacity: 0.4"/>
     <use xlink:href="#me30561789f" x="356.468265" y="153.577756" style="fill-opacity: 0.4"/>
     <use xlink:href="#me30561789f" x="360.894932" y="166.949358" style="fill-opacity: 0.4"/>
     <use xlink:href="#me30561789f" x="362.642713" y="171.169202" style="fill-opacity: 0.4"/>
     <use xlink:href="#me30561789f" x="355.152747" y="153.577756" style="fill-opacity: 0.4"/>
     <use xlink:href="#me30561789f" x="357.388749" y="156.467592" style="fill-opacity: 0.4"/>
     <use xlink:href="#me30561789f" x="363.991631" y="171.169202" style="fill-opacity: 0.4"/>
     <use xlink:href="#me30561789f" x="363.693319" y="168.668984" style="fill-opacity: 0.4"/>
     <use xlink:href="#me30561789f" x="360.063647" y="171.169202" style="fill-opacity: 0.4"/>
     <use xlink:href="#me30561789f" x="358.795947" y="168.668984" style="fill-opacity: 0.4"/>
     <use xlink:href="#me30561789f" x="358.858368" y="171.169202" style="fill-opacity: 0.4"/>
     <use xlink:href="#me30561789f" x="362.961712" y="156.467592" style="fill-opacity: 0.4"/>
     <use xlink:href="#me30561789f" x="363.952908" y="171.169202" style="fill-opacity: 0.4"/>
     <use xlink:href="#me30561789f" x="359.743715" y="165.774455" style="fill-opacity: 0.4"/>
     <use xlink:href="#me30561789f" x="360.847315" y="159.544126" style="fill-opacity: 0.4"/>
     <use xlink:href="#me30561789f" x="357.436549" y="156.467592" style="fill-opacity: 0.4"/>
     <use xlink:href="#me30561789f" x="357.675806" y="171.169202" style="fill-opacity: 0.4"/>
     <use xlink:href="#me30561789f" x="362.181027" y="170.153019" style="fill-opacity: 0.4"/>
    </g>
   </g>
   <g id="PathCollection_3">
    <g clip-path="url(#pffb109f888)">
     <use xlink:href="#me30561789f" x="405.800723" y="95.527237" style="fill-opacity: 0.4"/>
     <use xlink:href="#me30561789f" x="407.327598" y="54.344524" style="fill-opacity: 0.4"/>
     <use xlink:href="#me30561789f" x="414.682344" y="95.109662" style="fill-opacity: 0.4"/>
     <use xlink:href="#me30561789f" x="407.569082" y="99.637312" style="fill-opacity: 0.4"/>
     <use xlink:href="#me30561789f" x="412.095482" y="135.204613" style="fill-opacity: 0.4"/>
     <use xlink:href="#me30561789f" x="408.046024" y="68.462311" style="fill-opacity: 0.4"/>
     <use xlink:href="#me30561789f" x="410.080572" y="89.241043" style="fill-opacity: 0.4"/>
     <use xlink:href="#me30561789f" x="411.585674" y="108.284511" style="fill-opacity: 0.4"/>
     <use xlink:href="#me30561789f" x="414.737029" y="106.836542" style="fill-opacity: 0.4"/>
     <use xlink:href="#me30561789f" x="413.029448" y="134.184816" style="fill-opacity: 0.4"/>
     <use xlink:href="#me30561789f" x="410.200648" y="97.469698" style="fill-opacity: 0.4"/>
     <use xlink:href="#me30561789f" x="414.249887" y="134.717857" style="fill-opacity: 0.4"/>
     <use xlink:href="#me30561789f" x="412.291606" y="96.946809" style="fill-opacity: 0.4"/>
     <use xlink:href="#me30561789f" x="408.902146" y="82.621355" style="fill-opacity: 0.4"/>
     <use xlink:href="#me30561789f" x="411.50951" y="111.944533" style="fill-opacity: 0.4"/>
     <use xlink:href="#me30561789f" x="414.880899" y="77.218596" style="fill-opacity: 0.4"/>
     <use xlink:href="#me30561789f" x="414.332865" y="100.00326" style="fill-opacity: 0.4"/>
     <use xlink:href="#me30561789f" x="414.33646" y="59.390398" style="fill-opacity: 0.4"/>
     <use xlink:href="#me30561789f" x="411.715617" y="118.351568" style="fill-opacity: 0.4"/>
     <use xlink:href="#me30561789f" x="408.41417" y="102.807054" style="fill-opacity: 0.4"/>
     <use xlink:href="#me30561789f" x="409.955597" y="142.580899" style="fill-opacity: 0.4"/>
     <use xlink:href="#me30561789f" x="414.314188" y="82.046957" style="fill-opacity: 0.4"/>
     <use xlink:href="#me30561789f" x="405.333825" y="91.817921" style="fill-opacity: 0.4"/>
     <use xlink:href="#me30561789f" x="411.746019" y="138.563853" style="fill-opacity: 0.4"/>
     <use xlink:href="#me30561789f" x="408.463822" y="134.610181" style="fill-opacity: 0.4"/>
     <use xlink:href="#me30561789f" x="413.350905" y="132.428123" style="fill-opacity: 0.4"/>
     <use xlink:href="#me30561789f" x="406.907776" y="83.22119" style="fill-opacity: 0.4"/>
     <use xlink:href="#me30561789f" x="414.66692" y="82.280843" style="fill-opacity: 0.4"/>
     <use xlink:href="#me30561789f" x="412.141995" y="124.351964" style="fill-opacity: 0.4"/>
     <use xlink:href="#me30561789f" x="412.916541" y="39.03255" style="fill-opacity: 0.4"/>
    </g>
   </g>
   <g id="PathCollection_4">
    <g clip-path="url(#pffb109f888)">
     <use xlink:href="#me30561789f" x="460.895364" y="171.169202" style="fill-opacity: 0.4"/>
     <use xlink:href="#me30561789f" x="458.826142" y="171.84678" style="fill-opacity: 0.4"/>
     <use xlink:href="#me30561789f" x="463.091776" y="171.84678" style="fill-opacity: 0.4"/>
     <use xlink:href="#me30561789f" x="465.145501" y="171.84678" style="fill-opacity: 0.4"/>
     <use xlink:href="#me30561789f" x="457.364526" y="171.793759" style="fill-opacity: 0.4"/>
     <use xlink:href="#me30561789f" x="458.410607" y="171.84678" style="fill-opacity: 0.4"/>
     <use xlink:href="#me30561789f" x="463.008624" y="171.84678" style="fill-opacity: 0.4"/>
     <use xlink:href="#me30561789f" x="455.460709" y="171.169202" style="fill-opacity: 0.4"/>
     <use xlink:href="#me30561789f" x="461.092416" y="171.169202" style="fill-opacity: 0.4"/>
     <use xlink:href="#me30561789f" x="456.155784" y="171.84678" style="fill-opacity: 0.4"/>
     <use xlink:href="#me30561789f" x="460.379765" y="171.169202" style="fill-opacity: 0.4"/>
     <use xlink:href="#me30561789f" x="462.718196" y="171.84678" style="fill-opacity: 0.4"/>
     <use xlink:href="#me30561789f" x="463.190147" y="171.84678" style="fill-opacity: 0.4"/>
     <use xlink:href="#me30561789f" x="456.277269" y="171.84678" style="fill-opacity: 0.4"/>
     <use xlink:href="#me30561789f" x="463.556565" y="171.169202" style="fill-opacity: 0.4"/>
     <use xlink:href="#me30561789f" x="460.073413" y="171.84678" style="fill-opacity: 0.4"/>
     <use xlink:href="#me30561789f" x="462.909938" y="171.84678" style="fill-opacity: 0.4"/>
     <use xlink:href="#me30561789f" x="457.864725" y="171.84678" style="fill-opacity: 0.4"/>
     <use xlink:href="#me30561789f" x="458.958947" y="171.169202" style="fill-opacity: 0.4"/>
     <use xlink:href="#me30561789f" x="460.663449" y="171.84678" style="fill-opacity: 0.4"/>
     <use xlink:href="#me30561789f" x="462.239638" y="171.84678" style="fill-opacity: 0.4"/>
     <use xlink:href="#me30561789f" x="464.334271" y="171.124937" style="fill-opacity: 0.4"/>
     <use xlink:href="#me30561789f" x="458.790052" y="171.169202" style="fill-opacity: 0.4"/>
     <use xlink:href="#me30561789f" x="461.823669" y="171.169202" style="fill-opacity: 0.4"/>
     <use xlink:href="#me30561789f" x="465.3327" y="171.051244" style="fill-opacity: 0.4"/>
     <use xlink:href="#me30561789f" x="462.632437" y="171.84678" style="fill-opacity: 0.4"/>
     <use xlink:href="#me30561789f" x="459.385792" y="171.84678" style="fill-opacity: 0.4"/>
     <use xlink:href="#me30561789f" x="463.816936" y="171.84678" style="fill-opacity: 0.4"/>
     <use xlink:href="#me30561789f" x="455.634348" y="171.84678" style="fill-opacity: 0.4"/>
     <use xlink:href="#me30561789f" x="460.852456" y="171.84678" style="fill-opacity: 0.4"/>
    </g>
   </g>
   <g id="text_26">
    <text style="font-weight: 700; font-size: 10px; font-family: 'Times New Roman', 'Times', 'DejaVu Serif', serif; text-anchor: start" x="288.834812" y="19.387375" transform="rotate(-0 288.834812 19.387375)">(b)</text>
   </g>
  </g>
 </g>
 <defs>
  <clipPath id="p2bd2b844bf">
   <rect x="33.682813" y="3.6" width="200.6" height="183.06"/>
  </clipPath>
  <clipPath id="pffb109f888">
   <rect x="284.822812" y="3.6" width="200.6" height="183.06"/>
  </clipPath>
 </defs>
</svg>
